<svg width="675" height="675" viewBox="0 0 675 675" fill="none" xmlns="http://www.w3.org/2000/svg">
<g clip-path="url(#clip0_72_734)">
<rect width="675" height="675" rx="16" fill="#0C1113"/>
<g filter="url(#filter0_f_72_734)">
<rect x="325.88" y="347" width="67.1537" height="61.5012" rx="26" transform="rotate(25.9164 325.88 347)" fill="#C1CAFA" fill-opacity="0.2"/>
</g>
<g filter="url(#filter1_f_72_734)">
<rect x="125.88" y="445" width="67.6698" height="61.5012" rx="26" transform="rotate(25.9164 125.88 445)" fill="#C1CAFA" fill-opacity="0.2"/>
</g>
<g filter="url(#filter2_f_72_734)">
<rect x="505.88" y="451" width="67.6698" height="61.5012" rx="26" transform="rotate(25.9164 505.88 451)" fill="#C1CAFA" fill-opacity="0.2"/>
</g>
<g filter="url(#filter3_f_72_734)">
<rect x="324.88" y="581" width="67.6698" height="61.5012" rx="26" transform="rotate(25.9164 324.88 581)" fill="#FF7DA4" fill-opacity="0.08"/>
</g>
<g filter="url(#filter4_f_72_734)">
<rect x="316.966" y="157" width="247.231" height="238.259" rx="26" transform="rotate(41.8513 316.966 157)" fill="#C1CAFA" fill-opacity="0.1"/>
</g>
<path d="M26 334.828L605.495 334.828" stroke="white" stroke-opacity="0.1" stroke-width="0.35" stroke-linecap="round"/>
<path d="M26 388.416L605.495 388.416" stroke="white" stroke-opacity="0.1" stroke-width="0.35" stroke-linecap="round"/>
<path d="M26 443.679L605.495 443.679" stroke="white" stroke-opacity="0.1" stroke-width="0.35" stroke-linecap="round"/>
<path d="M26 492.244L605.495 492.244" stroke="white" stroke-opacity="0.1" stroke-width="0.35" stroke-linecap="round"/>
<path d="M26 540.809L605.495 540.808" stroke="white" stroke-opacity="0.1" stroke-width="0.35" stroke-linecap="round"/>
<path d="M26 287.938L605.495 287.938" stroke="white" stroke-opacity="0.1" stroke-width="0.35" stroke-linecap="round"/>
<path d="M202.572 581V231" stroke="white" stroke-opacity="0.1" stroke-width="0.35" stroke-linecap="round"/>
<path d="M272.074 581V231" stroke="white" stroke-opacity="0.1" stroke-width="0.35" stroke-linecap="round"/>
<path d="M341.577 581V231" stroke="white" stroke-opacity="0.1" stroke-width="0.35" stroke-linecap="round"/>
<path d="M411.078 581V231" stroke="white" stroke-opacity="0.1" stroke-width="0.35" stroke-linecap="round"/>
<path d="M480.58 581V231" stroke="white" stroke-opacity="0.1" stroke-width="0.35" stroke-linecap="round"/>
<path d="M550.082 581V231" stroke="white" stroke-opacity="0.1" stroke-width="0.35" stroke-linecap="round"/>
<path d="M127.435 581L127.435 231" stroke="white" stroke-opacity="0.1" stroke-width="0.35" stroke-linecap="round"/>
<path d="M52.2984 581L52.2984 231" stroke="white" stroke-opacity="0.1" stroke-width="0.35" stroke-linecap="round"/>
<path d="M60.5045 334.828L640 334.828" stroke="white" stroke-opacity="0.1" stroke-width="0.35" stroke-linecap="round"/>
<path d="M60.5045 388.416L640 388.416" stroke="white" stroke-opacity="0.1" stroke-width="0.35" stroke-linecap="round"/>
<path d="M60.5045 443.679L640 443.679" stroke="white" stroke-opacity="0.1" stroke-width="0.35" stroke-linecap="round"/>
<path d="M60.5045 492.244L640 492.244" stroke="white" stroke-opacity="0.1" stroke-width="0.35" stroke-linecap="round"/>
<path d="M60.5045 540.809L640 540.808" stroke="white" stroke-opacity="0.1" stroke-width="0.35" stroke-linecap="round"/>
<path d="M60.5045 287.938L640 287.938" stroke="white" stroke-opacity="0.1" stroke-width="0.35" stroke-linecap="round"/>
<path d="M237.077 581V231" stroke="white" stroke-opacity="0.1" stroke-width="0.35" stroke-linecap="round"/>
<path d="M306.578 581V231" stroke="white" stroke-opacity="0.1" stroke-width="0.35" stroke-linecap="round"/>
<path d="M376.081 581V231" stroke="white" stroke-opacity="0.1" stroke-width="0.35" stroke-linecap="round"/>
<path d="M445.582 581V231" stroke="white" stroke-opacity="0.1" stroke-width="0.35" stroke-linecap="round"/>
<path d="M515.085 581V231" stroke="white" stroke-opacity="0.1" stroke-width="0.35" stroke-linecap="round"/>
<path d="M584.586 581V231" stroke="white" stroke-opacity="0.1" stroke-width="0.35" stroke-linecap="round"/>
<path d="M161.94 581V231" stroke="white" stroke-opacity="0.1" stroke-width="0.35" stroke-linecap="round"/>
<path d="M86.8031 581L86.8031 231" stroke="white" stroke-opacity="0.1" stroke-width="0.35" stroke-linecap="round"/>
<path d="M59.5114 61.7273V85H55.2955V61.7273H59.5114ZM68.0085 74.7727V85H63.8949V67.5455H67.8267V70.5114H68.0312C68.4328 69.5341 69.0729 68.7576 69.9517 68.1818C70.8381 67.6061 71.9328 67.3182 73.2358 67.3182C74.4403 67.3182 75.4896 67.5758 76.3835 68.0909C77.285 68.6061 77.982 69.3523 78.4744 70.3295C78.9744 71.3068 79.2206 72.4924 79.2131 73.8864V85H75.0994V74.5227C75.0994 73.3561 74.7964 72.4432 74.1903 71.7841C73.5919 71.125 72.7623 70.7955 71.7017 70.7955C70.982 70.7955 70.3419 70.9545 69.7812 71.2727C69.2282 71.5833 68.7926 72.0341 68.4744 72.625C68.1638 73.2159 68.0085 73.9318 68.0085 74.7727ZM97.1903 72.1591L93.4403 72.5682C93.3343 72.1894 93.1487 71.8333 92.8835 71.5C92.6259 71.1667 92.2775 70.8977 91.8381 70.6932C91.3987 70.4886 90.8608 70.3864 90.2244 70.3864C89.3684 70.3864 88.6487 70.572 88.0653 70.9432C87.4896 71.3144 87.2055 71.7955 87.2131 72.3864C87.2055 72.8939 87.3911 73.3068 87.7699 73.625C88.1563 73.9432 88.7926 74.2045 89.679 74.4091L92.6562 75.0455C94.3078 75.4015 95.535 75.9659 96.3381 76.7386C97.1487 77.5114 97.5578 78.5227 97.5653 79.7727C97.5578 80.8712 97.2358 81.8409 96.5994 82.6818C95.9706 83.5152 95.0956 84.1667 93.9744 84.6364C92.8532 85.1061 91.5653 85.3409 90.1108 85.3409C87.9744 85.3409 86.2547 84.8939 84.9517 84C83.6487 83.0985 82.8722 81.8447 82.6222 80.2386L86.6335 79.8523C86.8153 80.6402 87.2017 81.2348 87.7926 81.6364C88.3835 82.0379 89.1525 82.2386 90.0994 82.2386C91.0767 82.2386 91.8608 82.0379 92.4517 81.6364C93.0502 81.2348 93.3494 80.7386 93.3494 80.1477C93.3494 79.6477 93.1563 79.2348 92.7699 78.9091C92.3911 78.5833 91.8002 78.3333 90.9972 78.1591L88.0199 77.5341C86.3456 77.1856 85.107 76.5985 84.304 75.7727C83.5009 74.9394 83.1032 73.8864 83.1108 72.6136C83.1032 71.5379 83.3949 70.6061 83.9858 69.8182C84.5843 69.0227 85.4138 68.4091 86.4744 67.9773C87.5426 67.5379 88.7737 67.3182 90.1676 67.3182C92.2131 67.3182 93.8229 67.7538 94.9972 68.625C96.179 69.4962 96.91 70.6742 97.1903 72.1591ZM100.957 85V67.5455H105.071V85H100.957ZM103.026 65.0682C102.374 65.0682 101.813 64.8523 101.344 64.4205C100.874 63.9811 100.639 63.4545 100.639 62.8409C100.639 62.2197 100.874 61.6932 101.344 61.2614C101.813 60.822 102.374 60.6023 103.026 60.6023C103.685 60.6023 104.245 60.822 104.707 61.2614C105.177 61.6932 105.412 62.2197 105.412 62.8409C105.412 63.4545 105.177 63.9811 104.707 64.4205C104.245 64.8523 103.685 65.0682 103.026 65.0682ZM116.892 91.9091C115.415 91.9091 114.146 91.7083 113.085 91.3068C112.025 90.9129 111.172 90.3826 110.528 89.7159C109.884 89.0492 109.438 88.3106 109.188 87.5L112.892 86.6023C113.059 86.9432 113.301 87.2803 113.619 87.6136C113.938 87.9545 114.366 88.2348 114.903 88.4545C115.449 88.6818 116.134 88.7955 116.96 88.7955C118.127 88.7955 119.093 88.5114 119.858 87.9432C120.623 87.3826 121.006 86.4583 121.006 85.1705V81.8636H120.801C120.589 82.2879 120.278 82.7235 119.869 83.1705C119.468 83.6174 118.934 83.9924 118.267 84.2955C117.608 84.5985 116.778 84.75 115.778 84.75C114.438 84.75 113.222 84.4356 112.131 83.8068C111.047 83.1705 110.184 82.2235 109.54 80.9659C108.903 79.7008 108.585 78.1174 108.585 76.2159C108.585 74.2992 108.903 72.6818 109.54 71.3636C110.184 70.0379 111.051 69.0341 112.142 68.3523C113.233 67.6629 114.449 67.3182 115.79 67.3182C116.813 67.3182 117.653 67.4924 118.312 67.8409C118.979 68.1818 119.509 68.5947 119.903 69.0795C120.297 69.5568 120.597 70.0076 120.801 70.4318H121.028V67.5455H125.085V85.2841C125.085 86.7765 124.729 88.0114 124.017 88.9886C123.305 89.9659 122.331 90.697 121.097 91.1818C119.862 91.6667 118.46 91.9091 116.892 91.9091ZM116.926 81.5227C117.797 81.5227 118.54 81.3106 119.153 80.8864C119.767 80.4621 120.233 79.8523 120.551 79.0568C120.869 78.2614 121.028 77.3068 121.028 76.1932C121.028 75.0947 120.869 74.1326 120.551 73.3068C120.241 72.4811 119.778 71.8409 119.165 71.3864C118.559 70.9242 117.813 70.6932 116.926 70.6932C116.009 70.6932 115.244 70.9318 114.631 71.4091C114.017 71.8864 113.555 72.5417 113.244 73.375C112.934 74.2008 112.778 75.1402 112.778 76.1932C112.778 77.2614 112.934 78.197 113.244 79C113.563 79.7955 114.028 80.4167 114.642 80.8636C115.263 81.303 116.025 81.5227 116.926 81.5227ZM133.415 74.7727V85H129.301V61.7273H133.324V70.5114H133.528C133.938 69.5265 134.57 68.75 135.426 68.1818C136.29 67.6061 137.388 67.3182 138.722 67.3182C139.934 67.3182 140.991 67.572 141.892 68.0795C142.794 68.5871 143.491 69.3295 143.983 70.3068C144.483 71.2841 144.733 72.4773 144.733 73.8864V85H140.619V74.5227C140.619 73.3485 140.316 72.4356 139.71 71.7841C139.112 71.125 138.271 70.7955 137.188 70.7955C136.46 70.7955 135.809 70.9545 135.233 71.2727C134.665 71.5833 134.218 72.0341 133.892 72.625C133.574 73.2159 133.415 73.9318 133.415 74.7727ZM157.642 67.5455V70.7273H147.608V67.5455H157.642ZM150.085 63.3636H154.199V79.75C154.199 80.303 154.282 80.7273 154.449 81.0227C154.623 81.3106 154.85 81.5076 155.131 81.6136C155.411 81.7197 155.722 81.7727 156.062 81.7727C156.32 81.7727 156.555 81.7538 156.767 81.7159C156.987 81.678 157.153 81.6439 157.267 81.6136L157.96 84.8295C157.741 84.9053 157.426 84.9886 157.017 85.0795C156.616 85.1705 156.123 85.2235 155.54 85.2386C154.509 85.2689 153.581 85.1136 152.756 84.7727C151.93 84.4242 151.275 83.8864 150.79 83.1591C150.313 82.4318 150.078 81.5227 150.085 80.4318V63.3636ZM174.628 72.1591L170.878 72.5682C170.772 72.1894 170.586 71.8333 170.321 71.5C170.063 71.1667 169.715 70.8977 169.276 70.6932C168.836 70.4886 168.298 70.3864 167.662 70.3864C166.806 70.3864 166.086 70.572 165.503 70.9432C164.927 71.3144 164.643 71.7955 164.651 72.3864C164.643 72.8939 164.829 73.3068 165.207 73.625C165.594 73.9432 166.23 74.2045 167.116 74.4091L170.094 75.0455C171.745 75.4015 172.973 75.9659 173.776 76.7386C174.586 77.5114 174.995 78.5227 175.003 79.7727C174.995 80.8712 174.673 81.8409 174.037 82.6818C173.408 83.5152 172.533 84.1667 171.412 84.6364C170.291 85.1061 169.003 85.3409 167.548 85.3409C165.412 85.3409 163.692 84.8939 162.389 84C161.086 83.0985 160.31 81.8447 160.06 80.2386L164.071 79.8523C164.253 80.6402 164.639 81.2348 165.23 81.6364C165.821 82.0379 166.59 82.2386 167.537 82.2386C168.514 82.2386 169.298 82.0379 169.889 81.6364C170.488 81.2348 170.787 80.7386 170.787 80.1477C170.787 79.6477 170.594 79.2348 170.207 78.9091C169.829 78.5833 169.238 78.3333 168.435 78.1591L165.457 77.5341C163.783 77.1856 162.545 76.5985 161.741 75.7727C160.938 74.9394 160.541 73.8864 160.548 72.6136C160.541 71.5379 160.832 70.6061 161.423 69.8182C162.022 69.0227 162.851 68.4091 163.912 67.9773C164.98 67.5379 166.211 67.3182 167.605 67.3182C169.651 67.3182 171.26 67.7538 172.435 68.625C173.616 69.4962 174.348 70.6742 174.628 72.1591ZM193.946 85.3409C192.241 85.3409 190.764 84.9659 189.514 84.2159C188.264 83.4659 187.295 82.4167 186.605 81.0682C185.923 79.7197 185.582 78.1439 185.582 76.3409C185.582 74.5379 185.923 72.9583 186.605 71.6023C187.295 70.2462 188.264 69.1932 189.514 68.4432C190.764 67.6932 192.241 67.3182 193.946 67.3182C195.651 67.3182 197.128 67.6932 198.378 68.4432C199.628 69.1932 200.594 70.2462 201.276 71.6023C201.965 72.9583 202.31 74.5379 202.31 76.3409C202.31 78.1439 201.965 79.7197 201.276 81.0682C200.594 82.4167 199.628 83.4659 198.378 84.2159C197.128 84.9659 195.651 85.3409 193.946 85.3409ZM193.969 82.0455C194.893 82.0455 195.666 81.7917 196.287 81.2841C196.908 80.7689 197.37 80.0795 197.673 79.2159C197.984 78.3523 198.139 77.3902 198.139 76.3295C198.139 75.2614 197.984 74.2955 197.673 73.4318C197.37 72.5606 196.908 71.8674 196.287 71.3523C195.666 70.8371 194.893 70.5795 193.969 70.5795C193.022 70.5795 192.234 70.8371 191.605 71.3523C190.984 71.8674 190.518 72.5606 190.207 73.4318C189.904 74.2955 189.753 75.2614 189.753 76.3295C189.753 77.3902 189.904 78.3523 190.207 79.2159C190.518 80.0795 190.984 80.7689 191.605 81.2841C192.234 81.7917 193.022 82.0455 193.969 82.0455ZM209.915 74.7727V85H205.801V67.5455H209.733V70.5114H209.938C210.339 69.5341 210.979 68.7576 211.858 68.1818C212.744 67.6061 213.839 67.3182 215.142 67.3182C216.347 67.3182 217.396 67.5758 218.29 68.0909C219.191 68.6061 219.888 69.3523 220.381 70.3295C220.881 71.3068 221.127 72.4924 221.119 73.8864V85H217.006V74.5227C217.006 73.3561 216.703 72.4432 216.097 71.7841C215.498 71.125 214.669 70.7955 213.608 70.7955C212.888 70.7955 212.248 70.9545 211.688 71.2727C211.134 71.5833 210.699 72.0341 210.381 72.625C210.07 73.2159 209.915 73.9318 209.915 74.7727ZM233.42 85V61.7273H242.148C243.936 61.7273 245.436 62.0606 246.648 62.7273C247.867 63.3939 248.788 64.3106 249.409 65.4773C250.038 66.6364 250.352 67.9545 250.352 69.4318C250.352 70.9242 250.038 72.25 249.409 73.4091C248.78 74.5682 247.852 75.4811 246.625 76.1477C245.398 76.8068 243.886 77.1364 242.091 77.1364H236.307V73.6705H241.523C242.568 73.6705 243.424 73.4886 244.091 73.125C244.758 72.7614 245.25 72.2614 245.568 71.625C245.894 70.9886 246.057 70.2576 246.057 69.4318C246.057 68.6061 245.894 67.8788 245.568 67.25C245.25 66.6212 244.754 66.1326 244.08 65.7841C243.413 65.428 242.553 65.25 241.5 65.25H237.636V85H233.42ZM253.832 85V67.5455H257.821V70.4545H258.003C258.321 69.447 258.866 68.6705 259.639 68.125C260.42 67.572 261.31 67.2955 262.31 67.2955C262.537 67.2955 262.791 67.3068 263.071 67.3295C263.359 67.3447 263.598 67.3712 263.787 67.4091V71.1932C263.613 71.1326 263.336 71.0795 262.957 71.0341C262.586 70.9811 262.226 70.9545 261.878 70.9545C261.128 70.9545 260.454 71.1174 259.855 71.4432C259.264 71.7614 258.798 72.2045 258.457 72.7727C258.116 73.3409 257.946 73.9962 257.946 74.7386V85H253.832ZM273.415 85.3409C271.71 85.3409 270.233 84.9659 268.983 84.2159C267.733 83.4659 266.763 82.4167 266.074 81.0682C265.392 79.7197 265.051 78.1439 265.051 76.3409C265.051 74.5379 265.392 72.9583 266.074 71.6023C266.763 70.2462 267.733 69.1932 268.983 68.4432C270.233 67.6932 271.71 67.3182 273.415 67.3182C275.119 67.3182 276.597 67.6932 277.847 68.4432C279.097 69.1932 280.063 70.2462 280.744 71.6023C281.434 72.9583 281.778 74.5379 281.778 76.3409C281.778 78.1439 281.434 79.7197 280.744 81.0682C280.063 82.4167 279.097 83.4659 277.847 84.2159C276.597 84.9659 275.119 85.3409 273.415 85.3409ZM273.438 82.0455C274.362 82.0455 275.134 81.7917 275.756 81.2841C276.377 80.7689 276.839 80.0795 277.142 79.2159C277.453 78.3523 277.608 77.3902 277.608 76.3295C277.608 75.2614 277.453 74.2955 277.142 73.4318C276.839 72.5606 276.377 71.8674 275.756 71.3523C275.134 70.8371 274.362 70.5795 273.438 70.5795C272.491 70.5795 271.703 70.8371 271.074 71.3523C270.453 71.8674 269.987 72.5606 269.676 73.4318C269.373 74.2955 269.222 75.2614 269.222 76.3295C269.222 77.3902 269.373 78.3523 269.676 79.2159C269.987 80.0795 270.453 80.7689 271.074 81.2841C271.703 81.7917 272.491 82.0455 273.438 82.0455ZM299.065 72.1591L295.315 72.5682C295.209 72.1894 295.024 71.8333 294.759 71.5C294.501 71.1667 294.152 70.8977 293.713 70.6932C293.274 70.4886 292.736 70.3864 292.099 70.3864C291.243 70.3864 290.524 70.572 289.94 70.9432C289.365 71.3144 289.08 71.7955 289.088 72.3864C289.08 72.8939 289.266 73.3068 289.645 73.625C290.031 73.9432 290.668 74.2045 291.554 74.4091L294.531 75.0455C296.183 75.4015 297.41 75.9659 298.213 76.7386C299.024 77.5114 299.433 78.5227 299.44 79.7727C299.433 80.8712 299.111 81.8409 298.474 82.6818C297.846 83.5152 296.971 84.1667 295.849 84.6364C294.728 85.1061 293.44 85.3409 291.986 85.3409C289.849 85.3409 288.13 84.8939 286.827 84C285.524 83.0985 284.747 81.8447 284.497 80.2386L288.509 79.8523C288.69 80.6402 289.077 81.2348 289.668 81.6364C290.259 82.0379 291.027 82.2386 291.974 82.2386C292.952 82.2386 293.736 82.0379 294.327 81.6364C294.925 81.2348 295.224 80.7386 295.224 80.1477C295.224 79.6477 295.031 79.2348 294.645 78.9091C294.266 78.5833 293.675 78.3333 292.872 78.1591L289.895 77.5341C288.221 77.1856 286.982 76.5985 286.179 75.7727C285.376 74.9394 284.978 73.8864 284.986 72.6136C284.978 71.5379 285.27 70.6061 285.861 69.8182C286.459 69.0227 287.289 68.4091 288.349 67.9773C289.418 67.5379 290.649 67.3182 292.043 67.3182C294.088 67.3182 295.698 67.7538 296.872 68.625C298.054 69.4962 298.785 70.6742 299.065 72.1591ZM302.832 91.5455V67.5455H306.878V70.4318H307.116C307.329 70.0076 307.628 69.5568 308.014 69.0795C308.401 68.5947 308.923 68.1818 309.582 67.8409C310.241 67.4924 311.082 67.3182 312.105 67.3182C313.454 67.3182 314.67 67.6629 315.753 68.3523C316.844 69.0341 317.707 70.0455 318.344 71.3864C318.988 72.7197 319.31 74.3561 319.31 76.2955C319.31 78.2121 318.995 79.8409 318.366 81.1818C317.738 82.5227 316.882 83.5455 315.798 84.25C314.715 84.9545 313.488 85.3068 312.116 85.3068C311.116 85.3068 310.287 85.1402 309.628 84.8068C308.969 84.4735 308.438 84.072 308.037 83.6023C307.643 83.125 307.336 82.6742 307.116 82.25H306.946V91.5455H302.832ZM306.866 76.2727C306.866 77.4015 307.026 78.3902 307.344 79.2386C307.67 80.0871 308.135 80.75 308.741 81.2273C309.355 81.697 310.098 81.9318 310.969 81.9318C311.878 81.9318 312.639 81.6894 313.253 81.2045C313.866 80.7121 314.329 80.0417 314.639 79.1932C314.957 78.3371 315.116 77.3636 315.116 76.2727C315.116 75.1894 314.961 74.2273 314.651 73.3864C314.34 72.5455 313.878 71.8864 313.264 71.4091C312.651 70.9318 311.885 70.6932 310.969 70.6932C310.09 70.6932 309.344 70.9242 308.73 71.3864C308.116 71.8485 307.651 72.4962 307.332 73.3295C307.022 74.1629 306.866 75.1439 306.866 76.2727ZM330.56 85.3409C328.81 85.3409 327.298 84.9773 326.026 84.25C324.76 83.5152 323.787 82.4773 323.105 81.1364C322.423 79.7879 322.082 78.2008 322.082 76.375C322.082 74.5795 322.423 73.0038 323.105 71.6477C323.795 70.2841 324.757 69.2235 325.991 68.4659C327.226 67.7008 328.677 67.3182 330.344 67.3182C331.42 67.3182 332.435 67.4924 333.389 67.8409C334.351 68.1818 335.2 68.7121 335.935 69.4318C336.677 70.1515 337.26 71.0682 337.685 72.1818C338.109 73.2879 338.321 74.6061 338.321 76.1364V77.3977H324.014V74.625H334.378C334.37 73.8371 334.2 73.1364 333.866 72.5227C333.533 71.9015 333.067 71.4129 332.469 71.0568C331.878 70.7008 331.188 70.5227 330.401 70.5227C329.56 70.5227 328.821 70.7273 328.185 71.1364C327.548 71.5379 327.052 72.0682 326.696 72.7273C326.348 73.3788 326.17 74.0947 326.162 74.875V77.2955C326.162 78.3106 326.348 79.1818 326.719 79.9091C327.09 80.6288 327.609 81.1818 328.276 81.5682C328.942 81.947 329.723 82.1364 330.616 82.1364C331.215 82.1364 331.757 82.053 332.241 81.8864C332.726 81.7121 333.147 81.4583 333.503 81.125C333.859 80.7917 334.128 80.3788 334.31 79.8864L338.151 80.3182C337.908 81.3333 337.446 82.2197 336.764 82.9773C336.09 83.7273 335.226 84.3106 334.173 84.7273C333.12 85.1364 331.916 85.3409 330.56 85.3409ZM349.415 85.3409C347.672 85.3409 346.176 84.9583 344.926 84.1932C343.684 83.428 342.725 82.3712 342.051 81.0227C341.384 79.6667 341.051 78.1061 341.051 76.3409C341.051 74.5682 341.392 73.0038 342.074 71.6477C342.756 70.2841 343.718 69.2235 344.96 68.4659C346.21 67.7008 347.688 67.3182 349.392 67.3182C350.809 67.3182 352.063 67.5795 353.153 68.1023C354.252 68.6174 355.127 69.3485 355.778 70.2955C356.43 71.2348 356.801 72.3333 356.892 73.5909H352.96C352.801 72.75 352.422 72.0492 351.824 71.4886C351.233 70.9205 350.441 70.6364 349.449 70.6364C348.608 70.6364 347.869 70.8636 347.233 71.3182C346.597 71.7652 346.1 72.4091 345.744 73.25C345.396 74.0909 345.222 75.0985 345.222 76.2727C345.222 77.4621 345.396 78.4848 345.744 79.3409C346.093 80.1894 346.581 80.8447 347.21 81.3068C347.847 81.7614 348.593 81.9886 349.449 81.9886C350.055 81.9886 350.597 81.875 351.074 81.6477C351.559 81.4129 351.964 81.0758 352.29 80.6364C352.616 80.197 352.839 79.6629 352.96 79.0341H356.892C356.794 80.2689 356.43 81.3636 355.801 82.3182C355.172 83.2652 354.316 84.0076 353.233 84.5455C352.15 85.0758 350.877 85.3409 349.415 85.3409ZM368.986 67.5455V70.7273H358.952V67.5455H368.986ZM361.429 63.3636H365.543V79.75C365.543 80.303 365.626 80.7273 365.793 81.0227C365.967 81.3106 366.194 81.5076 366.474 81.6136C366.755 81.7197 367.065 81.7727 367.406 81.7727C367.664 81.7727 367.899 81.7538 368.111 81.7159C368.33 81.678 368.497 81.6439 368.611 81.6136L369.304 84.8295C369.084 84.9053 368.77 84.9886 368.361 85.0795C367.959 85.1705 367.467 85.2235 366.884 85.2386C365.853 85.2689 364.925 85.1136 364.099 84.7727C363.274 84.4242 362.618 83.8864 362.134 83.1591C361.656 82.4318 361.421 81.5227 361.429 80.4318V63.3636ZM385.972 72.1591L382.222 72.5682C382.116 72.1894 381.93 71.8333 381.665 71.5C381.407 71.1667 381.059 70.8977 380.619 70.6932C380.18 70.4886 379.642 70.3864 379.006 70.3864C378.15 70.3864 377.43 70.572 376.847 70.9432C376.271 71.3144 375.987 71.7955 375.994 72.3864C375.987 72.8939 376.172 73.3068 376.551 73.625C376.938 73.9432 377.574 74.2045 378.46 74.4091L381.438 75.0455C383.089 75.4015 384.316 75.9659 385.119 76.7386C385.93 77.5114 386.339 78.5227 386.347 79.7727C386.339 80.8712 386.017 81.8409 385.381 82.6818C384.752 83.5152 383.877 84.1667 382.756 84.6364C381.634 85.1061 380.347 85.3409 378.892 85.3409C376.756 85.3409 375.036 84.8939 373.733 84C372.43 83.0985 371.653 81.8447 371.403 80.2386L375.415 79.8523C375.597 80.6402 375.983 81.2348 376.574 81.6364C377.165 82.0379 377.934 82.2386 378.881 82.2386C379.858 82.2386 380.642 82.0379 381.233 81.6364C381.831 81.2348 382.131 80.7386 382.131 80.1477C382.131 79.6477 381.938 79.2348 381.551 78.9091C381.172 78.5833 380.581 78.3333 379.778 78.1591L376.801 77.5341C375.127 77.1856 373.888 76.5985 373.085 75.7727C372.282 74.9394 371.884 73.8864 371.892 72.6136C371.884 71.5379 372.176 70.6061 372.767 69.8182C373.366 69.0227 374.195 68.4091 375.256 67.9773C376.324 67.5379 377.555 67.3182 378.949 67.3182C380.994 67.3182 382.604 67.7538 383.778 68.625C384.96 69.4962 385.691 70.6742 385.972 72.1591Z" fill="white"/>
<path d="M54.4091 127V115.364H58.3409C59.25 115.364 59.9962 115.519 60.5795 115.83C61.1629 116.136 61.5947 116.559 61.875 117.097C62.1553 117.634 62.2955 118.246 62.2955 118.932C62.2955 119.617 62.1553 120.225 61.875 120.756C61.5947 121.286 61.1648 121.703 60.5852 122.006C60.0057 122.305 59.2652 122.455 58.3636 122.455H55.1818V121.182H58.3182C58.9394 121.182 59.4394 121.091 59.8182 120.909C60.2008 120.727 60.4773 120.47 60.6477 120.136C60.822 119.799 60.9091 119.398 60.9091 118.932C60.9091 118.466 60.822 118.059 60.6477 117.71C60.4735 117.362 60.1951 117.093 59.8125 116.903C59.4299 116.71 58.9242 116.614 58.2955 116.614H55.8182V127H54.4091ZM59.8864 121.773L62.75 127H61.1136L58.2955 121.773H59.8864ZM68.027 127.182C67.1861 127.182 66.4607 126.996 65.8509 126.625C65.2448 126.25 64.777 125.727 64.4474 125.057C64.1217 124.383 63.9588 123.598 63.9588 122.705C63.9588 121.811 64.1217 121.023 64.4474 120.341C64.777 119.655 65.2353 119.121 65.8224 118.739C66.4134 118.352 67.1027 118.159 67.8906 118.159C68.3452 118.159 68.794 118.235 69.2372 118.386C69.6804 118.538 70.0838 118.784 70.4474 119.125C70.8111 119.462 71.1009 119.909 71.3168 120.466C71.5327 121.023 71.6406 121.708 71.6406 122.523V123.091H64.9134V121.932H70.277C70.277 121.439 70.1785 121 69.9815 120.614C69.7884 120.227 69.5118 119.922 69.152 119.699C68.7959 119.475 68.3755 119.364 67.8906 119.364C67.3565 119.364 66.8944 119.496 66.5043 119.761C66.1179 120.023 65.8205 120.364 65.6122 120.784C65.4039 121.205 65.2997 121.655 65.2997 122.136V122.909C65.2997 123.568 65.4134 124.127 65.6406 124.585C65.8717 125.04 66.1918 125.386 66.6009 125.625C67.0099 125.86 67.4853 125.977 68.027 125.977C68.3793 125.977 68.6974 125.928 68.9815 125.83C69.2694 125.727 69.5175 125.576 69.7259 125.375C69.9342 125.17 70.0952 124.917 70.2088 124.614L71.5043 124.977C71.3679 125.417 71.1387 125.803 70.8168 126.136C70.4948 126.466 70.0971 126.723 69.6236 126.909C69.1501 127.091 68.6179 127.182 68.027 127.182ZM79.8622 120.227L78.6577 120.568C78.5819 120.367 78.4702 120.172 78.3224 119.983C78.1785 119.79 77.9815 119.631 77.7315 119.506C77.4815 119.381 77.1615 119.318 76.7713 119.318C76.2372 119.318 75.7921 119.441 75.4361 119.688C75.0838 119.93 74.9077 120.239 74.9077 120.614C74.9077 120.947 75.0289 121.21 75.2713 121.403C75.5137 121.597 75.8925 121.758 76.4077 121.886L77.7031 122.205C78.4834 122.394 79.0649 122.684 79.4474 123.074C79.83 123.46 80.0213 123.958 80.0213 124.568C80.0213 125.068 79.8774 125.515 79.5895 125.909C79.3054 126.303 78.9077 126.614 78.3963 126.841C77.8849 127.068 77.2902 127.182 76.6122 127.182C75.7221 127.182 74.9853 126.989 74.402 126.602C73.8187 126.216 73.4493 125.652 73.294 124.909L74.5668 124.591C74.688 125.061 74.9171 125.413 75.2543 125.648C75.5952 125.883 76.0402 126 76.5895 126C77.2145 126 77.7107 125.867 78.0781 125.602C78.4493 125.333 78.6349 125.011 78.6349 124.636C78.6349 124.333 78.5289 124.08 78.3168 123.875C78.1046 123.667 77.7789 123.511 77.3395 123.409L75.8849 123.068C75.0857 122.879 74.4986 122.585 74.1236 122.188C73.7524 121.786 73.5668 121.284 73.5668 120.682C73.5668 120.189 73.705 119.754 73.9815 119.375C74.2618 118.996 74.6425 118.699 75.1236 118.483C75.6084 118.267 76.1577 118.159 76.7713 118.159C77.6349 118.159 78.313 118.348 78.8054 118.727C79.3016 119.106 79.6539 119.606 79.8622 120.227ZM85.6989 127.182C84.858 127.182 84.1326 126.996 83.5227 126.625C82.9167 126.25 82.4489 125.727 82.1193 125.057C81.7936 124.383 81.6307 123.598 81.6307 122.705C81.6307 121.811 81.7936 121.023 82.1193 120.341C82.4489 119.655 82.9072 119.121 83.4943 118.739C84.0852 118.352 84.7746 118.159 85.5625 118.159C86.017 118.159 86.4659 118.235 86.9091 118.386C87.3523 118.538 87.7557 118.784 88.1193 119.125C88.483 119.462 88.7727 119.909 88.9886 120.466C89.2045 121.023 89.3125 121.708 89.3125 122.523V123.091H82.5852V121.932H87.9489C87.9489 121.439 87.8504 121 87.6534 120.614C87.4602 120.227 87.1837 119.922 86.8239 119.699C86.4678 119.475 86.0473 119.364 85.5625 119.364C85.0284 119.364 84.5663 119.496 84.1761 119.761C83.7898 120.023 83.4924 120.364 83.2841 120.784C83.0758 121.205 82.9716 121.655 82.9716 122.136V122.909C82.9716 123.568 83.0852 124.127 83.3125 124.585C83.5436 125.04 83.8636 125.386 84.2727 125.625C84.6818 125.86 85.1572 125.977 85.6989 125.977C86.0511 125.977 86.3693 125.928 86.6534 125.83C86.9413 125.727 87.1894 125.576 87.3977 125.375C87.6061 125.17 87.767 124.917 87.8807 124.614L89.1761 124.977C89.0398 125.417 88.8106 125.803 88.4886 126.136C88.1667 126.466 87.7689 126.723 87.2955 126.909C86.822 127.091 86.2898 127.182 85.6989 127.182ZM93.9205 127.205C93.3674 127.205 92.8655 127.1 92.4148 126.892C91.964 126.68 91.6061 126.375 91.3409 125.977C91.0758 125.576 90.9432 125.091 90.9432 124.523C90.9432 124.023 91.0417 123.617 91.2386 123.307C91.4356 122.992 91.6989 122.746 92.0284 122.568C92.358 122.39 92.7216 122.258 93.1193 122.17C93.5208 122.08 93.9242 122.008 94.3295 121.955C94.8598 121.886 95.2898 121.835 95.6193 121.801C95.9527 121.763 96.1951 121.701 96.3466 121.614C96.5019 121.527 96.5795 121.375 96.5795 121.159V121.114C96.5795 120.553 96.4261 120.117 96.1193 119.807C95.8163 119.496 95.3561 119.341 94.7386 119.341C94.0985 119.341 93.5966 119.481 93.233 119.761C92.8693 120.042 92.6136 120.341 92.4659 120.659L91.1932 120.205C91.4205 119.674 91.7235 119.261 92.1023 118.966C92.4848 118.667 92.9015 118.458 93.3523 118.341C93.8068 118.22 94.2538 118.159 94.6932 118.159C94.9735 118.159 95.2955 118.193 95.6591 118.261C96.0265 118.326 96.3807 118.46 96.7216 118.665C97.0663 118.869 97.3523 119.178 97.5795 119.591C97.8068 120.004 97.9205 120.557 97.9205 121.25V127H96.5795V125.818H96.5114C96.4205 126.008 96.2689 126.21 96.0568 126.426C95.8447 126.642 95.5625 126.826 95.2102 126.977C94.858 127.129 94.428 127.205 93.9205 127.205ZM94.125 126C94.6553 126 95.1023 125.896 95.4659 125.688C95.8333 125.479 96.1098 125.21 96.2955 124.881C96.4848 124.551 96.5795 124.205 96.5795 123.841V122.614C96.5227 122.682 96.3977 122.744 96.2045 122.801C96.0152 122.854 95.7955 122.902 95.5455 122.943C95.2992 122.981 95.0587 123.015 94.8239 123.045C94.5928 123.072 94.4053 123.095 94.2614 123.114C93.9129 123.159 93.5871 123.233 93.2841 123.335C92.9848 123.434 92.7424 123.583 92.5568 123.784C92.375 123.981 92.2841 124.25 92.2841 124.591C92.2841 125.057 92.4564 125.409 92.8011 125.648C93.1496 125.883 93.5909 126 94.125 126ZM100.368 127V118.273H101.663V119.591H101.754C101.913 119.159 102.201 118.809 102.618 118.54C103.035 118.271 103.504 118.136 104.027 118.136C104.125 118.136 104.249 118.138 104.396 118.142C104.544 118.146 104.656 118.152 104.732 118.159V119.523C104.686 119.511 104.582 119.494 104.419 119.472C104.26 119.445 104.091 119.432 103.913 119.432C103.489 119.432 103.11 119.521 102.777 119.699C102.447 119.873 102.186 120.116 101.993 120.426C101.804 120.733 101.709 121.083 101.709 121.477V127H100.368ZM109.601 127.182C108.783 127.182 108.078 126.989 107.487 126.602C106.896 126.216 106.442 125.684 106.124 125.006C105.805 124.328 105.646 123.553 105.646 122.682C105.646 121.795 105.809 121.013 106.135 120.335C106.464 119.653 106.923 119.121 107.51 118.739C108.101 118.352 108.79 118.159 109.578 118.159C110.192 118.159 110.745 118.273 111.237 118.5C111.73 118.727 112.133 119.045 112.447 119.455C112.762 119.864 112.957 120.341 113.033 120.886H111.692C111.589 120.489 111.362 120.136 111.01 119.83C110.661 119.519 110.192 119.364 109.601 119.364C109.078 119.364 108.62 119.5 108.226 119.773C107.836 120.042 107.531 120.422 107.311 120.915C107.095 121.403 106.987 121.977 106.987 122.636C106.987 123.311 107.093 123.898 107.305 124.398C107.521 124.898 107.824 125.286 108.214 125.562C108.608 125.839 109.071 125.977 109.601 125.977C109.949 125.977 110.266 125.917 110.55 125.795C110.834 125.674 111.074 125.5 111.271 125.273C111.468 125.045 111.608 124.773 111.692 124.455H113.033C112.957 124.97 112.769 125.434 112.47 125.847C112.175 126.256 111.783 126.581 111.294 126.824C110.809 127.062 110.245 127.182 109.601 127.182ZM116.334 121.75V127H114.993V115.364H116.334V119.636H116.447C116.652 119.186 116.959 118.828 117.368 118.562C117.781 118.294 118.33 118.159 119.016 118.159C119.61 118.159 120.131 118.278 120.578 118.517C121.025 118.752 121.372 119.114 121.618 119.602C121.868 120.087 121.993 120.705 121.993 121.455V127H120.652V121.545C120.652 120.852 120.472 120.316 120.112 119.938C119.756 119.555 119.262 119.364 118.629 119.364C118.19 119.364 117.796 119.456 117.447 119.642C117.103 119.828 116.83 120.098 116.629 120.455C116.432 120.811 116.334 121.242 116.334 121.75ZM131.514 127.205C130.961 127.205 130.459 127.1 130.009 126.892C129.558 126.68 129.2 126.375 128.935 125.977C128.67 125.576 128.537 125.091 128.537 124.523C128.537 124.023 128.635 123.617 128.832 123.307C129.029 122.992 129.293 122.746 129.622 122.568C129.952 122.39 130.315 122.258 130.713 122.17C131.115 122.08 131.518 122.008 131.923 121.955C132.454 121.886 132.884 121.835 133.213 121.801C133.546 121.763 133.789 121.701 133.94 121.614C134.096 121.527 134.173 121.375 134.173 121.159V121.114C134.173 120.553 134.02 120.117 133.713 119.807C133.41 119.496 132.95 119.341 132.332 119.341C131.692 119.341 131.19 119.481 130.827 119.761C130.463 120.042 130.207 120.341 130.06 120.659L128.787 120.205C129.014 119.674 129.317 119.261 129.696 118.966C130.079 118.667 130.495 118.458 130.946 118.341C131.401 118.22 131.848 118.159 132.287 118.159C132.567 118.159 132.889 118.193 133.253 118.261C133.62 118.326 133.974 118.46 134.315 118.665C134.66 118.869 134.946 119.178 135.173 119.591C135.401 120.004 135.514 120.557 135.514 121.25V127H134.173V125.818H134.105C134.014 126.008 133.863 126.21 133.651 126.426C133.438 126.642 133.156 126.826 132.804 126.977C132.452 127.129 132.022 127.205 131.514 127.205ZM131.719 126C132.249 126 132.696 125.896 133.06 125.688C133.427 125.479 133.704 125.21 133.889 124.881C134.079 124.551 134.173 124.205 134.173 123.841V122.614C134.116 122.682 133.991 122.744 133.798 122.801C133.609 122.854 133.389 122.902 133.139 122.943C132.893 122.981 132.652 123.015 132.418 123.045C132.187 123.072 131.999 123.095 131.855 123.114C131.507 123.159 131.181 123.233 130.878 123.335C130.579 123.434 130.336 123.583 130.151 123.784C129.969 123.981 129.878 124.25 129.878 124.591C129.878 125.057 130.05 125.409 130.395 125.648C130.743 125.883 131.185 126 131.719 126ZM138.143 127V115.364H139.484V119.659H139.598C139.696 119.508 139.833 119.314 140.007 119.08C140.185 118.841 140.439 118.629 140.768 118.443C141.102 118.254 141.553 118.159 142.121 118.159C142.856 118.159 143.503 118.343 144.064 118.71C144.625 119.078 145.062 119.598 145.376 120.273C145.691 120.947 145.848 121.742 145.848 122.659C145.848 123.583 145.691 124.384 145.376 125.062C145.062 125.737 144.626 126.259 144.07 126.631C143.513 126.998 142.871 127.182 142.143 127.182C141.583 127.182 141.134 127.089 140.797 126.903C140.46 126.714 140.2 126.5 140.018 126.261C139.837 126.019 139.696 125.818 139.598 125.659H139.439V127H138.143ZM139.462 122.636C139.462 123.295 139.558 123.877 139.751 124.381C139.945 124.881 140.227 125.273 140.598 125.557C140.969 125.837 141.424 125.977 141.962 125.977C142.522 125.977 142.99 125.83 143.365 125.534C143.744 125.235 144.028 124.833 144.217 124.33C144.411 123.822 144.507 123.258 144.507 122.636C144.507 122.023 144.412 121.47 144.223 120.977C144.037 120.481 143.755 120.089 143.376 119.801C143.001 119.509 142.53 119.364 141.962 119.364C141.416 119.364 140.958 119.502 140.587 119.778C140.215 120.051 139.935 120.434 139.746 120.926C139.556 121.415 139.462 121.985 139.462 122.636ZM151.445 127.182C150.657 127.182 149.965 126.994 149.371 126.619C148.78 126.244 148.318 125.72 147.984 125.045C147.655 124.371 147.49 123.583 147.49 122.682C147.49 121.773 147.655 120.979 147.984 120.301C148.318 119.623 148.78 119.097 149.371 118.722C149.965 118.347 150.657 118.159 151.445 118.159C152.232 118.159 152.922 118.347 153.513 118.722C154.107 119.097 154.57 119.623 154.899 120.301C155.232 120.979 155.399 121.773 155.399 122.682C155.399 123.583 155.232 124.371 154.899 125.045C154.57 125.72 154.107 126.244 153.513 126.619C152.922 126.994 152.232 127.182 151.445 127.182ZM151.445 125.977C152.043 125.977 152.536 125.824 152.922 125.517C153.308 125.21 153.594 124.807 153.78 124.307C153.965 123.807 154.058 123.265 154.058 122.682C154.058 122.098 153.965 121.555 153.78 121.051C153.594 120.547 153.308 120.14 152.922 119.83C152.536 119.519 152.043 119.364 151.445 119.364C150.846 119.364 150.354 119.519 149.967 119.83C149.581 120.14 149.295 120.547 149.109 121.051C148.924 121.555 148.831 122.098 148.831 122.682C148.831 123.265 148.924 123.807 149.109 124.307C149.295 124.807 149.581 125.21 149.967 125.517C150.354 125.824 150.846 125.977 151.445 125.977ZM162.946 123.432V118.273H164.287V127H162.946V125.523H162.855C162.651 125.966 162.332 126.343 161.901 126.653C161.469 126.96 160.923 127.114 160.264 127.114C159.719 127.114 159.234 126.994 158.81 126.756C158.385 126.513 158.052 126.15 157.81 125.665C157.567 125.176 157.446 124.561 157.446 123.818V118.273H158.787V123.727C158.787 124.364 158.965 124.871 159.321 125.25C159.681 125.629 160.139 125.818 160.696 125.818C161.029 125.818 161.368 125.733 161.713 125.562C162.062 125.392 162.353 125.131 162.588 124.778C162.827 124.426 162.946 123.977 162.946 123.432ZM170.538 118.273V119.409H166.016V118.273H170.538ZM167.334 116.182H168.675V124.5C168.675 124.879 168.73 125.163 168.839 125.352C168.953 125.538 169.097 125.663 169.271 125.727C169.449 125.788 169.637 125.818 169.834 125.818C169.982 125.818 170.103 125.811 170.197 125.795C170.292 125.777 170.368 125.761 170.425 125.75L170.697 126.955C170.607 126.989 170.48 127.023 170.317 127.057C170.154 127.095 169.947 127.114 169.697 127.114C169.319 127.114 168.947 127.032 168.584 126.869C168.224 126.706 167.925 126.458 167.686 126.125C167.451 125.792 167.334 125.371 167.334 124.864V116.182ZM177.055 130.273V118.273H178.351V119.659H178.51C178.608 119.508 178.745 119.314 178.919 119.08C179.097 118.841 179.351 118.629 179.68 118.443C180.014 118.254 180.464 118.159 181.033 118.159C181.768 118.159 182.415 118.343 182.976 118.71C183.536 119.078 183.974 119.598 184.288 120.273C184.603 120.947 184.76 121.742 184.76 122.659C184.76 123.583 184.603 124.384 184.288 125.062C183.974 125.737 183.538 126.259 182.982 126.631C182.425 126.998 181.783 127.182 181.055 127.182C180.495 127.182 180.046 127.089 179.709 126.903C179.372 126.714 179.112 126.5 178.93 126.261C178.749 126.019 178.608 125.818 178.51 125.659H178.396V130.273H177.055ZM178.374 122.636C178.374 123.295 178.47 123.877 178.663 124.381C178.857 124.881 179.139 125.273 179.51 125.557C179.881 125.837 180.336 125.977 180.874 125.977C181.434 125.977 181.902 125.83 182.277 125.534C182.656 125.235 182.94 124.833 183.129 124.33C183.322 123.822 183.419 123.258 183.419 122.636C183.419 122.023 183.324 121.47 183.135 120.977C182.949 120.481 182.667 120.089 182.288 119.801C181.913 119.509 181.442 119.364 180.874 119.364C180.328 119.364 179.87 119.502 179.499 119.778C179.127 120.051 178.847 120.434 178.658 120.926C178.468 121.415 178.374 121.985 178.374 122.636ZM186.805 127V118.273H188.101V119.591H188.192C188.351 119.159 188.639 118.809 189.055 118.54C189.472 118.271 189.942 118.136 190.464 118.136C190.563 118.136 190.686 118.138 190.834 118.142C190.982 118.146 191.093 118.152 191.169 118.159V119.523C191.124 119.511 191.019 119.494 190.857 119.472C190.697 119.445 190.529 119.432 190.351 119.432C189.927 119.432 189.548 119.521 189.214 119.699C188.885 119.873 188.624 120.116 188.43 120.426C188.241 120.733 188.146 121.083 188.146 121.477V127H186.805ZM196.038 127.182C195.25 127.182 194.559 126.994 193.964 126.619C193.374 126.244 192.911 125.72 192.578 125.045C192.249 124.371 192.084 123.583 192.084 122.682C192.084 121.773 192.249 120.979 192.578 120.301C192.911 119.623 193.374 119.097 193.964 118.722C194.559 118.347 195.25 118.159 196.038 118.159C196.826 118.159 197.516 118.347 198.107 118.722C198.701 119.097 199.163 119.623 199.493 120.301C199.826 120.979 199.993 121.773 199.993 122.682C199.993 123.583 199.826 124.371 199.493 125.045C199.163 125.72 198.701 126.244 198.107 126.619C197.516 126.994 196.826 127.182 196.038 127.182ZM196.038 125.977C196.637 125.977 197.129 125.824 197.516 125.517C197.902 125.21 198.188 124.807 198.374 124.307C198.559 123.807 198.652 123.265 198.652 122.682C198.652 122.098 198.559 121.555 198.374 121.051C198.188 120.547 197.902 120.14 197.516 119.83C197.129 119.519 196.637 119.364 196.038 119.364C195.44 119.364 194.947 119.519 194.561 119.83C194.175 120.14 193.889 120.547 193.703 121.051C193.518 121.555 193.425 122.098 193.425 122.682C193.425 123.265 193.518 123.807 193.703 124.307C193.889 124.807 194.175 125.21 194.561 125.517C194.947 125.824 195.44 125.977 196.038 125.977ZM208.222 120.227L207.017 120.568C206.941 120.367 206.83 120.172 206.682 119.983C206.538 119.79 206.341 119.631 206.091 119.506C205.841 119.381 205.521 119.318 205.131 119.318C204.597 119.318 204.152 119.441 203.795 119.688C203.443 119.93 203.267 120.239 203.267 120.614C203.267 120.947 203.388 121.21 203.631 121.403C203.873 121.597 204.252 121.758 204.767 121.886L206.062 122.205C206.843 122.394 207.424 122.684 207.807 123.074C208.189 123.46 208.381 123.958 208.381 124.568C208.381 125.068 208.237 125.515 207.949 125.909C207.665 126.303 207.267 126.614 206.756 126.841C206.244 127.068 205.65 127.182 204.972 127.182C204.081 127.182 203.345 126.989 202.761 126.602C202.178 126.216 201.809 125.652 201.653 124.909L202.926 124.591C203.047 125.061 203.277 125.413 203.614 125.648C203.955 125.883 204.4 126 204.949 126C205.574 126 206.07 125.867 206.438 125.602C206.809 125.333 206.994 125.011 206.994 124.636C206.994 124.333 206.888 124.08 206.676 123.875C206.464 123.667 206.138 123.511 205.699 123.409L204.244 123.068C203.445 122.879 202.858 122.585 202.483 122.188C202.112 121.786 201.926 121.284 201.926 120.682C201.926 120.189 202.064 119.754 202.341 119.375C202.621 118.996 203.002 118.699 203.483 118.483C203.968 118.267 204.517 118.159 205.131 118.159C205.994 118.159 206.672 118.348 207.165 118.727C207.661 119.106 208.013 119.606 208.222 120.227ZM210.399 130.273V118.273H211.695V119.659H211.854C211.952 119.508 212.089 119.314 212.263 119.08C212.441 118.841 212.695 118.629 213.024 118.443C213.357 118.254 213.808 118.159 214.376 118.159C215.111 118.159 215.759 118.343 216.32 118.71C216.88 119.078 217.318 119.598 217.632 120.273C217.946 120.947 218.104 121.742 218.104 122.659C218.104 123.583 217.946 124.384 217.632 125.062C217.318 125.737 216.882 126.259 216.325 126.631C215.768 126.998 215.126 127.182 214.399 127.182C213.839 127.182 213.39 127.089 213.053 126.903C212.715 126.714 212.456 126.5 212.274 126.261C212.092 126.019 211.952 125.818 211.854 125.659H211.74V130.273H210.399ZM211.717 122.636C211.717 123.295 211.814 123.877 212.007 124.381C212.2 124.881 212.482 125.273 212.854 125.557C213.225 125.837 213.679 125.977 214.217 125.977C214.778 125.977 215.246 125.83 215.621 125.534C216 125.235 216.284 124.833 216.473 124.33C216.666 123.822 216.763 123.258 216.763 122.636C216.763 122.023 216.668 121.47 216.479 120.977C216.293 120.481 216.011 120.089 215.632 119.801C215.257 119.509 214.786 119.364 214.217 119.364C213.672 119.364 213.214 119.502 212.842 119.778C212.471 120.051 212.191 120.434 212.001 120.926C211.812 121.415 211.717 121.985 211.717 122.636ZM223.808 127.182C222.967 127.182 222.242 126.996 221.632 126.625C221.026 126.25 220.558 125.727 220.229 125.057C219.903 124.383 219.74 123.598 219.74 122.705C219.74 121.811 219.903 121.023 220.229 120.341C220.558 119.655 221.017 119.121 221.604 118.739C222.195 118.352 222.884 118.159 223.672 118.159C224.126 118.159 224.575 118.235 225.018 118.386C225.462 118.538 225.865 118.784 226.229 119.125C226.592 119.462 226.882 119.909 227.098 120.466C227.314 121.023 227.422 121.708 227.422 122.523V123.091H220.695V121.932H226.058C226.058 121.439 225.96 121 225.763 120.614C225.57 120.227 225.293 119.922 224.933 119.699C224.577 119.475 224.157 119.364 223.672 119.364C223.138 119.364 222.676 119.496 222.286 119.761C221.899 120.023 221.602 120.364 221.393 120.784C221.185 121.205 221.081 121.655 221.081 122.136V122.909C221.081 123.568 221.195 124.127 221.422 124.585C221.653 125.04 221.973 125.386 222.382 125.625C222.791 125.86 223.267 125.977 223.808 125.977C224.161 125.977 224.479 125.928 224.763 125.83C225.051 125.727 225.299 125.576 225.507 125.375C225.715 125.17 225.876 124.917 225.99 124.614L227.286 124.977C227.149 125.417 226.92 125.803 226.598 126.136C226.276 126.466 225.878 126.723 225.405 126.909C224.931 127.091 224.399 127.182 223.808 127.182ZM233.007 127.182C232.189 127.182 231.484 126.989 230.893 126.602C230.303 126.216 229.848 125.684 229.53 125.006C229.212 124.328 229.053 123.553 229.053 122.682C229.053 121.795 229.215 121.013 229.541 120.335C229.871 119.653 230.329 119.121 230.916 118.739C231.507 118.352 232.196 118.159 232.984 118.159C233.598 118.159 234.151 118.273 234.643 118.5C235.136 118.727 235.539 119.045 235.854 119.455C236.168 119.864 236.363 120.341 236.439 120.886H235.098C234.996 120.489 234.768 120.136 234.416 119.83C234.068 119.519 233.598 119.364 233.007 119.364C232.484 119.364 232.026 119.5 231.632 119.773C231.242 120.042 230.937 120.422 230.717 120.915C230.501 121.403 230.393 121.977 230.393 122.636C230.393 123.311 230.5 123.898 230.712 124.398C230.928 124.898 231.231 125.286 231.621 125.562C232.015 125.839 232.477 125.977 233.007 125.977C233.356 125.977 233.672 125.917 233.956 125.795C234.24 125.674 234.481 125.5 234.678 125.273C234.875 125.045 235.015 124.773 235.098 124.455H236.439C236.363 124.97 236.176 125.434 235.876 125.847C235.581 126.256 235.189 126.581 234.7 126.824C234.215 127.062 233.651 127.182 233.007 127.182ZM242.195 118.273V119.409H237.672V118.273H242.195ZM238.99 116.182H240.331V124.5C240.331 124.879 240.386 125.163 240.496 125.352C240.609 125.538 240.753 125.663 240.928 125.727C241.106 125.788 241.293 125.818 241.49 125.818C241.638 125.818 241.759 125.811 241.854 125.795C241.948 125.777 242.024 125.761 242.081 125.75L242.354 126.955C242.263 126.989 242.136 127.023 241.973 127.057C241.81 127.095 241.604 127.114 241.354 127.114C240.975 127.114 240.604 127.032 240.24 126.869C239.88 126.706 239.581 126.458 239.342 126.125C239.107 125.792 238.99 125.371 238.99 124.864V116.182ZM246.212 125.409L246.121 126.023C246.056 126.455 245.958 126.917 245.825 127.409C245.696 127.902 245.562 128.366 245.422 128.801C245.282 129.237 245.166 129.583 245.075 129.841H244.053C244.102 129.598 244.166 129.278 244.246 128.881C244.325 128.483 244.405 128.038 244.484 127.545C244.568 127.057 244.636 126.557 244.689 126.045L244.757 125.409H246.212ZM253.378 127V115.364H254.719V119.659H254.832C254.931 119.508 255.067 119.314 255.241 119.08C255.42 118.841 255.673 118.629 256.003 118.443C256.336 118.254 256.787 118.159 257.355 118.159C258.09 118.159 258.738 118.343 259.298 118.71C259.859 119.078 260.296 119.598 260.611 120.273C260.925 120.947 261.082 121.742 261.082 122.659C261.082 123.583 260.925 124.384 260.611 125.062C260.296 125.737 259.861 126.259 259.304 126.631C258.747 126.998 258.105 127.182 257.378 127.182C256.817 127.182 256.368 127.089 256.031 126.903C255.694 126.714 255.435 126.5 255.253 126.261C255.071 126.019 254.931 125.818 254.832 125.659H254.673V127H253.378ZM254.696 122.636C254.696 123.295 254.793 123.877 254.986 124.381C255.179 124.881 255.461 125.273 255.832 125.557C256.204 125.837 256.658 125.977 257.196 125.977C257.757 125.977 258.224 125.83 258.599 125.534C258.978 125.235 259.262 124.833 259.452 124.33C259.645 123.822 259.741 123.258 259.741 122.636C259.741 122.023 259.647 121.47 259.457 120.977C259.272 120.481 258.99 120.089 258.611 119.801C258.236 119.509 257.764 119.364 257.196 119.364C256.651 119.364 256.192 119.502 255.821 119.778C255.45 120.051 255.17 120.434 254.98 120.926C254.791 121.415 254.696 121.985 254.696 122.636ZM264.474 115.364V127H263.134V115.364H264.474ZM270.476 127.182C269.688 127.182 268.997 126.994 268.402 126.619C267.811 126.244 267.349 125.72 267.016 125.045C266.686 124.371 266.521 123.583 266.521 122.682C266.521 121.773 266.686 120.979 267.016 120.301C267.349 119.623 267.811 119.097 268.402 118.722C268.997 118.347 269.688 118.159 270.476 118.159C271.264 118.159 271.953 118.347 272.544 118.722C273.139 119.097 273.601 119.623 273.93 120.301C274.264 120.979 274.43 121.773 274.43 122.682C274.43 123.583 274.264 124.371 273.93 125.045C273.601 125.72 273.139 126.244 272.544 126.619C271.953 126.994 271.264 127.182 270.476 127.182ZM270.476 125.977C271.074 125.977 271.567 125.824 271.953 125.517C272.339 125.21 272.625 124.807 272.811 124.307C272.997 123.807 273.089 123.265 273.089 122.682C273.089 122.098 272.997 121.555 272.811 121.051C272.625 120.547 272.339 120.14 271.953 119.83C271.567 119.519 271.074 119.364 270.476 119.364C269.877 119.364 269.385 119.519 268.999 119.83C268.612 120.14 268.326 120.547 268.141 121.051C267.955 121.555 267.862 122.098 267.862 122.682C267.862 123.265 267.955 123.807 268.141 124.307C268.326 124.807 268.612 125.21 268.999 125.517C269.385 125.824 269.877 125.977 270.476 125.977ZM280 130.455C279.352 130.455 278.795 130.371 278.33 130.205C277.864 130.042 277.475 129.826 277.165 129.557C276.858 129.292 276.614 129.008 276.432 128.705L277.5 127.955C277.621 128.114 277.775 128.295 277.96 128.5C278.146 128.708 278.4 128.888 278.722 129.04C279.047 129.195 279.473 129.273 280 129.273C280.705 129.273 281.286 129.102 281.744 128.761C282.203 128.42 282.432 127.886 282.432 127.159V125.386H282.318C282.22 125.545 282.08 125.742 281.898 125.977C281.72 126.208 281.462 126.415 281.125 126.597C280.792 126.775 280.341 126.864 279.773 126.864C279.068 126.864 278.436 126.697 277.875 126.364C277.318 126.03 276.877 125.545 276.551 124.909C276.229 124.273 276.068 123.5 276.068 122.591C276.068 121.697 276.225 120.919 276.54 120.256C276.854 119.589 277.292 119.074 277.852 118.71C278.413 118.343 279.061 118.159 279.795 118.159C280.364 118.159 280.814 118.254 281.148 118.443C281.485 118.629 281.742 118.841 281.92 119.08C282.102 119.314 282.242 119.508 282.341 119.659H282.477V118.273H283.773V127.25C283.773 128 283.602 128.61 283.261 129.08C282.924 129.553 282.47 129.9 281.898 130.119C281.33 130.343 280.697 130.455 280 130.455ZM279.955 125.659C280.492 125.659 280.947 125.536 281.318 125.29C281.689 125.044 281.972 124.689 282.165 124.227C282.358 123.765 282.455 123.212 282.455 122.568C282.455 121.939 282.36 121.384 282.17 120.903C281.981 120.422 281.701 120.045 281.33 119.773C280.958 119.5 280.5 119.364 279.955 119.364C279.386 119.364 278.913 119.508 278.534 119.795C278.159 120.083 277.877 120.47 277.688 120.955C277.502 121.439 277.409 121.977 277.409 122.568C277.409 123.174 277.504 123.71 277.693 124.176C277.886 124.638 278.17 125.002 278.545 125.267C278.924 125.528 279.394 125.659 279.955 125.659ZM292.409 120.227L291.205 120.568C291.129 120.367 291.017 120.172 290.869 119.983C290.725 119.79 290.528 119.631 290.278 119.506C290.028 119.381 289.708 119.318 289.318 119.318C288.784 119.318 288.339 119.441 287.983 119.688C287.631 119.93 287.455 120.239 287.455 120.614C287.455 120.947 287.576 121.21 287.818 121.403C288.061 121.597 288.439 121.758 288.955 121.886L290.25 122.205C291.03 122.394 291.612 122.684 291.994 123.074C292.377 123.46 292.568 123.958 292.568 124.568C292.568 125.068 292.424 125.515 292.136 125.909C291.852 126.303 291.455 126.614 290.943 126.841C290.432 127.068 289.837 127.182 289.159 127.182C288.269 127.182 287.532 126.989 286.949 126.602C286.366 126.216 285.996 125.652 285.841 124.909L287.114 124.591C287.235 125.061 287.464 125.413 287.801 125.648C288.142 125.883 288.587 126 289.136 126C289.761 126 290.258 125.867 290.625 125.602C290.996 125.333 291.182 125.011 291.182 124.636C291.182 124.333 291.076 124.08 290.864 123.875C290.652 123.667 290.326 123.511 289.886 123.409L288.432 123.068C287.633 122.879 287.045 122.585 286.67 122.188C286.299 121.786 286.114 121.284 286.114 120.682C286.114 120.189 286.252 119.754 286.528 119.375C286.809 118.996 287.189 118.699 287.67 118.483C288.155 118.267 288.705 118.159 289.318 118.159C290.182 118.159 290.86 118.348 291.352 118.727C291.848 119.106 292.201 119.606 292.409 120.227ZM296.587 125.409L296.496 126.023C296.431 126.455 296.333 126.917 296.2 127.409C296.071 127.902 295.937 128.366 295.797 128.801C295.657 129.237 295.541 129.583 295.45 129.841H294.428C294.477 129.598 294.541 129.278 294.621 128.881C294.7 128.483 294.78 128.038 294.859 127.545C294.943 127.057 295.011 126.557 295.064 126.045L295.132 125.409H296.587ZM303.753 127V115.364H305.162V125.75H310.571V127H303.753ZM312.571 127V118.273H313.912V127H312.571ZM313.253 116.818C312.991 116.818 312.766 116.729 312.577 116.551C312.391 116.373 312.298 116.159 312.298 115.909C312.298 115.659 312.391 115.445 312.577 115.267C312.766 115.089 312.991 115 313.253 115C313.514 115 313.738 115.089 313.923 115.267C314.113 115.445 314.207 115.659 314.207 115.909C314.207 116.159 314.113 116.373 313.923 116.551C313.738 116.729 313.514 116.818 313.253 116.818ZM317.709 121.75V127H316.368V118.273H317.663V119.636H317.777C317.982 119.193 318.292 118.837 318.709 118.568C319.125 118.295 319.663 118.159 320.322 118.159C320.913 118.159 321.43 118.28 321.874 118.523C322.317 118.761 322.661 119.125 322.908 119.614C323.154 120.098 323.277 120.712 323.277 121.455V127H321.936V121.545C321.936 120.86 321.758 120.326 321.402 119.943C321.046 119.557 320.557 119.364 319.936 119.364C319.508 119.364 319.125 119.456 318.788 119.642C318.455 119.828 318.192 120.098 317.999 120.455C317.805 120.811 317.709 121.242 317.709 121.75ZM326.977 123.818L326.955 122.159H327.227L331.045 118.273H332.705L328.636 122.386H328.523L326.977 123.818ZM325.727 127V115.364H327.068V127H325.727ZM331.273 127L327.864 122.682L328.818 121.75L332.977 127H331.273ZM337.73 127.182C336.889 127.182 336.164 126.996 335.554 126.625C334.948 126.25 334.48 125.727 334.151 125.057C333.825 124.383 333.662 123.598 333.662 122.705C333.662 121.811 333.825 121.023 334.151 120.341C334.48 119.655 334.938 119.121 335.526 118.739C336.116 118.352 336.806 118.159 337.594 118.159C338.048 118.159 338.497 118.235 338.94 118.386C339.384 118.538 339.787 118.784 340.151 119.125C340.514 119.462 340.804 119.909 341.02 120.466C341.236 121.023 341.344 121.708 341.344 122.523V123.091H334.616V121.932H339.98C339.98 121.439 339.882 121 339.685 120.614C339.491 120.227 339.215 119.922 338.855 119.699C338.499 119.475 338.079 119.364 337.594 119.364C337.06 119.364 336.598 119.496 336.207 119.761C335.821 120.023 335.524 120.364 335.315 120.784C335.107 121.205 335.003 121.655 335.003 122.136V122.909C335.003 123.568 335.116 124.127 335.344 124.585C335.575 125.04 335.895 125.386 336.304 125.625C336.713 125.86 337.188 125.977 337.73 125.977C338.082 125.977 338.401 125.928 338.685 125.83C338.973 125.727 339.221 125.576 339.429 125.375C339.637 125.17 339.798 124.917 339.912 124.614L341.207 124.977C341.071 125.417 340.842 125.803 340.52 126.136C340.198 126.466 339.8 126.723 339.327 126.909C338.853 127.091 338.321 127.182 337.73 127.182ZM346.679 127.182C345.952 127.182 345.31 126.998 344.753 126.631C344.196 126.259 343.76 125.737 343.446 125.062C343.132 124.384 342.974 123.583 342.974 122.659C342.974 121.742 343.132 120.947 343.446 120.273C343.76 119.598 344.198 119.078 344.759 118.71C345.319 118.343 345.967 118.159 346.702 118.159C347.27 118.159 347.719 118.254 348.048 118.443C348.382 118.629 348.635 118.841 348.81 119.08C348.988 119.314 349.126 119.508 349.224 119.659H349.338V115.364H350.679V127H349.384V125.659H349.224C349.126 125.818 348.986 126.019 348.804 126.261C348.622 126.5 348.363 126.714 348.026 126.903C347.688 127.089 347.24 127.182 346.679 127.182ZM346.861 125.977C347.399 125.977 347.853 125.837 348.224 125.557C348.596 125.273 348.878 124.881 349.071 124.381C349.264 123.877 349.361 123.295 349.361 122.636C349.361 121.985 349.266 121.415 349.077 120.926C348.887 120.434 348.607 120.051 348.236 119.778C347.865 119.502 347.406 119.364 346.861 119.364C346.293 119.364 345.819 119.509 345.44 119.801C345.065 120.089 344.783 120.481 344.594 120.977C344.408 121.47 344.315 122.023 344.315 122.636C344.315 123.258 344.41 123.822 344.599 124.33C344.793 124.833 345.077 125.235 345.452 125.534C345.83 125.83 346.3 125.977 346.861 125.977ZM354.912 115.364V127H353.503V115.364H354.912ZM358.896 121.75V127H357.555V118.273H358.851V119.636H358.964C359.169 119.193 359.48 118.837 359.896 118.568C360.313 118.295 360.851 118.159 361.51 118.159C362.101 118.159 362.618 118.28 363.061 118.523C363.504 118.761 363.849 119.125 364.095 119.614C364.341 120.098 364.464 120.712 364.464 121.455V127H363.124V121.545C363.124 120.86 362.946 120.326 362.589 119.943C362.233 119.557 361.745 119.364 361.124 119.364C360.696 119.364 360.313 119.456 359.976 119.642C359.643 119.828 359.379 120.098 359.186 120.455C358.993 120.811 358.896 121.242 358.896 121.75ZM373.983 127.205C373.43 127.205 372.928 127.1 372.477 126.892C372.027 126.68 371.669 126.375 371.403 125.977C371.138 125.576 371.006 125.091 371.006 124.523C371.006 124.023 371.104 123.617 371.301 123.307C371.498 122.992 371.761 122.746 372.091 122.568C372.42 122.39 372.784 122.258 373.182 122.17C373.583 122.08 373.987 122.008 374.392 121.955C374.922 121.886 375.352 121.835 375.682 121.801C376.015 121.763 376.258 121.701 376.409 121.614C376.564 121.527 376.642 121.375 376.642 121.159V121.114C376.642 120.553 376.489 120.117 376.182 119.807C375.879 119.496 375.419 119.341 374.801 119.341C374.161 119.341 373.659 119.481 373.295 119.761C372.932 120.042 372.676 120.341 372.528 120.659L371.256 120.205C371.483 119.674 371.786 119.261 372.165 118.966C372.547 118.667 372.964 118.458 373.415 118.341C373.869 118.22 374.316 118.159 374.756 118.159C375.036 118.159 375.358 118.193 375.722 118.261C376.089 118.326 376.443 118.46 376.784 118.665C377.129 118.869 377.415 119.178 377.642 119.591C377.869 120.004 377.983 120.557 377.983 121.25V127H376.642V125.818H376.574C376.483 126.008 376.331 126.21 376.119 126.426C375.907 126.642 375.625 126.826 375.273 126.977C374.92 127.129 374.491 127.205 373.983 127.205ZM374.188 126C374.718 126 375.165 125.896 375.528 125.688C375.896 125.479 376.172 125.21 376.358 124.881C376.547 124.551 376.642 124.205 376.642 123.841V122.614C376.585 122.682 376.46 122.744 376.267 122.801C376.078 122.854 375.858 122.902 375.608 122.943C375.362 122.981 375.121 123.015 374.886 123.045C374.655 123.072 374.468 123.095 374.324 123.114C373.975 123.159 373.65 123.233 373.347 123.335C373.047 123.434 372.805 123.583 372.619 123.784C372.438 123.981 372.347 124.25 372.347 124.591C372.347 125.057 372.519 125.409 372.864 125.648C373.212 125.883 373.653 126 374.188 126ZM381.771 121.75V127H380.43V118.273H381.726V119.636H381.839C382.044 119.193 382.355 118.837 382.771 118.568C383.188 118.295 383.726 118.159 384.385 118.159C384.976 118.159 385.493 118.28 385.936 118.523C386.379 118.761 386.724 119.125 386.97 119.614C387.216 120.098 387.339 120.712 387.339 121.455V127H385.999V121.545C385.999 120.86 385.821 120.326 385.464 119.943C385.108 119.557 384.62 119.364 383.999 119.364C383.571 119.364 383.188 119.456 382.851 119.642C382.518 119.828 382.254 120.098 382.061 120.455C381.868 120.811 381.771 121.242 381.771 121.75ZM393.085 127.182C392.358 127.182 391.716 126.998 391.159 126.631C390.602 126.259 390.167 125.737 389.852 125.062C389.538 124.384 389.381 123.583 389.381 122.659C389.381 121.742 389.538 120.947 389.852 120.273C390.167 119.598 390.604 119.078 391.165 118.71C391.725 118.343 392.373 118.159 393.108 118.159C393.676 118.159 394.125 118.254 394.455 118.443C394.788 118.629 395.042 118.841 395.216 119.08C395.394 119.314 395.532 119.508 395.631 119.659H395.744V115.364H397.085V127H395.79V125.659H395.631C395.532 125.818 395.392 126.019 395.21 126.261C395.028 126.5 394.769 126.714 394.432 126.903C394.095 127.089 393.646 127.182 393.085 127.182ZM393.267 125.977C393.805 125.977 394.259 125.837 394.631 125.557C395.002 125.273 395.284 124.881 395.477 124.381C395.67 123.877 395.767 123.295 395.767 122.636C395.767 121.985 395.672 121.415 395.483 120.926C395.294 120.434 395.013 120.051 394.642 119.778C394.271 119.502 393.813 119.364 393.267 119.364C392.699 119.364 392.225 119.509 391.847 119.801C391.472 120.089 391.189 120.481 391 120.977C390.814 121.47 390.722 122.023 390.722 122.636C390.722 123.258 390.816 123.822 391.006 124.33C391.199 124.833 391.483 125.235 391.858 125.534C392.237 125.83 392.706 125.977 393.267 125.977ZM57.7727 146.182C56.9545 146.182 56.25 145.989 55.6591 145.602C55.0682 145.216 54.6136 144.684 54.2955 144.006C53.9773 143.328 53.8182 142.553 53.8182 141.682C53.8182 140.795 53.9811 140.013 54.3068 139.335C54.6364 138.653 55.0947 138.121 55.6818 137.739C56.2727 137.352 56.9621 137.159 57.75 137.159C58.3636 137.159 58.9167 137.273 59.4091 137.5C59.9015 137.727 60.3049 138.045 60.6193 138.455C60.9337 138.864 61.1288 139.341 61.2045 139.886H59.8636C59.7614 139.489 59.5341 139.136 59.1818 138.83C58.8333 138.519 58.3636 138.364 57.7727 138.364C57.25 138.364 56.7917 138.5 56.3977 138.773C56.0076 139.042 55.7027 139.422 55.483 139.915C55.267 140.403 55.1591 140.977 55.1591 141.636C55.1591 142.311 55.2652 142.898 55.4773 143.398C55.6932 143.898 55.9962 144.286 56.3864 144.562C56.7803 144.839 57.2424 144.977 57.7727 144.977C58.1212 144.977 58.4375 144.917 58.7216 144.795C59.0057 144.674 59.2462 144.5 59.4432 144.273C59.6402 144.045 59.7803 143.773 59.8636 143.455H61.2045C61.1288 143.97 60.9413 144.434 60.642 144.847C60.3466 145.256 59.9545 145.581 59.4659 145.824C58.9811 146.062 58.4167 146.182 57.7727 146.182ZM66.7102 146.182C65.9223 146.182 65.2311 145.994 64.6364 145.619C64.0455 145.244 63.5833 144.72 63.25 144.045C62.9205 143.371 62.7557 142.583 62.7557 141.682C62.7557 140.773 62.9205 139.979 63.25 139.301C63.5833 138.623 64.0455 138.097 64.6364 137.722C65.2311 137.347 65.9223 137.159 66.7102 137.159C67.4981 137.159 68.1875 137.347 68.7784 137.722C69.3731 138.097 69.8352 138.623 70.1648 139.301C70.4981 139.979 70.6648 140.773 70.6648 141.682C70.6648 142.583 70.4981 143.371 70.1648 144.045C69.8352 144.72 69.3731 145.244 68.7784 145.619C68.1875 145.994 67.4981 146.182 66.7102 146.182ZM66.7102 144.977C67.3087 144.977 67.8011 144.824 68.1875 144.517C68.5739 144.21 68.8598 143.807 69.0455 143.307C69.2311 142.807 69.3239 142.265 69.3239 141.682C69.3239 141.098 69.2311 140.555 69.0455 140.051C68.8598 139.547 68.5739 139.14 68.1875 138.83C67.8011 138.519 67.3087 138.364 66.7102 138.364C66.1117 138.364 65.6193 138.519 65.233 138.83C64.8466 139.14 64.5606 139.547 64.375 140.051C64.1894 140.555 64.0966 141.098 64.0966 141.682C64.0966 142.265 64.1894 142.807 64.375 143.307C64.5606 143.807 64.8466 144.21 65.233 144.517C65.6193 144.824 66.1117 144.977 66.7102 144.977ZM72.7116 146V137.273H74.0071V138.636H74.1207C74.3026 138.17 74.5961 137.809 75.0014 137.551C75.4067 137.29 75.8935 137.159 76.4616 137.159C77.0374 137.159 77.5166 137.29 77.8991 137.551C78.2855 137.809 78.5866 138.17 78.8026 138.636H78.8935C79.117 138.186 79.4522 137.828 79.8991 137.562C80.3461 137.294 80.8821 137.159 81.5071 137.159C82.2874 137.159 82.9257 137.403 83.4219 137.892C83.9181 138.377 84.1662 139.133 84.1662 140.159V146H82.8253V140.159C82.8253 139.515 82.6491 139.055 82.2969 138.778C81.9446 138.502 81.5298 138.364 81.0526 138.364C80.4389 138.364 79.9635 138.549 79.6264 138.92C79.2893 139.288 79.1207 139.754 79.1207 140.318V146H77.7571V140.023C77.7571 139.527 77.5961 139.127 77.2741 138.824C76.9522 138.517 76.5374 138.364 76.0298 138.364C75.6813 138.364 75.3556 138.456 75.0526 138.642C74.7533 138.828 74.5109 139.085 74.3253 139.415C74.1435 139.741 74.0526 140.117 74.0526 140.545V146H72.7116ZM86.6179 149.273V137.273H87.9134V138.659H88.0724C88.1709 138.508 88.3073 138.314 88.4815 138.08C88.6596 137.841 88.9134 137.629 89.2429 137.443C89.5762 137.254 90.027 137.159 90.5952 137.159C91.33 137.159 91.9777 137.343 92.5384 137.71C93.099 138.078 93.5365 138.598 93.8509 139.273C94.1652 139.947 94.3224 140.742 94.3224 141.659C94.3224 142.583 94.1652 143.384 93.8509 144.062C93.5365 144.737 93.1009 145.259 92.544 145.631C91.9872 145.998 91.3452 146.182 90.6179 146.182C90.0573 146.182 89.6084 146.089 89.2713 145.903C88.9342 145.714 88.6747 145.5 88.4929 145.261C88.3111 145.019 88.1709 144.818 88.0724 144.659H87.9588V149.273H86.6179ZM87.9361 141.636C87.9361 142.295 88.0327 142.877 88.2259 143.381C88.419 143.881 88.7012 144.273 89.0724 144.557C89.4437 144.837 89.8982 144.977 90.4361 144.977C90.9967 144.977 91.4645 144.83 91.8395 144.534C92.2183 144.235 92.5024 143.833 92.6918 143.33C92.8849 142.822 92.9815 142.258 92.9815 141.636C92.9815 141.023 92.8868 140.47 92.6974 139.977C92.5118 139.481 92.2296 139.089 91.8509 138.801C91.4759 138.509 91.0043 138.364 90.4361 138.364C89.8906 138.364 89.4323 138.502 89.0611 138.778C88.6899 139.051 88.4096 139.434 88.2202 139.926C88.0308 140.415 87.9361 140.985 87.9361 141.636ZM98.9361 146.205C98.383 146.205 97.8812 146.1 97.4304 145.892C96.9796 145.68 96.6217 145.375 96.3565 144.977C96.0914 144.576 95.9588 144.091 95.9588 143.523C95.9588 143.023 96.0573 142.617 96.2543 142.307C96.4512 141.992 96.7145 141.746 97.044 141.568C97.3736 141.39 97.7372 141.258 98.1349 141.17C98.5365 141.08 98.9399 141.008 99.3452 140.955C99.8755 140.886 100.305 140.835 100.635 140.801C100.968 140.763 101.211 140.701 101.362 140.614C101.518 140.527 101.595 140.375 101.595 140.159V140.114C101.595 139.553 101.442 139.117 101.135 138.807C100.832 138.496 100.372 138.341 99.7543 138.341C99.1141 138.341 98.6122 138.481 98.2486 138.761C97.8849 139.042 97.6293 139.341 97.4815 139.659L96.2088 139.205C96.4361 138.674 96.7391 138.261 97.1179 137.966C97.5005 137.667 97.9171 137.458 98.3679 137.341C98.8224 137.22 99.2694 137.159 99.7088 137.159C99.9891 137.159 100.311 137.193 100.675 137.261C101.042 137.326 101.396 137.46 101.737 137.665C102.082 137.869 102.368 138.178 102.595 138.591C102.822 139.004 102.936 139.557 102.936 140.25V146H101.595V144.818H101.527C101.436 145.008 101.285 145.21 101.072 145.426C100.86 145.642 100.578 145.826 100.226 145.977C99.8736 146.129 99.4437 146.205 98.9361 146.205ZM99.1406 145C99.6709 145 100.118 144.896 100.482 144.688C100.849 144.479 101.125 144.21 101.311 143.881C101.5 143.551 101.595 143.205 101.595 142.841V141.614C101.538 141.682 101.413 141.744 101.22 141.801C101.031 141.854 100.811 141.902 100.561 141.943C100.315 141.981 100.074 142.015 99.8395 142.045C99.6084 142.072 99.4209 142.095 99.277 142.114C98.9285 142.159 98.6027 142.233 98.2997 142.335C98.0005 142.434 97.758 142.583 97.5724 142.784C97.3906 142.981 97.2997 143.25 97.2997 143.591C97.2997 144.057 97.4721 144.409 97.8168 144.648C98.1652 144.883 98.6065 145 99.1406 145ZM106.724 140.75V146H105.384V137.273H106.679V138.636H106.793C106.997 138.193 107.308 137.837 107.724 137.568C108.141 137.295 108.679 137.159 109.338 137.159C109.929 137.159 110.446 137.28 110.889 137.523C111.332 137.761 111.677 138.125 111.923 138.614C112.17 139.098 112.293 139.712 112.293 140.455V146H110.952V140.545C110.952 139.86 110.774 139.326 110.418 138.943C110.062 138.557 109.573 138.364 108.952 138.364C108.524 138.364 108.141 138.456 107.804 138.642C107.471 138.828 107.207 139.098 107.014 139.455C106.821 139.811 106.724 140.242 106.724 140.75ZM115.294 149.273C115.067 149.273 114.864 149.254 114.686 149.216C114.508 149.182 114.385 149.148 114.317 149.114L114.658 147.932C114.983 148.015 115.271 148.045 115.521 148.023C115.771 148 115.993 147.888 116.186 147.688C116.383 147.491 116.563 147.17 116.726 146.727L116.976 146.045L113.749 137.273H115.203L117.612 144.227H117.703L120.112 137.273H121.567L117.862 147.273C117.696 147.723 117.489 148.097 117.243 148.392C116.997 148.691 116.711 148.913 116.385 149.057C116.063 149.201 115.699 149.273 115.294 149.273ZM127.837 146V137.273H129.132V138.591H129.223C129.382 138.159 129.67 137.809 130.087 137.54C130.503 137.271 130.973 137.136 131.496 137.136C131.594 137.136 131.717 137.138 131.865 137.142C132.013 137.146 132.125 137.152 132.2 137.159V138.523C132.155 138.511 132.051 138.494 131.888 138.472C131.729 138.445 131.56 138.432 131.382 138.432C130.958 138.432 130.579 138.521 130.246 138.699C129.916 138.873 129.655 139.116 129.462 139.426C129.272 139.733 129.178 140.083 129.178 140.477V146H127.837ZM137.183 146.182C136.342 146.182 135.617 145.996 135.007 145.625C134.401 145.25 133.933 144.727 133.604 144.057C133.278 143.383 133.115 142.598 133.115 141.705C133.115 140.811 133.278 140.023 133.604 139.341C133.933 138.655 134.392 138.121 134.979 137.739C135.57 137.352 136.259 137.159 137.047 137.159C137.501 137.159 137.95 137.235 138.393 137.386C138.837 137.538 139.24 137.784 139.604 138.125C139.967 138.462 140.257 138.909 140.473 139.466C140.689 140.023 140.797 140.708 140.797 141.523V142.091H134.07V140.932H139.433C139.433 140.439 139.335 140 139.138 139.614C138.945 139.227 138.668 138.922 138.308 138.699C137.952 138.475 137.532 138.364 137.047 138.364C136.513 138.364 136.051 138.496 135.661 138.761C135.274 139.023 134.977 139.364 134.768 139.784C134.56 140.205 134.456 140.655 134.456 141.136V141.909C134.456 142.568 134.57 143.127 134.797 143.585C135.028 144.04 135.348 144.386 135.757 144.625C136.166 144.86 136.642 144.977 137.183 144.977C137.536 144.977 137.854 144.928 138.138 144.83C138.426 144.727 138.674 144.576 138.882 144.375C139.09 144.17 139.251 143.917 139.365 143.614L140.661 143.977C140.524 144.417 140.295 144.803 139.973 145.136C139.651 145.466 139.253 145.723 138.78 145.909C138.306 146.091 137.774 146.182 137.183 146.182ZM146.382 146.182C145.564 146.182 144.859 145.989 144.268 145.602C143.678 145.216 143.223 144.684 142.905 144.006C142.587 143.328 142.428 142.553 142.428 141.682C142.428 140.795 142.59 140.013 142.916 139.335C143.246 138.653 143.704 138.121 144.291 137.739C144.882 137.352 145.571 137.159 146.359 137.159C146.973 137.159 147.526 137.273 148.018 137.5C148.511 137.727 148.914 138.045 149.229 138.455C149.543 138.864 149.738 139.341 149.814 139.886H148.473C148.371 139.489 148.143 139.136 147.791 138.83C147.443 138.519 146.973 138.364 146.382 138.364C145.859 138.364 145.401 138.5 145.007 138.773C144.617 139.042 144.312 139.422 144.092 139.915C143.876 140.403 143.768 140.977 143.768 141.636C143.768 142.311 143.875 142.898 144.087 143.398C144.303 143.898 144.606 144.286 144.996 144.562C145.39 144.839 145.852 144.977 146.382 144.977C146.731 144.977 147.047 144.917 147.331 144.795C147.615 144.674 147.856 144.5 148.053 144.273C148.25 144.045 148.39 143.773 148.473 143.455H149.814C149.738 143.97 149.551 144.434 149.251 144.847C148.956 145.256 148.564 145.581 148.075 145.824C147.59 146.062 147.026 146.182 146.382 146.182ZM155.433 146.182C154.592 146.182 153.867 145.996 153.257 145.625C152.651 145.25 152.183 144.727 151.854 144.057C151.528 143.383 151.365 142.598 151.365 141.705C151.365 140.811 151.528 140.023 151.854 139.341C152.183 138.655 152.642 138.121 153.229 137.739C153.82 137.352 154.509 137.159 155.297 137.159C155.751 137.159 156.2 137.235 156.643 137.386C157.087 137.538 157.49 137.784 157.854 138.125C158.217 138.462 158.507 138.909 158.723 139.466C158.939 140.023 159.047 140.708 159.047 141.523V142.091H152.32V140.932H157.683C157.683 140.439 157.585 140 157.388 139.614C157.195 139.227 156.918 138.922 156.558 138.699C156.202 138.475 155.782 138.364 155.297 138.364C154.763 138.364 154.301 138.496 153.911 138.761C153.524 139.023 153.227 139.364 153.018 139.784C152.81 140.205 152.706 140.655 152.706 141.136V141.909C152.706 142.568 152.82 143.127 153.047 143.585C153.278 144.04 153.598 144.386 154.007 144.625C154.416 144.86 154.892 144.977 155.433 144.977C155.786 144.977 156.104 144.928 156.388 144.83C156.676 144.727 156.924 144.576 157.132 144.375C157.34 144.17 157.501 143.917 157.615 143.614L158.911 143.977C158.774 144.417 158.545 144.803 158.223 145.136C157.901 145.466 157.503 145.723 157.03 145.909C156.556 146.091 156.024 146.182 155.433 146.182ZM162.428 140.75V146H161.087V137.273H162.382V138.636H162.496C162.7 138.193 163.011 137.837 163.428 137.568C163.844 137.295 164.382 137.159 165.041 137.159C165.632 137.159 166.149 137.28 166.592 137.523C167.036 137.761 167.38 138.125 167.626 138.614C167.873 139.098 167.996 139.712 167.996 140.455V146H166.655V140.545C166.655 139.86 166.477 139.326 166.121 138.943C165.765 138.557 165.276 138.364 164.655 138.364C164.227 138.364 163.844 138.456 163.507 138.642C163.174 138.828 162.911 139.098 162.717 139.455C162.524 139.811 162.428 140.242 162.428 140.75ZM174.241 137.273V138.409H169.719V137.273H174.241ZM171.037 135.182H172.378V143.5C172.378 143.879 172.433 144.163 172.543 144.352C172.656 144.538 172.8 144.663 172.974 144.727C173.152 144.788 173.34 144.818 173.537 144.818C173.685 144.818 173.806 144.811 173.901 144.795C173.995 144.777 174.071 144.761 174.128 144.75L174.401 145.955C174.31 145.989 174.183 146.023 174.02 146.057C173.857 146.095 173.651 146.114 173.401 146.114C173.022 146.114 172.651 146.032 172.287 145.869C171.927 145.706 171.628 145.458 171.389 145.125C171.154 144.792 171.037 144.371 171.037 143.864V135.182ZM183.327 146.205C182.774 146.205 182.272 146.1 181.821 145.892C181.37 145.68 181.012 145.375 180.747 144.977C180.482 144.576 180.349 144.091 180.349 143.523C180.349 143.023 180.448 142.617 180.645 142.307C180.842 141.992 181.105 141.746 181.435 141.568C181.764 141.39 182.128 141.258 182.526 141.17C182.927 141.08 183.33 141.008 183.736 140.955C184.266 140.886 184.696 140.835 185.026 140.801C185.359 140.763 185.601 140.701 185.753 140.614C185.908 140.527 185.986 140.375 185.986 140.159V140.114C185.986 139.553 185.832 139.117 185.526 138.807C185.223 138.496 184.762 138.341 184.145 138.341C183.505 138.341 183.003 138.481 182.639 138.761C182.276 139.042 182.02 139.341 181.872 139.659L180.599 139.205C180.827 138.674 181.13 138.261 181.509 137.966C181.891 137.667 182.308 137.458 182.759 137.341C183.213 137.22 183.66 137.159 184.099 137.159C184.38 137.159 184.702 137.193 185.065 137.261C185.433 137.326 185.787 137.46 186.128 137.665C186.473 137.869 186.759 138.178 186.986 138.591C187.213 139.004 187.327 139.557 187.327 140.25V146H185.986V144.818H185.918C185.827 145.008 185.675 145.21 185.463 145.426C185.251 145.642 184.969 145.826 184.616 145.977C184.264 146.129 183.834 146.205 183.327 146.205ZM183.531 145C184.062 145 184.509 144.896 184.872 144.688C185.24 144.479 185.516 144.21 185.702 143.881C185.891 143.551 185.986 143.205 185.986 142.841V141.614C185.929 141.682 185.804 141.744 185.611 141.801C185.421 141.854 185.202 141.902 184.952 141.943C184.705 141.981 184.465 142.015 184.23 142.045C183.999 142.072 183.812 142.095 183.668 142.114C183.319 142.159 182.993 142.233 182.69 142.335C182.391 142.434 182.149 142.583 181.963 142.784C181.781 142.981 181.69 143.25 181.69 143.591C181.69 144.057 181.863 144.409 182.207 144.648C182.556 144.883 182.997 145 183.531 145ZM193.32 146.182C192.501 146.182 191.797 145.989 191.206 145.602C190.615 145.216 190.161 144.684 189.842 144.006C189.524 143.328 189.365 142.553 189.365 141.682C189.365 140.795 189.528 140.013 189.854 139.335C190.183 138.653 190.642 138.121 191.229 137.739C191.82 137.352 192.509 137.159 193.297 137.159C193.911 137.159 194.464 137.273 194.956 137.5C195.448 137.727 195.852 138.045 196.166 138.455C196.481 138.864 196.676 139.341 196.751 139.886H195.411C195.308 139.489 195.081 139.136 194.729 138.83C194.38 138.519 193.911 138.364 193.32 138.364C192.797 138.364 192.339 138.5 191.945 138.773C191.554 139.042 191.25 139.422 191.03 139.915C190.814 140.403 190.706 140.977 190.706 141.636C190.706 142.311 190.812 142.898 191.024 143.398C191.24 143.898 191.543 144.286 191.933 144.562C192.327 144.839 192.789 144.977 193.32 144.977C193.668 144.977 193.984 144.917 194.268 144.795C194.553 144.674 194.793 144.5 194.99 144.273C195.187 144.045 195.327 143.773 195.411 143.455H196.751C196.676 143.97 196.488 144.434 196.189 144.847C195.893 145.256 195.501 145.581 195.013 145.824C194.528 146.062 193.964 146.182 193.32 146.182ZM202.507 137.273V138.409H197.984V137.273H202.507ZM199.303 135.182H200.643V143.5C200.643 143.879 200.698 144.163 200.808 144.352C200.922 144.538 201.066 144.663 201.24 144.727C201.418 144.788 201.606 144.818 201.803 144.818C201.95 144.818 202.071 144.811 202.166 144.795C202.261 144.777 202.337 144.761 202.393 144.75L202.666 145.955C202.575 145.989 202.448 146.023 202.286 146.057C202.123 146.095 201.916 146.114 201.666 146.114C201.287 146.114 200.916 146.032 200.553 145.869C200.193 145.706 199.893 145.458 199.655 145.125C199.42 144.792 199.303 144.371 199.303 143.864V135.182ZM204.524 146V137.273H205.865V146H204.524ZM205.206 135.818C204.945 135.818 204.719 135.729 204.53 135.551C204.344 135.373 204.251 135.159 204.251 134.909C204.251 134.659 204.344 134.445 204.53 134.267C204.719 134.089 204.945 134 205.206 134C205.467 134 205.691 134.089 205.876 134.267C206.066 134.445 206.161 134.659 206.161 134.909C206.161 135.159 206.066 135.373 205.876 135.551C205.691 135.729 205.467 135.818 205.206 135.818ZM215.457 137.273L212.23 146H210.866L207.639 137.273H209.094L211.503 144.227H211.594L214.003 137.273H215.457ZM217.227 146V137.273H218.568V146H217.227ZM217.909 135.818C217.648 135.818 217.422 135.729 217.233 135.551C217.047 135.373 216.955 135.159 216.955 134.909C216.955 134.659 217.047 134.445 217.233 134.267C217.422 134.089 217.648 134 217.909 134C218.17 134 218.394 134.089 218.58 134.267C218.769 134.445 218.864 134.659 218.864 134.909C218.864 135.159 218.769 135.373 218.58 135.551C218.394 135.729 218.17 135.818 217.909 135.818ZM224.82 137.273V138.409H220.297V137.273H224.82ZM221.615 135.182H222.956V143.5C222.956 143.879 223.011 144.163 223.121 144.352C223.234 144.538 223.378 144.663 223.553 144.727C223.731 144.788 223.918 144.818 224.115 144.818C224.263 144.818 224.384 144.811 224.479 144.795C224.573 144.777 224.649 144.761 224.706 144.75L224.979 145.955C224.888 145.989 224.761 146.023 224.598 146.057C224.435 146.095 224.229 146.114 223.979 146.114C223.6 146.114 223.229 146.032 222.865 145.869C222.505 145.706 222.206 145.458 221.967 145.125C221.732 144.792 221.615 144.371 221.615 143.864V135.182ZM227.7 149.273C227.473 149.273 227.27 149.254 227.092 149.216C226.914 149.182 226.791 149.148 226.723 149.114L227.064 147.932C227.39 148.015 227.678 148.045 227.928 148.023C228.178 148 228.399 147.888 228.592 147.688C228.789 147.491 228.969 147.17 229.132 146.727L229.382 146.045L226.155 137.273H227.609L230.018 144.227H230.109L232.518 137.273H233.973L230.268 147.273C230.102 147.723 229.895 148.097 229.649 148.392C229.403 148.691 229.117 148.913 228.791 149.057C228.469 149.201 228.106 149.273 227.7 149.273Z" fill="#929292"/>
<g filter="url(#filter5_d_72_734)">
<mask id="path-38-inside-1_72_734" fill="white">
<path fill-rule="evenodd" clip-rule="evenodd" d="M359.222 633.611C359.222 648.308 347.308 660.222 332.611 660.222C317.914 660.222 306 648.308 306 633.611C306 618.914 317.914 607 332.611 607C347.308 607 359.222 618.914 359.222 633.611ZM354.89 662.666C348.719 667.405 340.994 670.222 332.611 670.222C312.391 670.222 296 653.831 296 633.611C296 613.391 312.391 597 332.611 597C352.831 597 369.222 613.391 369.222 633.611C369.222 641.842 366.506 649.439 361.921 655.554L394.395 688.028C396.347 689.981 396.347 693.147 394.395 695.099C392.442 697.052 389.276 697.052 387.324 695.099L354.89 662.666Z"/>
</mask>
<path fill-rule="evenodd" clip-rule="evenodd" d="M359.222 633.611C359.222 648.308 347.308 660.222 332.611 660.222C317.914 660.222 306 648.308 306 633.611C306 618.914 317.914 607 332.611 607C347.308 607 359.222 618.914 359.222 633.611ZM354.89 662.666C348.719 667.405 340.994 670.222 332.611 670.222C312.391 670.222 296 653.831 296 633.611C296 613.391 312.391 597 332.611 597C352.831 597 369.222 613.391 369.222 633.611C369.222 641.842 366.506 649.439 361.921 655.554L394.395 688.028C396.347 689.981 396.347 693.147 394.395 695.099C392.442 697.052 389.276 697.052 387.324 695.099L354.89 662.666Z" fill="url(#paint0_linear_72_734)"/>
<path d="M354.89 662.666L355.597 661.959L354.977 661.338L354.281 661.873L354.89 662.666ZM361.921 655.554L361.121 654.954L360.6 655.648L361.214 656.261L361.921 655.554ZM332.611 661.222C347.86 661.222 360.222 648.86 360.222 633.611H358.222C358.222 647.756 346.756 659.222 332.611 659.222V661.222ZM305 633.611C305 648.86 317.362 661.222 332.611 661.222V659.222C318.467 659.222 307 647.756 307 633.611H305ZM332.611 606C317.362 606 305 618.362 305 633.611H307C307 619.467 318.467 608 332.611 608V606ZM360.222 633.611C360.222 618.362 347.86 606 332.611 606V608C346.756 608 358.222 619.467 358.222 633.611H360.222ZM332.611 671.222C341.222 671.222 349.159 668.328 355.499 663.459L354.281 661.873C348.278 666.482 340.766 669.222 332.611 669.222V671.222ZM295 633.611C295 654.383 311.839 671.222 332.611 671.222V669.222C312.944 669.222 297 653.279 297 633.611H295ZM332.611 596C311.839 596 295 612.839 295 633.611H297C297 613.944 312.944 598 332.611 598V596ZM370.222 633.611C370.222 612.839 353.383 596 332.611 596V598C352.279 598 368.222 613.944 368.222 633.611H370.222ZM362.721 656.154C367.431 649.872 370.222 642.066 370.222 633.611H368.222C368.222 641.619 365.581 649.006 361.121 654.954L362.721 656.154ZM361.214 656.261L393.688 688.735L395.102 687.321L362.628 654.847L361.214 656.261ZM393.688 688.735C395.25 690.298 395.25 692.83 393.688 694.392L395.102 695.807C397.445 693.463 397.445 689.664 395.102 687.321L393.688 688.735ZM393.688 694.392C392.126 695.954 389.593 695.954 388.031 694.392L386.617 695.807C388.96 698.15 392.759 698.15 395.102 695.807L393.688 694.392ZM388.031 694.392L355.597 661.959L354.183 663.373L386.617 695.807L388.031 694.392Z" fill="white" fill-opacity="0.5" mask="url(#path-38-inside-1_72_734)"/>
</g>
<rect width="70" height="70" transform="translate(497 449)" fill="white"/>
<path d="M506.8 443.4C499.068 443.4 492.8 449.355 492.8 456.7V509.9C492.8 517.245 499.068 523.2 506.8 523.2H562.8C570.532 523.2 576.8 517.245 576.8 509.9V456.7C576.8 449.355 570.532 443.4 562.8 443.4H506.8ZM510.972 460.5H526.847L538.12 475.719L551.8 460.5H556.8L540.378 478.765L560.628 506.1H544.757L531.675 488.443L515.8 506.1H510.8L529.417 485.397L510.972 460.5ZM518.628 464.3L546.843 502.3H552.972L524.757 464.3H518.628Z" fill="black"/>
<path d="M374.5 416.083C374.5 421.837 369.837 426.5 364.083 426.5H309.917C304.165 426.5 299.5 421.837 299.5 416.083V361.917C299.5 356.162 304.165 351.5 309.917 351.5H364.083C369.837 351.5 374.5 356.162 374.5 361.917V416.083Z" fill="#0078D4"/>
<path opacity="0.05" d="M349.5 416.083V395.044C349.5 391.525 347.794 389.423 344.933 389.423C343.235 389.423 341.987 390.379 341.227 392.265C341.192 392.398 341.142 392.942 341.162 394.585L341.167 416.083H326.583V376.5H341.167V378.71C343.296 377.242 345.906 376.5 348.954 376.5C358.427 376.5 364.081 382.944 364.081 393.738L364.083 416.083H349.5ZM309.917 416.083V376.5H317.119C312.946 376.5 309.917 373.433 309.917 369.206C309.917 364.983 312.996 361.917 317.237 361.917C321.429 361.917 324.415 364.898 324.5 369.165C324.5 373.423 321.419 376.5 317.177 376.5H324.5V416.083H309.917Z" fill="black"/>
<path opacity="0.07" d="M350.542 415.042V395.044C350.542 390.933 348.394 388.381 344.933 388.381C342.235 388.381 340.902 390.281 340.26 391.875C340.09 392.29 340.113 393.935 340.121 394.637L340.125 415.042H327.625V377.542H340.125V380.954C341.781 379.24 344.448 377.542 348.954 377.542C357.773 377.542 363.04 383.596 363.04 393.737L363.042 415.042H350.542ZM310.958 415.042V377.542H323.458V415.042H310.958ZM317.119 375.458C313.55 375.458 310.958 372.829 310.958 369.206C310.958 365.585 313.6 362.958 317.238 362.958C320.829 362.958 323.385 365.519 323.458 369.185C323.458 372.829 320.817 375.458 317.177 375.458H317.119Z" fill="black"/>
<path d="M312 378.583H322.417V414H312V378.583ZM317.177 374.417H317.119C314.01 374.417 312 372.1 312 369.206C312 366.25 314.073 364 317.237 364C320.406 364 322.358 366.25 322.417 369.206C322.417 372.098 320.406 374.417 317.177 374.417ZM362 414H351.583V395.044C351.583 390.465 349.031 387.34 344.933 387.34C341.806 387.34 340.115 389.448 339.294 391.485C338.994 392.215 339.083 394.231 339.083 395.25V414H328.667V378.583H339.083V384.033C340.585 381.708 342.938 378.583 348.954 378.583C356.408 378.583 361.998 383.271 361.998 393.737L362 414Z" fill="white"/>
<path d="M105.125 454.089V512.905C105.125 516.747 108.245 519.867 112.087 519.867H170.915C174.757 519.867 177.877 516.747 177.877 512.905V454.089C177.877 450.247 174.757 447.127 170.915 447.127H112.089C108.245 447.127 105.125 450.247 105.125 454.089Z" fill="url(#paint1_linear_72_734)"/>
<path fill-rule="evenodd" clip-rule="evenodd" d="M119.273 495.623L119.271 471.373C119.271 464.68 124.705 459.248 131.398 459.248H143.521C150.214 459.248 155.648 464.68 155.648 471.373L155.646 477.435C155.646 479.666 157.459 481.479 159.69 481.479C161.921 481.479 163.731 483.288 163.731 485.519C163.731 486.996 163.733 493.176 163.733 495.623C163.733 502.316 158.299 507.748 151.606 507.748H131.4C124.707 507.748 119.273 502.316 119.273 495.623ZM151.606 491.581C151.606 489.352 149.793 487.54 147.565 487.54H133.419C131.188 487.54 129.377 489.352 129.377 491.581C129.377 493.812 131.188 495.623 133.419 495.623H147.565C149.791 495.623 151.606 493.812 151.606 491.581ZM147.589 473.394C147.589 471.165 145.776 469.352 143.547 469.352H133.394C131.163 469.352 129.353 471.165 129.353 473.394C129.353 475.625 131.163 477.435 133.394 477.435H143.547C145.774 477.435 147.589 475.625 147.589 473.394Z" fill="white"/>
<circle cx="609.5" cy="25.5" r="122" stroke="#7849FF" stroke-opacity="0.1" stroke-width="19"/>
<circle cx="337.5" cy="614.5" r="175" stroke="#7849FF" stroke-opacity="0.15" stroke-width="19"/>
</g>
<rect x="0.25" y="0.25" width="674.5" height="674.5" rx="15.75" stroke="#7353F5" stroke-width="0.5"/>
<defs>
<filter id="filter0_f_72_734" x="257.743" y="305.743" width="169.794" height="167.181" filterUnits="userSpaceOnUse" color-interpolation-filters="sRGB">
<feFlood flood-opacity="0" result="BackgroundImageFix"/>
<feBlend mode="normal" in="SourceGraphic" in2="BackgroundImageFix" result="shape"/>
<feGaussianBlur stdDeviation="25" result="effect1_foregroundBlur_72_734"/>
</filter>
<filter id="filter1_f_72_734" x="57.7431" y="403.743" width="170.258" height="167.406" filterUnits="userSpaceOnUse" color-interpolation-filters="sRGB">
<feFlood flood-opacity="0" result="BackgroundImageFix"/>
<feBlend mode="normal" in="SourceGraphic" in2="BackgroundImageFix" result="shape"/>
<feGaussianBlur stdDeviation="25" result="effect1_foregroundBlur_72_734"/>
</filter>
<filter id="filter2_f_72_734" x="437.743" y="409.743" width="170.258" height="167.406" filterUnits="userSpaceOnUse" color-interpolation-filters="sRGB">
<feFlood flood-opacity="0" result="BackgroundImageFix"/>
<feBlend mode="normal" in="SourceGraphic" in2="BackgroundImageFix" result="shape"/>
<feGaussianBlur stdDeviation="25" result="effect1_foregroundBlur_72_734"/>
</filter>
<filter id="filter3_f_72_734" x="256.743" y="539.743" width="170.258" height="167.406" filterUnits="userSpaceOnUse" color-interpolation-filters="sRGB">
<feFlood flood-opacity="0" result="BackgroundImageFix"/>
<feBlend mode="normal" in="SourceGraphic" in2="BackgroundImageFix" result="shape"/>
<feGaussianBlur stdDeviation="25" result="effect1_foregroundBlur_72_734"/>
</filter>
<filter id="filter4_f_72_734" x="-31.2862" y="-32.2862" width="721.696" height="720.999" filterUnits="userSpaceOnUse" color-interpolation-filters="sRGB">
<feFlood flood-opacity="0" result="BackgroundImageFix"/>
<feBlend mode="normal" in="SourceGraphic" in2="BackgroundImageFix" result="shape"/>
<feGaussianBlur stdDeviation="100" result="effect1_foregroundBlur_72_734"/>
</filter>
<filter id="filter5_d_72_734" x="270.2" y="576.2" width="151.459" height="151.164" filterUnits="userSpaceOnUse" color-interpolation-filters="sRGB">
<feFlood flood-opacity="0" result="BackgroundImageFix"/>
<feColorMatrix in="SourceAlpha" type="matrix" values="0 0 0 0 0 0 0 0 0 0 0 0 0 0 0 0 0 0 127 0" result="hardAlpha"/>
<feOffset dy="5"/>
<feGaussianBlur stdDeviation="12.9"/>
<feComposite in2="hardAlpha" operator="out"/>
<feColorMatrix type="matrix" values="0 0 0 0 0.675333 0 0 0 0 0.594167 0 0 0 0 1 0 0 0 0.15 0"/>
<feBlend mode="normal" in2="BackgroundImageFix" result="effect1_dropShadow_72_734"/>
<feBlend mode="normal" in="SourceGraphic" in2="effect1_dropShadow_72_734" result="shape"/>
</filter>
<linearGradient id="paint0_linear_72_734" x1="345.93" y1="597" x2="345.93" y2="696.564" gradientUnits="userSpaceOnUse">
<stop stop-color="#6D28D9"/>
<stop offset="1" stop-color="#C1CAFA"/>
</linearGradient>
<linearGradient id="paint1_linear_72_734" x1="106.105" y1="448.101" x2="168.783" y2="510.777" gradientUnits="userSpaceOnUse">
<stop stop-color="#FF975F"/>
<stop offset="1" stop-color="#FF7930"/>
</linearGradient>
<clipPath id="clip0_72_734">
<rect width="675" height="675" rx="16" fill="white"/>
</clipPath>
</defs>
</svg>
