<svg width="545" height="554" viewBox="0 0 545 554" fill="none" xmlns="http://www.w3.org/2000/svg">
<g filter="url(#filter0_d_21_94)">
<g clip-path="url(#clip0_21_94)">
<rect x="37" y="21" width="471" height="480" rx="32" fill="#0C1113"/>
<g filter="url(#filter1_f_21_94)">
<rect x="241.88" y="242" width="67.1537" height="61.5012" rx="26" transform="rotate(25.9164 241.88 242)" fill="#FF7DA4" fill-opacity="0.3"/>
</g>
<g filter="url(#filter2_f_21_94)">
<rect x="98.8799" y="331" width="67.6698" height="61.5012" rx="26" transform="rotate(25.9164 98.8799 331)" fill="#FF7DA4" fill-opacity="0.3"/>
</g>
<g filter="url(#filter3_f_21_94)">
<rect x="394.88" y="334" width="67.6698" height="61.5012" rx="26" transform="rotate(25.9164 394.88 334)" fill="#FF7DA4" fill-opacity="0.3"/>
</g>
<g filter="url(#filter4_f_21_94)">
<rect x="245.88" y="454" width="67.6698" height="61.5012" rx="26" transform="rotate(25.9164 245.88 454)" fill="#FF7DA4" fill-opacity="0.12"/>
</g>
<g filter="url(#filter5_f_21_94)">
<rect x="14.7583" y="289" width="247.231" height="301.466" rx="26" transform="rotate(25.9164 14.7583 289)" fill="#FF7DA4" fill-opacity="0.15"/>
</g>
<path d="M-58 280.799L549.81 280.799" stroke="white" stroke-opacity="0.1" stroke-width="0.35" stroke-linecap="round"/>
<path d="M-58 321.986L549.81 321.986" stroke="white" stroke-opacity="0.1" stroke-width="0.35" stroke-linecap="round"/>
<path d="M-58 364.459L549.81 364.459" stroke="white" stroke-opacity="0.1" stroke-width="0.35" stroke-linecap="round"/>
<path d="M-58 401.785L549.81 401.785" stroke="white" stroke-opacity="0.1" stroke-width="0.35" stroke-linecap="round"/>
<path d="M-58 439.11L549.81 439.11" stroke="white" stroke-opacity="0.1" stroke-width="0.35" stroke-linecap="round"/>
<path d="M-58 244.761L549.81 244.761" stroke="white" stroke-opacity="0.1" stroke-width="0.35" stroke-linecap="round"/>
<path d="M127.2 470L127.2 201" stroke="white" stroke-opacity="0.1" stroke-width="0.35" stroke-linecap="round"/>
<path d="M200.097 470V201" stroke="white" stroke-opacity="0.1" stroke-width="0.35" stroke-linecap="round"/>
<path d="M272.996 470V201" stroke="white" stroke-opacity="0.1" stroke-width="0.35" stroke-linecap="round"/>
<path d="M345.893 470V201" stroke="white" stroke-opacity="0.1" stroke-width="0.35" stroke-linecap="round"/>
<path d="M418.791 470V201" stroke="white" stroke-opacity="0.1" stroke-width="0.35" stroke-linecap="round"/>
<path d="M491.688 470V201" stroke="white" stroke-opacity="0.1" stroke-width="0.35" stroke-linecap="round"/>
<path d="M48.3916 470L48.3916 201" stroke="white" stroke-opacity="0.1" stroke-width="0.35" stroke-linecap="round"/>
<path d="M-21.8096 280.799L586 280.799" stroke="white" stroke-opacity="0.1" stroke-width="0.35" stroke-linecap="round"/>
<path d="M-21.8096 321.986L586 321.986" stroke="white" stroke-opacity="0.1" stroke-width="0.35" stroke-linecap="round"/>
<path d="M-21.8096 364.459L586 364.459" stroke="white" stroke-opacity="0.1" stroke-width="0.35" stroke-linecap="round"/>
<path d="M-21.8096 401.785L586 401.785" stroke="white" stroke-opacity="0.1" stroke-width="0.35" stroke-linecap="round"/>
<path d="M-21.8096 439.11L586 439.11" stroke="white" stroke-opacity="0.1" stroke-width="0.35" stroke-linecap="round"/>
<path d="M-21.8096 244.761L586 244.761" stroke="white" stroke-opacity="0.1" stroke-width="0.35" stroke-linecap="round"/>
<path d="M163.39 470V201" stroke="white" stroke-opacity="0.1" stroke-width="0.35" stroke-linecap="round"/>
<path d="M236.288 470V201" stroke="white" stroke-opacity="0.1" stroke-width="0.35" stroke-linecap="round"/>
<path d="M309.186 470V201" stroke="white" stroke-opacity="0.1" stroke-width="0.35" stroke-linecap="round"/>
<path d="M382.083 470V201" stroke="white" stroke-opacity="0.1" stroke-width="0.35" stroke-linecap="round"/>
<path d="M454.981 470V201" stroke="white" stroke-opacity="0.1" stroke-width="0.35" stroke-linecap="round"/>
<path d="M84.582 470L84.582 201" stroke="white" stroke-opacity="0.1" stroke-width="0.35" stroke-linecap="round"/>
<circle cx="264.5" cy="440.5" r="122" stroke="#7849FF" stroke-opacity="0.15" stroke-width="19"/>
<path d="M72.5114 94.7273V118H68.2955V94.7273H72.5114ZM81.0085 107.773V118H76.8949V100.545H80.8267V103.511H81.0312C81.4328 102.534 82.0729 101.758 82.9517 101.182C83.8381 100.606 84.9328 100.318 86.2358 100.318C87.4403 100.318 88.4896 100.576 89.3835 101.091C90.285 101.606 90.982 102.352 91.4744 103.33C91.9744 104.307 92.2206 105.492 92.2131 106.886V118H88.0994V107.523C88.0994 106.356 87.7964 105.443 87.1903 104.784C86.5919 104.125 85.7623 103.795 84.7017 103.795C83.982 103.795 83.3419 103.955 82.7812 104.273C82.2282 104.583 81.7926 105.034 81.4744 105.625C81.1638 106.216 81.0085 106.932 81.0085 107.773ZM110.19 105.159L106.44 105.568C106.334 105.189 106.149 104.833 105.884 104.5C105.626 104.167 105.277 103.898 104.838 103.693C104.399 103.489 103.861 103.386 103.224 103.386C102.368 103.386 101.649 103.572 101.065 103.943C100.49 104.314 100.205 104.795 100.213 105.386C100.205 105.894 100.391 106.307 100.77 106.625C101.156 106.943 101.793 107.205 102.679 107.409L105.656 108.045C107.308 108.402 108.535 108.966 109.338 109.739C110.149 110.511 110.558 111.523 110.565 112.773C110.558 113.871 110.236 114.841 109.599 115.682C108.971 116.515 108.096 117.167 106.974 117.636C105.853 118.106 104.565 118.341 103.111 118.341C100.974 118.341 99.2547 117.894 97.9517 117C96.6487 116.098 95.8722 114.845 95.6222 113.239L99.6335 112.852C99.8153 113.64 100.202 114.235 100.793 114.636C101.384 115.038 102.152 115.239 103.099 115.239C104.077 115.239 104.861 115.038 105.452 114.636C106.05 114.235 106.349 113.739 106.349 113.148C106.349 112.648 106.156 112.235 105.77 111.909C105.391 111.583 104.8 111.333 103.997 111.159L101.02 110.534C99.3456 110.186 98.107 109.598 97.304 108.773C96.5009 107.939 96.1032 106.886 96.1108 105.614C96.1032 104.538 96.3949 103.606 96.9858 102.818C97.5843 102.023 98.4138 101.409 99.4744 100.977C100.543 100.538 101.774 100.318 103.168 100.318C105.213 100.318 106.823 100.754 107.997 101.625C109.179 102.496 109.91 103.674 110.19 105.159ZM113.957 118V100.545H118.071V118H113.957ZM116.026 98.0682C115.374 98.0682 114.813 97.8523 114.344 97.4205C113.874 96.9811 113.639 96.4545 113.639 95.8409C113.639 95.2197 113.874 94.6932 114.344 94.2614C114.813 93.822 115.374 93.6023 116.026 93.6023C116.685 93.6023 117.245 93.822 117.707 94.2614C118.177 94.6932 118.412 95.2197 118.412 95.8409C118.412 96.4545 118.177 96.9811 117.707 97.4205C117.245 97.8523 116.685 98.0682 116.026 98.0682ZM129.892 124.909C128.415 124.909 127.146 124.708 126.085 124.307C125.025 123.913 124.172 123.383 123.528 122.716C122.884 122.049 122.438 121.311 122.188 120.5L125.892 119.602C126.059 119.943 126.301 120.28 126.619 120.614C126.938 120.955 127.366 121.235 127.903 121.455C128.449 121.682 129.134 121.795 129.96 121.795C131.127 121.795 132.093 121.511 132.858 120.943C133.623 120.383 134.006 119.458 134.006 118.17V114.864H133.801C133.589 115.288 133.278 115.723 132.869 116.17C132.468 116.617 131.934 116.992 131.267 117.295C130.608 117.598 129.778 117.75 128.778 117.75C127.438 117.75 126.222 117.436 125.131 116.807C124.047 116.17 123.184 115.223 122.54 113.966C121.903 112.701 121.585 111.117 121.585 109.216C121.585 107.299 121.903 105.682 122.54 104.364C123.184 103.038 124.051 102.034 125.142 101.352C126.233 100.663 127.449 100.318 128.79 100.318C129.813 100.318 130.653 100.492 131.312 100.841C131.979 101.182 132.509 101.595 132.903 102.08C133.297 102.557 133.597 103.008 133.801 103.432H134.028V100.545H138.085V118.284C138.085 119.777 137.729 121.011 137.017 121.989C136.305 122.966 135.331 123.697 134.097 124.182C132.862 124.667 131.46 124.909 129.892 124.909ZM129.926 114.523C130.797 114.523 131.54 114.311 132.153 113.886C132.767 113.462 133.233 112.852 133.551 112.057C133.869 111.261 134.028 110.307 134.028 109.193C134.028 108.095 133.869 107.133 133.551 106.307C133.241 105.481 132.778 104.841 132.165 104.386C131.559 103.924 130.813 103.693 129.926 103.693C129.009 103.693 128.244 103.932 127.631 104.409C127.017 104.886 126.555 105.542 126.244 106.375C125.934 107.201 125.778 108.14 125.778 109.193C125.778 110.261 125.934 111.197 126.244 112C126.563 112.795 127.028 113.417 127.642 113.864C128.263 114.303 129.025 114.523 129.926 114.523ZM146.415 107.773V118H142.301V94.7273H146.324V103.511H146.528C146.938 102.527 147.57 101.75 148.426 101.182C149.29 100.606 150.388 100.318 151.722 100.318C152.934 100.318 153.991 100.572 154.892 101.08C155.794 101.587 156.491 102.33 156.983 103.307C157.483 104.284 157.733 105.477 157.733 106.886V118H153.619V107.523C153.619 106.348 153.316 105.436 152.71 104.784C152.112 104.125 151.271 103.795 150.188 103.795C149.46 103.795 148.809 103.955 148.233 104.273C147.665 104.583 147.218 105.034 146.892 105.625C146.574 106.216 146.415 106.932 146.415 107.773ZM170.642 100.545V103.727H160.608V100.545H170.642ZM163.085 96.3636H167.199V112.75C167.199 113.303 167.282 113.727 167.449 114.023C167.623 114.311 167.85 114.508 168.131 114.614C168.411 114.72 168.722 114.773 169.062 114.773C169.32 114.773 169.555 114.754 169.767 114.716C169.987 114.678 170.153 114.644 170.267 114.614L170.96 117.83C170.741 117.905 170.426 117.989 170.017 118.08C169.616 118.17 169.123 118.223 168.54 118.239C167.509 118.269 166.581 118.114 165.756 117.773C164.93 117.424 164.275 116.886 163.79 116.159C163.313 115.432 163.078 114.523 163.085 113.432V96.3636ZM187.628 105.159L183.878 105.568C183.772 105.189 183.586 104.833 183.321 104.5C183.063 104.167 182.715 103.898 182.276 103.693C181.836 103.489 181.298 103.386 180.662 103.386C179.806 103.386 179.086 103.572 178.503 103.943C177.927 104.314 177.643 104.795 177.651 105.386C177.643 105.894 177.829 106.307 178.207 106.625C178.594 106.943 179.23 107.205 180.116 107.409L183.094 108.045C184.745 108.402 185.973 108.966 186.776 109.739C187.586 110.511 187.995 111.523 188.003 112.773C187.995 113.871 187.673 114.841 187.037 115.682C186.408 116.515 185.533 117.167 184.412 117.636C183.291 118.106 182.003 118.341 180.548 118.341C178.412 118.341 176.692 117.894 175.389 117C174.086 116.098 173.31 114.845 173.06 113.239L177.071 112.852C177.253 113.64 177.639 114.235 178.23 114.636C178.821 115.038 179.59 115.239 180.537 115.239C181.514 115.239 182.298 115.038 182.889 114.636C183.488 114.235 183.787 113.739 183.787 113.148C183.787 112.648 183.594 112.235 183.207 111.909C182.829 111.583 182.238 111.333 181.435 111.159L178.457 110.534C176.783 110.186 175.545 109.598 174.741 108.773C173.938 107.939 173.541 106.886 173.548 105.614C173.541 104.538 173.832 103.606 174.423 102.818C175.022 102.023 175.851 101.409 176.912 100.977C177.98 100.538 179.211 100.318 180.605 100.318C182.651 100.318 184.26 100.754 185.435 101.625C186.616 102.496 187.348 103.674 187.628 105.159ZM206.946 118.341C205.241 118.341 203.764 117.966 202.514 117.216C201.264 116.466 200.295 115.417 199.605 114.068C198.923 112.72 198.582 111.144 198.582 109.341C198.582 107.538 198.923 105.958 199.605 104.602C200.295 103.246 201.264 102.193 202.514 101.443C203.764 100.693 205.241 100.318 206.946 100.318C208.651 100.318 210.128 100.693 211.378 101.443C212.628 102.193 213.594 103.246 214.276 104.602C214.965 105.958 215.31 107.538 215.31 109.341C215.31 111.144 214.965 112.72 214.276 114.068C213.594 115.417 212.628 116.466 211.378 117.216C210.128 117.966 208.651 118.341 206.946 118.341ZM206.969 115.045C207.893 115.045 208.666 114.792 209.287 114.284C209.908 113.769 210.37 113.08 210.673 112.216C210.984 111.352 211.139 110.39 211.139 109.33C211.139 108.261 210.984 107.295 210.673 106.432C210.37 105.561 209.908 104.867 209.287 104.352C208.666 103.837 207.893 103.58 206.969 103.58C206.022 103.58 205.234 103.837 204.605 104.352C203.984 104.867 203.518 105.561 203.207 106.432C202.904 107.295 202.753 108.261 202.753 109.33C202.753 110.39 202.904 111.352 203.207 112.216C203.518 113.08 203.984 113.769 204.605 114.284C205.234 114.792 206.022 115.045 206.969 115.045ZM222.915 107.773V118H218.801V100.545H222.733V103.511H222.938C223.339 102.534 223.979 101.758 224.858 101.182C225.744 100.606 226.839 100.318 228.142 100.318C229.347 100.318 230.396 100.576 231.29 101.091C232.191 101.606 232.888 102.352 233.381 103.33C233.881 104.307 234.127 105.492 234.119 106.886V118H230.006V107.523C230.006 106.356 229.703 105.443 229.097 104.784C228.498 104.125 227.669 103.795 226.608 103.795C225.888 103.795 225.248 103.955 224.688 104.273C224.134 104.583 223.699 105.034 223.381 105.625C223.07 106.216 222.915 106.932 222.915 107.773ZM246.42 118V94.7273H255.148C256.936 94.7273 258.436 95.0606 259.648 95.7273C260.867 96.3939 261.788 97.3106 262.409 98.4773C263.038 99.6364 263.352 100.955 263.352 102.432C263.352 103.924 263.038 105.25 262.409 106.409C261.78 107.568 260.852 108.481 259.625 109.148C258.398 109.807 256.886 110.136 255.091 110.136H249.307V106.67H254.523C255.568 106.67 256.424 106.489 257.091 106.125C257.758 105.761 258.25 105.261 258.568 104.625C258.894 103.989 259.057 103.258 259.057 102.432C259.057 101.606 258.894 100.879 258.568 100.25C258.25 99.6212 257.754 99.1326 257.08 98.7841C256.413 98.428 255.553 98.25 254.5 98.25H250.636V118H246.42ZM266.832 118V100.545H270.821V103.455H271.003C271.321 102.447 271.866 101.67 272.639 101.125C273.42 100.572 274.31 100.295 275.31 100.295C275.537 100.295 275.791 100.307 276.071 100.33C276.359 100.345 276.598 100.371 276.787 100.409V104.193C276.613 104.133 276.336 104.08 275.957 104.034C275.586 103.981 275.226 103.955 274.878 103.955C274.128 103.955 273.454 104.117 272.855 104.443C272.264 104.761 271.798 105.205 271.457 105.773C271.116 106.341 270.946 106.996 270.946 107.739V118H266.832ZM286.415 118.341C284.71 118.341 283.233 117.966 281.983 117.216C280.733 116.466 279.763 115.417 279.074 114.068C278.392 112.72 278.051 111.144 278.051 109.341C278.051 107.538 278.392 105.958 279.074 104.602C279.763 103.246 280.733 102.193 281.983 101.443C283.233 100.693 284.71 100.318 286.415 100.318C288.119 100.318 289.597 100.693 290.847 101.443C292.097 102.193 293.063 103.246 293.744 104.602C294.434 105.958 294.778 107.538 294.778 109.341C294.778 111.144 294.434 112.72 293.744 114.068C293.063 115.417 292.097 116.466 290.847 117.216C289.597 117.966 288.119 118.341 286.415 118.341ZM286.438 115.045C287.362 115.045 288.134 114.792 288.756 114.284C289.377 113.769 289.839 113.08 290.142 112.216C290.453 111.352 290.608 110.39 290.608 109.33C290.608 108.261 290.453 107.295 290.142 106.432C289.839 105.561 289.377 104.867 288.756 104.352C288.134 103.837 287.362 103.58 286.438 103.58C285.491 103.58 284.703 103.837 284.074 104.352C283.453 104.867 282.987 105.561 282.676 106.432C282.373 107.295 282.222 108.261 282.222 109.33C282.222 110.39 282.373 111.352 282.676 112.216C282.987 113.08 283.453 113.769 284.074 114.284C284.703 114.792 285.491 115.045 286.438 115.045ZM312.065 105.159L308.315 105.568C308.209 105.189 308.024 104.833 307.759 104.5C307.501 104.167 307.152 103.898 306.713 103.693C306.274 103.489 305.736 103.386 305.099 103.386C304.243 103.386 303.524 103.572 302.94 103.943C302.365 104.314 302.08 104.795 302.088 105.386C302.08 105.894 302.266 106.307 302.645 106.625C303.031 106.943 303.668 107.205 304.554 107.409L307.531 108.045C309.183 108.402 310.41 108.966 311.213 109.739C312.024 110.511 312.433 111.523 312.44 112.773C312.433 113.871 312.111 114.841 311.474 115.682C310.846 116.515 309.971 117.167 308.849 117.636C307.728 118.106 306.44 118.341 304.986 118.341C302.849 118.341 301.13 117.894 299.827 117C298.524 116.098 297.747 114.845 297.497 113.239L301.509 112.852C301.69 113.64 302.077 114.235 302.668 114.636C303.259 115.038 304.027 115.239 304.974 115.239C305.952 115.239 306.736 115.038 307.327 114.636C307.925 114.235 308.224 113.739 308.224 113.148C308.224 112.648 308.031 112.235 307.645 111.909C307.266 111.583 306.675 111.333 305.872 111.159L302.895 110.534C301.221 110.186 299.982 109.598 299.179 108.773C298.376 107.939 297.978 106.886 297.986 105.614C297.978 104.538 298.27 103.606 298.861 102.818C299.459 102.023 300.289 101.409 301.349 100.977C302.418 100.538 303.649 100.318 305.043 100.318C307.088 100.318 308.698 100.754 309.872 101.625C311.054 102.496 311.785 103.674 312.065 105.159ZM315.832 124.545V100.545H319.878V103.432H320.116C320.329 103.008 320.628 102.557 321.014 102.08C321.401 101.595 321.923 101.182 322.582 100.841C323.241 100.492 324.082 100.318 325.105 100.318C326.454 100.318 327.67 100.663 328.753 101.352C329.844 102.034 330.707 103.045 331.344 104.386C331.988 105.72 332.31 107.356 332.31 109.295C332.31 111.212 331.995 112.841 331.366 114.182C330.738 115.523 329.882 116.545 328.798 117.25C327.715 117.955 326.488 118.307 325.116 118.307C324.116 118.307 323.287 118.14 322.628 117.807C321.969 117.473 321.438 117.072 321.037 116.602C320.643 116.125 320.336 115.674 320.116 115.25H319.946V124.545H315.832ZM319.866 109.273C319.866 110.402 320.026 111.39 320.344 112.239C320.67 113.087 321.135 113.75 321.741 114.227C322.355 114.697 323.098 114.932 323.969 114.932C324.878 114.932 325.639 114.689 326.253 114.205C326.866 113.712 327.329 113.042 327.639 112.193C327.957 111.337 328.116 110.364 328.116 109.273C328.116 108.189 327.961 107.227 327.651 106.386C327.34 105.545 326.878 104.886 326.264 104.409C325.651 103.932 324.885 103.693 323.969 103.693C323.09 103.693 322.344 103.924 321.73 104.386C321.116 104.848 320.651 105.496 320.332 106.33C320.022 107.163 319.866 108.144 319.866 109.273ZM343.56 118.341C341.81 118.341 340.298 117.977 339.026 117.25C337.76 116.515 336.787 115.477 336.105 114.136C335.423 112.788 335.082 111.201 335.082 109.375C335.082 107.58 335.423 106.004 336.105 104.648C336.795 103.284 337.757 102.223 338.991 101.466C340.226 100.701 341.677 100.318 343.344 100.318C344.42 100.318 345.435 100.492 346.389 100.841C347.351 101.182 348.2 101.712 348.935 102.432C349.677 103.152 350.26 104.068 350.685 105.182C351.109 106.288 351.321 107.606 351.321 109.136V110.398H337.014V107.625H347.378C347.37 106.837 347.2 106.136 346.866 105.523C346.533 104.902 346.067 104.413 345.469 104.057C344.878 103.701 344.188 103.523 343.401 103.523C342.56 103.523 341.821 103.727 341.185 104.136C340.548 104.538 340.052 105.068 339.696 105.727C339.348 106.379 339.17 107.095 339.162 107.875V110.295C339.162 111.311 339.348 112.182 339.719 112.909C340.09 113.629 340.609 114.182 341.276 114.568C341.942 114.947 342.723 115.136 343.616 115.136C344.215 115.136 344.757 115.053 345.241 114.886C345.726 114.712 346.147 114.458 346.503 114.125C346.859 113.792 347.128 113.379 347.31 112.886L351.151 113.318C350.908 114.333 350.446 115.22 349.764 115.977C349.09 116.727 348.226 117.311 347.173 117.727C346.12 118.136 344.916 118.341 343.56 118.341ZM362.415 118.341C360.672 118.341 359.176 117.958 357.926 117.193C356.684 116.428 355.725 115.371 355.051 114.023C354.384 112.667 354.051 111.106 354.051 109.341C354.051 107.568 354.392 106.004 355.074 104.648C355.756 103.284 356.718 102.223 357.96 101.466C359.21 100.701 360.688 100.318 362.392 100.318C363.809 100.318 365.063 100.58 366.153 101.102C367.252 101.617 368.127 102.348 368.778 103.295C369.43 104.235 369.801 105.333 369.892 106.591H365.96C365.801 105.75 365.422 105.049 364.824 104.489C364.233 103.92 363.441 103.636 362.449 103.636C361.608 103.636 360.869 103.864 360.233 104.318C359.597 104.765 359.1 105.409 358.744 106.25C358.396 107.091 358.222 108.098 358.222 109.273C358.222 110.462 358.396 111.485 358.744 112.341C359.093 113.189 359.581 113.845 360.21 114.307C360.847 114.761 361.593 114.989 362.449 114.989C363.055 114.989 363.597 114.875 364.074 114.648C364.559 114.413 364.964 114.076 365.29 113.636C365.616 113.197 365.839 112.663 365.96 112.034H369.892C369.794 113.269 369.43 114.364 368.801 115.318C368.172 116.265 367.316 117.008 366.233 117.545C365.15 118.076 363.877 118.341 362.415 118.341ZM381.986 100.545V103.727H371.952V100.545H381.986ZM374.429 96.3636H378.543V112.75C378.543 113.303 378.626 113.727 378.793 114.023C378.967 114.311 379.194 114.508 379.474 114.614C379.755 114.72 380.065 114.773 380.406 114.773C380.664 114.773 380.899 114.754 381.111 114.716C381.33 114.678 381.497 114.644 381.611 114.614L382.304 117.83C382.084 117.905 381.77 117.989 381.361 118.08C380.959 118.17 380.467 118.223 379.884 118.239C378.853 118.269 377.925 118.114 377.099 117.773C376.274 117.424 375.618 116.886 375.134 116.159C374.656 115.432 374.421 114.523 374.429 113.432V96.3636ZM398.972 105.159L395.222 105.568C395.116 105.189 394.93 104.833 394.665 104.5C394.407 104.167 394.059 103.898 393.619 103.693C393.18 103.489 392.642 103.386 392.006 103.386C391.15 103.386 390.43 103.572 389.847 103.943C389.271 104.314 388.987 104.795 388.994 105.386C388.987 105.894 389.172 106.307 389.551 106.625C389.938 106.943 390.574 107.205 391.46 107.409L394.438 108.045C396.089 108.402 397.316 108.966 398.119 109.739C398.93 110.511 399.339 111.523 399.347 112.773C399.339 113.871 399.017 114.841 398.381 115.682C397.752 116.515 396.877 117.167 395.756 117.636C394.634 118.106 393.347 118.341 391.892 118.341C389.756 118.341 388.036 117.894 386.733 117C385.43 116.098 384.653 114.845 384.403 113.239L388.415 112.852C388.597 113.64 388.983 114.235 389.574 114.636C390.165 115.038 390.934 115.239 391.881 115.239C392.858 115.239 393.642 115.038 394.233 114.636C394.831 114.235 395.131 113.739 395.131 113.148C395.131 112.648 394.938 112.235 394.551 111.909C394.172 111.583 393.581 111.333 392.778 111.159L389.801 110.534C388.127 110.186 386.888 109.598 386.085 108.773C385.282 107.939 384.884 106.886 384.892 105.614C384.884 104.538 385.176 103.606 385.767 102.818C386.366 102.023 387.195 101.409 388.256 100.977C389.324 100.538 390.555 100.318 391.949 100.318C393.994 100.318 395.604 100.754 396.778 101.625C397.96 102.496 398.691 103.674 398.972 105.159Z" fill="white"/>
<path d="M67.233 159V148.818H70.6733C71.4688 148.818 72.1217 148.954 72.6321 149.226C73.1425 149.494 73.5204 149.864 73.7656 150.335C74.0109 150.805 74.1335 151.34 74.1335 151.94C74.1335 152.54 74.0109 153.072 73.7656 153.536C73.5204 154 73.1442 154.365 72.6371 154.63C72.13 154.892 71.482 155.023 70.6932 155.023H67.9091V153.909H70.6534C71.197 153.909 71.6345 153.83 71.9659 153.67C72.3007 153.511 72.5426 153.286 72.6918 152.994C72.8442 152.699 72.9205 152.348 72.9205 151.94C72.9205 151.533 72.8442 151.176 72.6918 150.871C72.5393 150.567 72.2957 150.331 71.9609 150.165C71.6262 149.996 71.1837 149.912 70.6335 149.912H68.4659V159H67.233ZM72.0256 154.426L74.5312 159H73.0994L70.6335 154.426H72.0256ZM79.1486 159.159C78.4128 159.159 77.7781 158.997 77.2445 158.672C76.7142 158.344 76.3049 157.886 76.0165 157.3C75.7315 156.71 75.589 156.024 75.589 155.241C75.589 154.459 75.7315 153.77 76.0165 153.173C76.3049 152.573 76.7059 152.106 77.2196 151.771C77.7367 151.433 78.3399 151.264 79.0293 151.264C79.427 151.264 79.8198 151.33 80.2076 151.463C80.5953 151.596 80.9483 151.811 81.2665 152.109C81.5847 152.404 81.8382 152.795 82.0272 153.283C82.2161 153.77 82.3105 154.37 82.3105 155.082V155.58H76.4242V154.565H81.1174C81.1174 154.134 81.0312 153.75 80.8588 153.412C80.6898 153.074 80.4479 152.807 80.133 152.612C79.8214 152.416 79.4535 152.318 79.0293 152.318C78.562 152.318 78.1576 152.434 77.8162 152.666C77.4782 152.895 77.218 153.193 77.0357 153.561C76.8534 153.929 76.7623 154.323 76.7623 154.744V155.42C76.7623 155.997 76.8617 156.486 77.0605 156.887C77.2627 157.285 77.5428 157.588 77.9007 157.797C78.2587 158.002 78.6747 158.105 79.1486 158.105C79.4569 158.105 79.7353 158.062 79.9838 157.976C80.2357 157.886 80.4528 157.754 80.6351 157.578C80.8174 157.399 80.9583 157.177 81.0577 156.912L82.1912 157.23C82.0719 157.615 81.8714 157.953 81.5897 158.244C81.3079 158.533 80.9599 158.758 80.5456 158.92C80.1313 159.08 79.6657 159.159 79.1486 159.159ZM89.5044 153.074L88.4505 153.372C88.3842 153.196 88.2864 153.026 88.1571 152.86C88.0312 152.691 87.8588 152.552 87.6401 152.442C87.4213 152.333 87.1413 152.278 86.7999 152.278C86.3326 152.278 85.9431 152.386 85.6316 152.602C85.3233 152.814 85.1692 153.084 85.1692 153.412C85.1692 153.704 85.2753 153.934 85.4874 154.103C85.6995 154.272 86.031 154.413 86.4817 154.526L87.6152 154.804C88.298 154.97 88.8068 155.223 89.1415 155.565C89.4763 155.903 89.6436 156.339 89.6436 156.872C89.6436 157.31 89.5177 157.701 89.2658 158.045C89.0172 158.39 88.6692 158.662 88.2218 158.861C87.7743 159.06 87.254 159.159 86.6607 159.159C85.8818 159.159 85.2372 158.99 84.7267 158.652C84.2163 158.314 83.8932 157.82 83.7573 157.17L84.8709 156.892C84.977 157.303 85.1775 157.611 85.4725 157.817C85.7708 158.022 86.1602 158.125 86.6408 158.125C87.1877 158.125 87.6219 158.009 87.9434 157.777C88.2682 157.542 88.4306 157.26 88.4306 156.932C88.4306 156.667 88.3378 156.445 88.1522 156.266C87.9666 156.083 87.6815 155.947 87.2971 155.858L86.0243 155.56C85.325 155.394 84.8113 155.137 84.4831 154.789C84.1583 154.438 83.9959 153.999 83.9959 153.472C83.9959 153.041 84.1169 152.66 84.3588 152.328C84.6041 151.997 84.9372 151.737 85.3581 151.548C85.7824 151.359 86.263 151.264 86.7999 151.264C87.5556 151.264 88.1489 151.43 88.5797 151.761C89.0139 152.093 89.3221 152.53 89.5044 153.074ZM94.6115 159.159C93.8757 159.159 93.241 158.997 92.7074 158.672C92.1771 158.344 91.7678 157.886 91.4794 157.3C91.1944 156.71 91.0518 156.024 91.0518 155.241C91.0518 154.459 91.1944 153.77 91.4794 153.173C91.7678 152.573 92.1688 152.106 92.6825 151.771C93.1996 151.433 93.8028 151.264 94.4922 151.264C94.8899 151.264 95.2827 151.33 95.6705 151.463C96.0582 151.596 96.4112 151.811 96.7294 152.109C97.0476 152.404 97.3011 152.795 97.4901 153.283C97.679 153.77 97.7734 154.37 97.7734 155.082V155.58H91.8871V154.565H96.5803C96.5803 154.134 96.4941 153.75 96.3217 153.412C96.1527 153.074 95.9107 152.807 95.5959 152.612C95.2843 152.416 94.9164 152.318 94.4922 152.318C94.0249 152.318 93.6205 152.434 93.2791 152.666C92.9411 152.895 92.6809 153.193 92.4986 153.561C92.3163 153.929 92.2251 154.323 92.2251 154.744V155.42C92.2251 155.997 92.3246 156.486 92.5234 156.887C92.7256 157.285 93.0057 157.588 93.3636 157.797C93.7216 158.002 94.1375 158.105 94.6115 158.105C94.9197 158.105 95.1982 158.062 95.4467 157.976C95.6986 157.886 95.9157 157.754 96.098 157.578C96.2803 157.399 96.4212 157.177 96.5206 156.912L97.6541 157.23C97.5348 157.615 97.3343 157.953 97.0526 158.244C96.7708 158.533 96.4228 158.758 96.0085 158.92C95.5942 159.08 95.1286 159.159 94.6115 159.159ZM101.805 159.179C101.321 159.179 100.882 159.088 100.488 158.906C100.094 158.72 99.7803 158.453 99.5483 158.105C99.3163 157.754 99.2003 157.33 99.2003 156.832C99.2003 156.395 99.2865 156.04 99.4588 155.768C99.6312 155.493 99.8615 155.278 100.15 155.122C100.438 154.966 100.756 154.85 101.104 154.774C101.456 154.695 101.809 154.632 102.163 154.585C102.627 154.526 103.004 154.481 103.292 154.451C103.584 154.418 103.796 154.363 103.928 154.287C104.064 154.211 104.132 154.078 104.132 153.889V153.849C104.132 153.359 103.998 152.978 103.729 152.706C103.464 152.434 103.062 152.298 102.521 152.298C101.961 152.298 101.522 152.421 101.204 152.666C100.886 152.911 100.662 153.173 100.533 153.452L99.419 153.054C99.6179 152.59 99.883 152.229 100.214 151.97C100.549 151.708 100.914 151.526 101.308 151.423C101.706 151.317 102.097 151.264 102.482 151.264C102.727 151.264 103.009 151.294 103.327 151.354C103.648 151.41 103.958 151.528 104.256 151.707C104.558 151.886 104.808 152.156 105.007 152.517C105.206 152.878 105.305 153.362 105.305 153.969V159H104.132V157.966H104.072C103.993 158.132 103.86 158.309 103.675 158.498C103.489 158.687 103.242 158.848 102.934 158.98C102.626 159.113 102.25 159.179 101.805 159.179ZM101.984 158.125C102.448 158.125 102.839 158.034 103.158 157.852C103.479 157.669 103.721 157.434 103.884 157.146C104.049 156.857 104.132 156.554 104.132 156.236V155.162C104.082 155.222 103.973 155.276 103.804 155.326C103.638 155.372 103.446 155.414 103.227 155.45C103.012 155.483 102.801 155.513 102.596 155.54C102.394 155.563 102.23 155.583 102.104 155.599C101.799 155.639 101.514 155.704 101.249 155.793C100.987 155.879 100.775 156.01 100.612 156.186C100.453 156.358 100.374 156.594 100.374 156.892C100.374 157.3 100.524 157.608 100.826 157.817C101.131 158.022 101.517 158.125 101.984 158.125ZM107.447 159V151.364H108.58V152.517H108.66C108.799 152.139 109.051 151.833 109.416 151.597C109.78 151.362 110.191 151.244 110.649 151.244C110.735 151.244 110.843 151.246 110.972 151.249C111.101 151.253 111.199 151.258 111.265 151.264V152.457C111.225 152.447 111.134 152.433 110.992 152.413C110.852 152.389 110.705 152.378 110.549 152.378C110.178 152.378 109.847 152.456 109.555 152.612C109.267 152.764 109.038 152.976 108.869 153.248C108.703 153.516 108.62 153.823 108.62 154.168V159H107.447ZM115.526 159.159C114.81 159.159 114.193 158.99 113.676 158.652C113.159 158.314 112.762 157.848 112.483 157.255C112.205 156.662 112.066 155.984 112.066 155.222C112.066 154.446 112.208 153.762 112.493 153.168C112.781 152.572 113.182 152.106 113.696 151.771C114.213 151.433 114.816 151.264 115.506 151.264C116.043 151.264 116.527 151.364 116.958 151.562C117.388 151.761 117.741 152.04 118.017 152.398C118.292 152.756 118.462 153.173 118.529 153.651H117.355C117.266 153.303 117.067 152.994 116.759 152.726C116.454 152.454 116.043 152.318 115.526 152.318C115.068 152.318 114.667 152.437 114.323 152.676C113.981 152.911 113.714 153.245 113.522 153.675C113.333 154.103 113.239 154.605 113.239 155.182C113.239 155.772 113.332 156.286 113.517 156.723C113.706 157.161 113.971 157.5 114.313 157.742C114.657 157.984 115.062 158.105 115.526 158.105C115.831 158.105 116.107 158.052 116.356 157.946C116.605 157.84 116.815 157.688 116.987 157.489C117.16 157.29 117.282 157.051 117.355 156.773H118.529C118.462 157.223 118.298 157.629 118.036 157.991C117.778 158.349 117.435 158.634 117.007 158.846C116.583 159.055 116.089 159.159 115.526 159.159ZM121.417 154.406V159H120.244V148.818H121.417V152.557H121.517C121.695 152.162 121.964 151.849 122.322 151.617C122.683 151.382 123.164 151.264 123.764 151.264C124.284 151.264 124.74 151.369 125.131 151.577C125.522 151.783 125.825 152.099 126.041 152.527C126.259 152.951 126.369 153.491 126.369 154.148V159H125.195V154.227C125.195 153.621 125.038 153.152 124.723 152.82C124.412 152.486 123.979 152.318 123.426 152.318C123.041 152.318 122.696 152.399 122.392 152.562C122.09 152.724 121.851 152.961 121.676 153.273C121.503 153.584 121.417 153.962 121.417 154.406ZM134.7 159.179C134.216 159.179 133.777 159.088 133.382 158.906C132.988 158.72 132.675 158.453 132.443 158.105C132.211 157.754 132.095 157.33 132.095 156.832C132.095 156.395 132.181 156.04 132.353 155.768C132.526 155.493 132.756 155.278 133.044 155.122C133.333 154.966 133.651 154.85 133.999 154.774C134.35 154.695 134.703 154.632 135.058 154.585C135.522 154.526 135.898 154.481 136.186 154.451C136.478 154.418 136.69 154.363 136.823 154.287C136.959 154.211 137.027 154.078 137.027 153.889V153.849C137.027 153.359 136.892 152.978 136.624 152.706C136.359 152.434 135.956 152.298 135.416 152.298C134.856 152.298 134.417 152.421 134.098 152.666C133.78 152.911 133.556 153.173 133.427 153.452L132.314 153.054C132.512 152.59 132.778 152.229 133.109 151.97C133.444 151.708 133.808 151.526 134.203 151.423C134.6 151.317 134.992 151.264 135.376 151.264C135.621 151.264 135.903 151.294 136.221 151.354C136.543 151.41 136.853 151.528 137.151 151.707C137.453 151.886 137.703 152.156 137.902 152.517C138.1 152.878 138.2 153.362 138.2 153.969V159H137.027V157.966H136.967C136.887 158.132 136.755 158.309 136.569 158.498C136.384 158.687 136.137 158.848 135.828 158.98C135.52 159.113 135.144 159.179 134.7 159.179ZM134.879 158.125C135.343 158.125 135.734 158.034 136.052 157.852C136.374 157.669 136.616 157.434 136.778 157.146C136.944 156.857 137.027 156.554 137.027 156.236V155.162C136.977 155.222 136.868 155.276 136.699 155.326C136.533 155.372 136.341 155.414 136.122 155.45C135.906 155.483 135.696 155.513 135.49 155.54C135.288 155.563 135.124 155.583 134.998 155.599C134.693 155.639 134.408 155.704 134.143 155.793C133.881 155.879 133.669 156.01 133.507 156.186C133.348 156.358 133.268 156.594 133.268 156.892C133.268 157.3 133.419 157.608 133.721 157.817C134.025 158.022 134.412 158.125 134.879 158.125ZM140.501 159V148.818H141.674V152.577H141.773C141.859 152.444 141.979 152.275 142.131 152.07C142.287 151.861 142.509 151.675 142.797 151.513C143.089 151.347 143.483 151.264 143.981 151.264C144.624 151.264 145.19 151.425 145.681 151.746C146.171 152.068 146.554 152.524 146.829 153.114C147.104 153.704 147.242 154.4 147.242 155.202C147.242 156.01 147.104 156.711 146.829 157.305C146.554 157.895 146.173 158.352 145.686 158.677C145.199 158.998 144.637 159.159 144.001 159.159C143.51 159.159 143.117 159.078 142.822 158.915C142.527 158.75 142.3 158.562 142.141 158.354C141.982 158.142 141.859 157.966 141.773 157.827H141.634V159H140.501ZM141.654 155.182C141.654 155.759 141.738 156.267 141.907 156.708C142.077 157.146 142.323 157.489 142.648 157.737C142.973 157.982 143.371 158.105 143.841 158.105C144.332 158.105 144.741 157.976 145.069 157.717C145.401 157.455 145.649 157.104 145.815 156.663C145.984 156.219 146.069 155.725 146.069 155.182C146.069 154.645 145.986 154.161 145.82 153.73C145.658 153.296 145.411 152.953 145.079 152.701C144.751 152.446 144.339 152.318 143.841 152.318C143.364 152.318 142.963 152.439 142.638 152.681C142.314 152.92 142.068 153.254 141.903 153.685C141.737 154.113 141.654 154.612 141.654 155.182ZM152.139 159.159C151.45 159.159 150.845 158.995 150.324 158.667C149.807 158.339 149.403 157.88 149.111 157.29C148.823 156.7 148.679 156.01 148.679 155.222C148.679 154.426 148.823 153.732 149.111 153.138C149.403 152.545 149.807 152.085 150.324 151.756C150.845 151.428 151.45 151.264 152.139 151.264C152.828 151.264 153.432 151.428 153.949 151.756C154.469 152.085 154.873 152.545 155.162 153.138C155.453 153.732 155.599 154.426 155.599 155.222C155.599 156.01 155.453 156.7 155.162 157.29C154.873 157.88 154.469 158.339 153.949 158.667C153.432 158.995 152.828 159.159 152.139 159.159ZM152.139 158.105C152.663 158.105 153.094 157.971 153.432 157.702C153.77 157.434 154.02 157.081 154.182 156.643C154.345 156.206 154.426 155.732 154.426 155.222C154.426 154.711 154.345 154.236 154.182 153.795C154.02 153.354 153.77 152.998 153.432 152.726C153.094 152.454 152.663 152.318 152.139 152.318C151.615 152.318 151.184 152.454 150.846 152.726C150.508 152.998 150.258 153.354 150.096 153.795C149.933 154.236 149.852 154.711 149.852 155.222C149.852 155.732 149.933 156.206 150.096 156.643C150.258 157.081 150.508 157.434 150.846 157.702C151.184 157.971 151.615 158.105 152.139 158.105ZM162.203 155.878V151.364H163.376V159H162.203V157.707H162.123C161.944 158.095 161.666 158.425 161.288 158.697C160.91 158.965 160.433 159.099 159.856 159.099C159.379 159.099 158.955 158.995 158.583 158.786C158.212 158.574 157.921 158.256 157.708 157.832C157.496 157.404 157.39 156.866 157.39 156.216V151.364H158.564V156.136C158.564 156.693 158.719 157.137 159.031 157.469C159.346 157.8 159.747 157.966 160.234 157.966C160.526 157.966 160.822 157.891 161.124 157.742C161.429 157.593 161.684 157.364 161.89 157.056C162.098 156.748 162.203 156.355 162.203 155.878ZM168.846 151.364V152.358H164.889V151.364H168.846ZM166.042 149.534H167.215V156.812C167.215 157.144 167.263 157.393 167.36 157.558C167.459 157.721 167.585 157.83 167.737 157.886C167.893 157.939 168.057 157.966 168.23 157.966C168.359 157.966 168.465 157.959 168.548 157.946C168.631 157.929 168.697 157.916 168.747 157.906L168.985 158.96C168.906 158.99 168.795 159.02 168.652 159.05C168.51 159.083 168.329 159.099 168.11 159.099C167.779 159.099 167.454 159.028 167.136 158.886C166.821 158.743 166.559 158.526 166.35 158.234C166.145 157.943 166.042 157.575 166.042 157.131V149.534ZM174.548 161.864V151.364H175.682V152.577H175.821C175.907 152.444 176.027 152.275 176.179 152.07C176.335 151.861 176.557 151.675 176.845 151.513C177.137 151.347 177.531 151.264 178.029 151.264C178.672 151.264 179.238 151.425 179.729 151.746C180.219 152.068 180.602 152.524 180.877 153.114C181.152 153.704 181.29 154.4 181.29 155.202C181.29 156.01 181.152 156.711 180.877 157.305C180.602 157.895 180.221 158.352 179.734 158.677C179.247 158.998 178.685 159.159 178.048 159.159C177.558 159.159 177.165 159.078 176.87 158.915C176.575 158.75 176.348 158.562 176.189 158.354C176.03 158.142 175.907 157.966 175.821 157.827H175.722V161.864H174.548ZM175.702 155.182C175.702 155.759 175.786 156.267 175.955 156.708C176.124 157.146 176.371 157.489 176.696 157.737C177.021 157.982 177.419 158.105 177.889 158.105C178.38 158.105 178.789 157.976 179.117 157.717C179.449 157.455 179.697 157.104 179.863 156.663C180.032 156.219 180.117 155.725 180.117 155.182C180.117 154.645 180.034 154.161 179.868 153.73C179.706 153.296 179.459 152.953 179.127 152.701C178.799 152.446 178.387 152.318 177.889 152.318C177.412 152.318 177.011 152.439 176.686 152.681C176.361 152.92 176.116 153.254 175.95 153.685C175.785 154.113 175.702 154.612 175.702 155.182ZM183.08 159V151.364H184.213V152.517H184.293C184.432 152.139 184.684 151.833 185.048 151.597C185.413 151.362 185.824 151.244 186.281 151.244C186.368 151.244 186.475 151.246 186.605 151.249C186.734 151.253 186.832 151.258 186.898 151.264V152.457C186.858 152.447 186.767 152.433 186.624 152.413C186.485 152.389 186.338 152.378 186.182 152.378C185.811 152.378 185.479 152.456 185.188 152.612C184.899 152.764 184.671 152.976 184.502 153.248C184.336 153.516 184.253 153.823 184.253 154.168V159H183.08ZM191.159 159.159C190.469 159.159 189.864 158.995 189.344 158.667C188.827 158.339 188.423 157.88 188.131 157.29C187.843 156.7 187.698 156.01 187.698 155.222C187.698 154.426 187.843 153.732 188.131 153.138C188.423 152.545 188.827 152.085 189.344 151.756C189.864 151.428 190.469 151.264 191.159 151.264C191.848 151.264 192.451 151.428 192.968 151.756C193.489 152.085 193.893 152.545 194.181 153.138C194.473 153.732 194.619 154.426 194.619 155.222C194.619 156.01 194.473 156.7 194.181 157.29C193.893 157.88 193.489 158.339 192.968 158.667C192.451 158.995 191.848 159.159 191.159 159.159ZM191.159 158.105C191.682 158.105 192.113 157.971 192.451 157.702C192.789 157.434 193.039 157.081 193.202 156.643C193.364 156.206 193.445 155.732 193.445 155.222C193.445 154.711 193.364 154.236 193.202 153.795C193.039 153.354 192.789 152.998 192.451 152.726C192.113 152.454 191.682 152.318 191.159 152.318C190.635 152.318 190.204 152.454 189.866 152.726C189.528 152.998 189.278 153.354 189.115 153.795C188.953 154.236 188.872 154.711 188.872 155.222C188.872 155.732 188.953 156.206 189.115 156.643C189.278 157.081 189.528 157.434 189.866 157.702C190.204 157.971 190.635 158.105 191.159 158.105ZM201.819 153.074L200.765 153.372C200.699 153.196 200.601 153.026 200.472 152.86C200.346 152.691 200.173 152.552 199.955 152.442C199.736 152.333 199.456 152.278 199.114 152.278C198.647 152.278 198.258 152.386 197.946 152.602C197.638 152.814 197.484 153.084 197.484 153.412C197.484 153.704 197.59 153.934 197.802 154.103C198.014 154.272 198.345 154.413 198.796 154.526L199.93 154.804C200.612 154.97 201.121 155.223 201.456 155.565C201.791 155.903 201.958 156.339 201.958 156.872C201.958 157.31 201.832 157.701 201.58 158.045C201.332 158.39 200.984 158.662 200.536 158.861C200.089 159.06 199.568 159.159 198.975 159.159C198.196 159.159 197.552 158.99 197.041 158.652C196.531 158.314 196.208 157.82 196.072 157.17L197.185 156.892C197.291 157.303 197.492 157.611 197.787 157.817C198.085 158.022 198.475 158.125 198.955 158.125C199.502 158.125 199.936 158.009 200.258 157.777C200.583 157.542 200.745 157.26 200.745 156.932C200.745 156.667 200.652 156.445 200.467 156.266C200.281 156.083 199.996 155.947 199.612 155.858L198.339 155.56C197.639 155.394 197.126 155.137 196.798 154.789C196.473 154.438 196.31 153.999 196.31 153.472C196.31 153.041 196.431 152.66 196.673 152.328C196.919 151.997 197.252 151.737 197.673 151.548C198.097 151.359 198.577 151.264 199.114 151.264C199.87 151.264 200.463 151.43 200.894 151.761C201.328 152.093 201.637 152.53 201.819 153.074ZM203.724 161.864V151.364H204.858V152.577H204.997C205.083 152.444 205.202 152.275 205.355 152.07C205.511 151.861 205.733 151.675 206.021 151.513C206.313 151.347 206.707 151.264 207.204 151.264C207.847 151.264 208.414 151.425 208.905 151.746C209.395 152.068 209.778 152.524 210.053 153.114C210.328 153.704 210.466 154.4 210.466 155.202C210.466 156.01 210.328 156.711 210.053 157.305C209.778 157.895 209.397 158.352 208.91 158.677C208.422 158.998 207.861 159.159 207.224 159.159C206.734 159.159 206.341 159.078 206.046 158.915C205.751 158.75 205.524 158.562 205.365 158.354C205.206 158.142 205.083 157.966 204.997 157.827H204.898V161.864H203.724ZM204.878 155.182C204.878 155.759 204.962 156.267 205.131 156.708C205.3 157.146 205.547 157.489 205.872 157.737C206.197 157.982 206.595 158.105 207.065 158.105C207.556 158.105 207.965 157.976 208.293 157.717C208.625 157.455 208.873 157.104 209.039 156.663C209.208 156.219 209.292 155.725 209.292 155.182C209.292 154.645 209.21 154.161 209.044 153.73C208.881 153.296 208.635 152.953 208.303 152.701C207.975 152.446 207.562 152.318 207.065 152.318C206.588 152.318 206.187 152.439 205.862 152.681C205.537 152.92 205.292 153.254 205.126 153.685C204.961 154.113 204.878 154.612 204.878 155.182ZM215.457 159.159C214.721 159.159 214.087 158.997 213.553 158.672C213.023 158.344 212.613 157.886 212.325 157.3C212.04 156.71 211.898 156.024 211.898 155.241C211.898 154.459 212.04 153.77 212.325 153.173C212.613 152.573 213.015 152.106 213.528 151.771C214.045 151.433 214.648 151.264 215.338 151.264C215.736 151.264 216.128 151.33 216.516 151.463C216.904 151.596 217.257 151.811 217.575 152.109C217.893 152.404 218.147 152.795 218.336 153.283C218.525 153.77 218.619 154.37 218.619 155.082V155.58H212.733V154.565H217.426C217.426 154.134 217.34 153.75 217.167 153.412C216.998 153.074 216.756 152.807 216.442 152.612C216.13 152.416 215.762 152.318 215.338 152.318C214.871 152.318 214.466 152.434 214.125 152.666C213.787 152.895 213.527 153.193 213.344 153.561C213.162 153.929 213.071 154.323 213.071 154.744V155.42C213.071 155.997 213.17 156.486 213.369 156.887C213.571 157.285 213.851 157.588 214.209 157.797C214.567 158.002 214.983 158.105 215.457 158.105C215.765 158.105 216.044 158.062 216.292 157.976C216.544 157.886 216.761 157.754 216.944 157.578C217.126 157.399 217.267 157.177 217.366 156.912L218.5 157.23C218.381 157.615 218.18 157.953 217.898 158.244C217.617 158.533 217.269 158.758 216.854 158.92C216.44 159.08 215.974 159.159 215.457 159.159ZM223.506 159.159C222.79 159.159 222.174 158.99 221.657 158.652C221.14 158.314 220.742 157.848 220.464 157.255C220.185 156.662 220.046 155.984 220.046 155.222C220.046 154.446 220.189 153.762 220.474 153.168C220.762 152.572 221.163 152.106 221.677 151.771C222.194 151.433 222.797 151.264 223.486 151.264C224.023 151.264 224.507 151.364 224.938 151.562C225.369 151.761 225.722 152.04 225.997 152.398C226.272 152.756 226.443 153.173 226.509 153.651H225.336C225.246 153.303 225.047 152.994 224.739 152.726C224.434 152.454 224.023 152.318 223.506 152.318C223.049 152.318 222.648 152.437 222.303 152.676C221.962 152.911 221.695 153.245 221.503 153.675C221.314 154.103 221.219 154.605 221.219 155.182C221.219 155.772 221.312 156.286 221.498 156.723C221.687 157.161 221.952 157.5 222.293 157.742C222.638 157.984 223.042 158.105 223.506 158.105C223.811 158.105 224.088 158.052 224.336 157.946C224.585 157.84 224.796 157.688 224.968 157.489C225.14 157.29 225.263 157.051 225.336 156.773H226.509C226.443 157.223 226.279 157.629 226.017 157.991C225.758 158.349 225.415 158.634 224.988 158.846C224.564 159.055 224.07 159.159 223.506 159.159ZM231.545 151.364V152.358H227.588V151.364H231.545ZM228.741 149.534H229.915V156.812C229.915 157.144 229.963 157.393 230.059 157.558C230.158 157.721 230.284 157.83 230.437 157.886C230.592 157.939 230.756 157.966 230.929 157.966C231.058 157.966 231.164 157.959 231.247 157.946C231.33 157.929 231.396 157.916 231.446 157.906L231.684 158.96C231.605 158.99 231.494 159.02 231.351 159.05C231.209 159.083 231.028 159.099 230.809 159.099C230.478 159.099 230.153 159.028 229.835 158.886C229.52 158.743 229.258 158.526 229.05 158.234C228.844 157.943 228.741 157.575 228.741 157.131V149.534ZM235.06 157.608L234.981 158.145C234.924 158.523 234.838 158.927 234.722 159.358C234.609 159.789 234.492 160.195 234.369 160.576C234.247 160.957 234.145 161.26 234.066 161.486H233.171C233.214 161.274 233.27 160.994 233.34 160.646C233.41 160.298 233.479 159.908 233.549 159.477C233.622 159.05 233.681 158.612 233.728 158.165L233.787 157.608H235.06ZM241.331 159V148.818H242.504V152.577H242.603C242.69 152.444 242.809 152.275 242.961 152.07C243.117 151.861 243.339 151.675 243.627 151.513C243.919 151.347 244.314 151.264 244.811 151.264C245.454 151.264 246.02 151.425 246.511 151.746C247.002 152.068 247.384 152.524 247.659 153.114C247.935 153.704 248.072 154.4 248.072 155.202C248.072 156.01 247.935 156.711 247.659 157.305C247.384 157.895 247.003 158.352 246.516 158.677C246.029 158.998 245.467 159.159 244.831 159.159C244.34 159.159 243.947 159.078 243.652 158.915C243.357 158.75 243.13 158.562 242.971 158.354C242.812 158.142 242.69 157.966 242.603 157.827H242.464V159H241.331ZM242.484 155.182C242.484 155.759 242.569 156.267 242.738 156.708C242.907 157.146 243.154 157.489 243.478 157.737C243.803 157.982 244.201 158.105 244.672 158.105C245.162 158.105 245.571 157.976 245.9 157.717C246.231 157.455 246.48 157.104 246.645 156.663C246.814 156.219 246.899 155.725 246.899 155.182C246.899 154.645 246.816 154.161 246.65 153.73C246.488 153.296 246.241 152.953 245.909 152.701C245.581 152.446 245.169 152.318 244.672 152.318C244.194 152.318 243.793 152.439 243.468 152.681C243.144 152.92 242.898 153.254 242.733 153.685C242.567 154.113 242.484 154.612 242.484 155.182ZM251.04 148.818V159H249.867V148.818H251.04ZM256.291 159.159C255.602 159.159 254.997 158.995 254.477 158.667C253.96 158.339 253.555 157.88 253.264 157.29C252.975 156.7 252.831 156.01 252.831 155.222C252.831 154.426 252.975 153.732 253.264 153.138C253.555 152.545 253.96 152.085 254.477 151.756C254.997 151.428 255.602 151.264 256.291 151.264C256.981 151.264 257.584 151.428 258.101 151.756C258.621 152.085 259.026 152.545 259.314 153.138C259.606 153.732 259.752 154.426 259.752 155.222C259.752 156.01 259.606 156.7 259.314 157.29C259.026 157.88 258.621 158.339 258.101 158.667C257.584 158.995 256.981 159.159 256.291 159.159ZM256.291 158.105C256.815 158.105 257.246 157.971 257.584 157.702C257.922 157.434 258.172 157.081 258.335 156.643C258.497 156.206 258.578 155.732 258.578 155.222C258.578 154.711 258.497 154.236 258.335 153.795C258.172 153.354 257.922 152.998 257.584 152.726C257.246 152.454 256.815 152.318 256.291 152.318C255.768 152.318 255.337 152.454 254.999 152.726C254.661 152.998 254.41 153.354 254.248 153.795C254.086 154.236 254.004 154.711 254.004 155.222C254.004 155.732 254.086 156.206 254.248 156.643C254.41 157.081 254.661 157.434 254.999 157.702C255.337 157.971 255.768 158.105 256.291 158.105ZM264.625 162.023C264.058 162.023 263.571 161.95 263.163 161.804C262.756 161.661 262.416 161.473 262.144 161.237C261.876 161.005 261.662 160.757 261.503 160.491L262.438 159.835C262.544 159.974 262.678 160.134 262.84 160.312C263.003 160.495 263.225 160.652 263.506 160.785C263.791 160.921 264.164 160.989 264.625 160.989C265.241 160.989 265.75 160.839 266.151 160.541C266.552 160.243 266.753 159.776 266.753 159.139V157.588H266.653C266.567 157.727 266.445 157.9 266.286 158.105C266.13 158.307 265.904 158.488 265.609 158.647C265.318 158.803 264.923 158.881 264.426 158.881C263.81 158.881 263.256 158.735 262.766 158.443C262.278 158.152 261.892 157.727 261.607 157.17C261.326 156.614 261.185 155.937 261.185 155.142C261.185 154.36 261.322 153.679 261.597 153.099C261.872 152.515 262.255 152.065 262.746 151.746C263.236 151.425 263.803 151.264 264.446 151.264C264.943 151.264 265.338 151.347 265.629 151.513C265.924 151.675 266.15 151.861 266.305 152.07C266.464 152.275 266.587 152.444 266.673 152.577H266.793V151.364H267.926V159.219C267.926 159.875 267.777 160.409 267.479 160.82C267.184 161.234 266.786 161.537 266.286 161.729C265.788 161.925 265.235 162.023 264.625 162.023ZM264.585 157.827C265.056 157.827 265.454 157.719 265.778 157.504C266.103 157.288 266.35 156.978 266.519 156.574C266.688 156.17 266.773 155.686 266.773 155.122C266.773 154.572 266.69 154.086 266.524 153.665C266.358 153.245 266.113 152.915 265.788 152.676C265.464 152.437 265.063 152.318 264.585 152.318C264.088 152.318 263.674 152.444 263.342 152.696C263.014 152.948 262.767 153.286 262.602 153.71C262.439 154.134 262.358 154.605 262.358 155.122C262.358 155.652 262.441 156.121 262.607 156.529C262.776 156.933 263.024 157.252 263.352 157.484C263.684 157.712 264.095 157.827 264.585 157.827ZM275.483 153.074L274.429 153.372C274.363 153.196 274.265 153.026 274.136 152.86C274.01 152.691 273.837 152.552 273.619 152.442C273.4 152.333 273.12 152.278 272.778 152.278C272.311 152.278 271.922 152.386 271.61 152.602C271.302 152.814 271.148 153.084 271.148 153.412C271.148 153.704 271.254 153.934 271.466 154.103C271.678 154.272 272.009 154.413 272.46 154.526L273.594 154.804C274.277 154.97 274.785 155.223 275.12 155.565C275.455 155.903 275.622 156.339 275.622 156.872C275.622 157.31 275.496 157.701 275.244 158.045C274.996 158.39 274.648 158.662 274.2 158.861C273.753 159.06 273.232 159.159 272.639 159.159C271.86 159.159 271.216 158.99 270.705 158.652C270.195 158.314 269.872 157.82 269.736 157.17L270.849 156.892C270.955 157.303 271.156 157.611 271.451 157.817C271.749 158.022 272.139 158.125 272.619 158.125C273.166 158.125 273.6 158.009 273.922 157.777C274.247 157.542 274.409 157.26 274.409 156.932C274.409 156.667 274.316 156.445 274.131 156.266C273.945 156.083 273.66 155.947 273.276 155.858L272.003 155.56C271.304 155.394 270.79 155.137 270.462 154.789C270.137 154.438 269.974 153.999 269.974 153.472C269.974 153.041 270.095 152.66 270.337 152.328C270.583 151.997 270.916 151.737 271.337 151.548C271.761 151.359 272.241 151.264 272.778 151.264C273.534 151.264 274.127 151.43 274.558 151.761C274.992 152.093 275.301 152.53 275.483 153.074ZM279.138 157.608L279.059 158.145C279.002 158.523 278.916 158.927 278.8 159.358C278.688 159.789 278.57 160.195 278.447 160.576C278.325 160.957 278.224 161.26 278.144 161.486H277.249C277.292 161.274 277.349 160.994 277.418 160.646C277.488 160.298 277.557 159.908 277.627 159.477C277.7 159.05 277.76 158.612 277.806 158.165L277.866 157.608H279.138ZM285.409 159V148.818H286.642V157.906H291.375V159H285.409ZM293.125 159V151.364H294.298V159H293.125ZM293.721 150.091C293.493 150.091 293.295 150.013 293.13 149.857C292.967 149.701 292.886 149.514 292.886 149.295C292.886 149.077 292.967 148.889 293.13 148.734C293.295 148.578 293.493 148.5 293.721 148.5C293.95 148.5 294.145 148.578 294.308 148.734C294.474 148.889 294.556 149.077 294.556 149.295C294.556 149.514 294.474 149.701 294.308 149.857C294.145 150.013 293.95 150.091 293.721 150.091ZM297.62 154.406V159H296.447V151.364H297.58V152.557H297.68C297.859 152.169 298.131 151.857 298.495 151.622C298.86 151.384 299.33 151.264 299.907 151.264C300.424 151.264 300.877 151.37 301.264 151.582C301.652 151.791 301.954 152.109 302.169 152.537C302.385 152.961 302.492 153.498 302.492 154.148V159H301.319V154.227C301.319 153.627 301.163 153.16 300.852 152.825C300.54 152.487 300.113 152.318 299.569 152.318C299.195 152.318 298.86 152.399 298.565 152.562C298.273 152.724 298.043 152.961 297.874 153.273C297.705 153.584 297.62 153.962 297.62 154.406ZM305.73 156.216L305.71 154.764H305.949L309.29 151.364H310.741L307.182 154.963H307.082L305.73 156.216ZM304.636 159V148.818H305.81V159H304.636ZM309.489 159L306.506 155.222L307.341 154.406L310.98 159H309.489ZM315.139 159.159C314.403 159.159 313.768 158.997 313.235 158.672C312.704 158.344 312.295 157.886 312.007 157.3C311.722 156.71 311.579 156.024 311.579 155.241C311.579 154.459 311.722 153.77 312.007 153.173C312.295 152.573 312.696 152.106 313.21 151.771C313.727 151.433 314.33 151.264 315.02 151.264C315.417 151.264 315.81 151.33 316.198 151.463C316.586 151.596 316.939 151.811 317.257 152.109C317.575 152.404 317.828 152.795 318.017 153.283C318.206 153.77 318.301 154.37 318.301 155.082V155.58H312.414V154.565H317.108C317.108 154.134 317.021 153.75 316.849 153.412C316.68 153.074 316.438 152.807 316.123 152.612C315.812 152.416 315.444 152.318 315.02 152.318C314.552 152.318 314.148 152.434 313.806 152.666C313.468 152.895 313.208 153.193 313.026 153.561C312.844 153.929 312.752 154.323 312.752 154.744V155.42C312.752 155.997 312.852 156.486 313.051 156.887C313.253 157.285 313.533 157.588 313.891 157.797C314.249 158.002 314.665 158.105 315.139 158.105C315.447 158.105 315.725 158.062 315.974 157.976C316.226 157.886 316.443 157.754 316.625 157.578C316.808 157.399 316.949 157.177 317.048 156.912L318.181 157.23C318.062 157.615 317.862 157.953 317.58 158.244C317.298 158.533 316.95 158.758 316.536 158.92C316.122 159.08 315.656 159.159 315.139 159.159ZM322.969 159.159C322.333 159.159 321.771 158.998 321.284 158.677C320.797 158.352 320.415 157.895 320.14 157.305C319.865 156.711 319.728 156.01 319.728 155.202C319.728 154.4 319.865 153.704 320.14 153.114C320.415 152.524 320.798 152.068 321.289 151.746C321.779 151.425 322.346 151.264 322.989 151.264C323.486 151.264 323.879 151.347 324.167 151.513C324.459 151.675 324.681 151.861 324.833 152.07C324.989 152.275 325.11 152.444 325.196 152.577H325.296V148.818H326.469V159H325.336V157.827H325.196C325.11 157.966 324.988 158.142 324.828 158.354C324.669 158.562 324.442 158.75 324.147 158.915C323.852 159.078 323.46 159.159 322.969 159.159ZM323.128 158.105C323.599 158.105 323.997 157.982 324.321 157.737C324.646 157.489 324.893 157.146 325.062 156.708C325.231 156.267 325.316 155.759 325.316 155.182C325.316 154.612 325.233 154.113 325.067 153.685C324.901 153.254 324.656 152.92 324.331 152.681C324.007 152.439 323.605 152.318 323.128 152.318C322.631 152.318 322.217 152.446 321.885 152.701C321.557 152.953 321.31 153.296 321.145 153.73C320.982 154.161 320.901 154.645 320.901 155.182C320.901 155.725 320.984 156.219 321.15 156.663C321.319 157.104 321.567 157.455 321.895 157.717C322.227 157.976 322.638 158.105 323.128 158.105ZM330.173 148.818V159H328.94V148.818H330.173ZM333.659 154.406V159H332.486V151.364H333.619V152.557H333.719C333.898 152.169 334.17 151.857 334.534 151.622C334.899 151.384 335.369 151.264 335.946 151.264C336.463 151.264 336.916 151.37 337.303 151.582C337.691 151.791 337.993 152.109 338.208 152.537C338.424 152.961 338.531 153.498 338.531 154.148V159H337.358V154.227C337.358 153.627 337.202 153.16 336.891 152.825C336.579 152.487 336.152 152.318 335.608 152.318C335.234 152.318 334.899 152.399 334.604 152.562C334.312 152.724 334.082 152.961 333.913 153.273C333.744 153.584 333.659 153.962 333.659 154.406ZM346.86 159.179C346.376 159.179 345.937 159.088 345.543 158.906C345.148 158.72 344.835 158.453 344.603 158.105C344.371 157.754 344.255 157.33 344.255 156.832C344.255 156.395 344.341 156.04 344.513 155.768C344.686 155.493 344.916 155.278 345.205 155.122C345.493 154.966 345.811 154.85 346.159 154.774C346.51 154.695 346.863 154.632 347.218 154.585C347.682 154.526 348.058 154.481 348.347 154.451C348.638 154.418 348.85 154.363 348.983 154.287C349.119 154.211 349.187 154.078 349.187 153.889V153.849C349.187 153.359 349.053 152.978 348.784 152.706C348.519 152.434 348.116 152.298 347.576 152.298C347.016 152.298 346.577 152.421 346.259 152.666C345.94 152.911 345.717 153.173 345.587 153.452L344.474 153.054C344.673 152.59 344.938 152.229 345.269 151.97C345.604 151.708 345.969 151.526 346.363 151.423C346.761 151.317 347.152 151.264 347.536 151.264C347.781 151.264 348.063 151.294 348.381 151.354C348.703 151.41 349.013 151.528 349.311 151.707C349.613 151.886 349.863 152.156 350.062 152.517C350.261 152.878 350.36 153.362 350.36 153.969V159H349.187V157.966H349.127C349.048 158.132 348.915 158.309 348.729 158.498C348.544 158.687 348.297 158.848 347.989 158.98C347.68 159.113 347.304 159.179 346.86 159.179ZM347.039 158.125C347.503 158.125 347.894 158.034 348.212 157.852C348.534 157.669 348.776 157.434 348.938 157.146C349.104 156.857 349.187 156.554 349.187 156.236V155.162C349.137 155.222 349.028 155.276 348.859 155.326C348.693 155.372 348.501 155.414 348.282 155.45C348.067 155.483 347.856 155.513 347.651 155.54C347.448 155.563 347.284 155.583 347.158 155.599C346.853 155.639 346.568 155.704 346.303 155.793C346.041 155.879 345.829 156.01 345.667 156.186C345.508 156.358 345.428 156.594 345.428 156.892C345.428 157.3 345.579 157.608 345.881 157.817C346.186 158.022 346.572 158.125 347.039 158.125ZM353.675 154.406V159H352.502V151.364H353.635V152.557H353.735C353.914 152.169 354.185 151.857 354.55 151.622C354.914 151.384 355.385 151.264 355.962 151.264C356.479 151.264 356.931 151.37 357.319 151.582C357.707 151.791 358.008 152.109 358.224 152.537C358.439 152.961 358.547 153.498 358.547 154.148V159H357.374V154.227C357.374 153.627 357.218 153.16 356.906 152.825C356.595 152.487 356.167 152.318 355.624 152.318C355.249 152.318 354.914 152.399 354.619 152.562C354.328 152.724 354.097 152.961 353.928 153.273C353.759 153.584 353.675 153.962 353.675 154.406ZM363.575 159.159C362.938 159.159 362.376 158.998 361.889 158.677C361.402 158.352 361.021 157.895 360.746 157.305C360.471 156.711 360.333 156.01 360.333 155.202C360.333 154.4 360.471 153.704 360.746 153.114C361.021 152.524 361.404 152.068 361.894 151.746C362.385 151.425 362.951 151.264 363.594 151.264C364.092 151.264 364.484 151.347 364.773 151.513C365.064 151.675 365.286 151.861 365.439 152.07C365.595 152.275 365.716 152.444 365.802 152.577H365.901V148.818H367.075V159H365.941V157.827H365.802C365.716 157.966 365.593 158.142 365.434 158.354C365.275 158.562 365.048 158.75 364.753 158.915C364.458 159.078 364.065 159.159 363.575 159.159ZM363.734 158.105C364.204 158.105 364.602 157.982 364.927 157.737C365.252 157.489 365.499 157.146 365.668 156.708C365.837 156.267 365.921 155.759 365.921 155.182C365.921 154.612 365.838 154.113 365.673 153.685C365.507 153.254 365.262 152.92 364.937 152.681C364.612 152.439 364.211 152.318 363.734 152.318C363.237 152.318 362.822 152.446 362.491 152.701C362.163 152.953 361.916 153.296 361.75 153.73C361.588 154.161 361.506 154.645 361.506 155.182C361.506 155.725 361.589 156.219 361.755 156.663C361.924 157.104 362.173 157.455 362.501 157.717C362.832 157.976 363.243 158.105 363.734 158.105ZM376.426 159.159C375.71 159.159 375.094 158.99 374.577 158.652C374.06 158.314 373.662 157.848 373.384 157.255C373.105 156.662 372.966 155.984 372.966 155.222C372.966 154.446 373.108 153.762 373.393 153.168C373.682 152.572 374.083 152.106 374.597 151.771C375.114 151.433 375.717 151.264 376.406 151.264C376.943 151.264 377.427 151.364 377.858 151.562C378.289 151.761 378.642 152.04 378.917 152.398C379.192 152.756 379.363 153.173 379.429 153.651H378.256C378.166 153.303 377.967 152.994 377.659 152.726C377.354 152.454 376.943 152.318 376.426 152.318C375.969 152.318 375.568 152.437 375.223 152.676C374.882 152.911 374.615 153.245 374.423 153.675C374.234 154.103 374.139 154.605 374.139 155.182C374.139 155.772 374.232 156.286 374.418 156.723C374.607 157.161 374.872 157.5 375.213 157.742C375.558 157.984 375.962 158.105 376.426 158.105C376.731 158.105 377.008 158.052 377.256 157.946C377.505 157.84 377.715 157.688 377.888 157.489C378.06 157.29 378.183 157.051 378.256 156.773H379.429C379.363 157.223 379.199 157.629 378.937 157.991C378.678 158.349 378.335 158.634 377.908 158.846C377.483 159.055 376.99 159.159 376.426 159.159ZM384.246 159.159C383.557 159.159 382.952 158.995 382.432 158.667C381.915 158.339 381.51 157.88 381.219 157.29C380.93 156.7 380.786 156.01 380.786 155.222C380.786 154.426 380.93 153.732 381.219 153.138C381.51 152.545 381.915 152.085 382.432 151.756C382.952 151.428 383.557 151.264 384.246 151.264C384.936 151.264 385.539 151.428 386.056 151.756C386.576 152.085 386.981 152.545 387.269 153.138C387.561 153.732 387.707 154.426 387.707 155.222C387.707 156.01 387.561 156.7 387.269 157.29C386.981 157.88 386.576 158.339 386.056 158.667C385.539 158.995 384.936 159.159 384.246 159.159ZM384.246 158.105C384.77 158.105 385.201 157.971 385.539 157.702C385.877 157.434 386.127 157.081 386.29 156.643C386.452 156.206 386.533 155.732 386.533 155.222C386.533 154.711 386.452 154.236 386.29 153.795C386.127 153.354 385.877 152.998 385.539 152.726C385.201 152.454 384.77 152.318 384.246 152.318C383.723 152.318 383.292 152.454 382.954 152.726C382.616 152.998 382.366 153.354 382.203 153.795C382.041 154.236 381.96 154.711 381.96 155.222C381.96 155.732 382.041 156.206 382.203 156.643C382.366 157.081 382.616 157.434 382.954 157.702C383.292 157.971 383.723 158.105 384.246 158.105ZM389.498 159V151.364H390.631V152.557H390.731C390.89 152.149 391.147 151.833 391.501 151.607C391.856 151.379 392.282 151.264 392.779 151.264C393.283 151.264 393.702 151.379 394.037 151.607C394.375 151.833 394.638 152.149 394.827 152.557H394.907C395.102 152.162 395.396 151.849 395.787 151.617C396.178 151.382 396.647 151.264 397.194 151.264C397.876 151.264 398.435 151.478 398.869 151.906C399.303 152.33 399.52 152.991 399.52 153.889V159H398.347V153.889C398.347 153.326 398.193 152.923 397.885 152.681C397.577 152.439 397.214 152.318 396.796 152.318C396.259 152.318 395.843 152.481 395.548 152.805C395.253 153.127 395.106 153.535 395.106 154.028V159H393.912V153.77C393.912 153.336 393.772 152.986 393.49 152.721C393.208 152.452 392.845 152.318 392.401 152.318C392.096 152.318 391.811 152.399 391.546 152.562C391.284 152.724 391.072 152.95 390.91 153.238C390.751 153.523 390.671 153.853 390.671 154.227V159H389.498ZM401.666 161.864V151.364H402.799V152.577H402.938C403.025 152.444 403.144 152.275 403.296 152.07C403.452 151.861 403.674 151.675 403.963 151.513C404.254 151.347 404.649 151.264 405.146 151.264C405.789 151.264 406.356 151.425 406.846 151.746C407.337 152.068 407.719 152.524 407.994 153.114C408.27 153.704 408.407 154.4 408.407 155.202C408.407 156.01 408.27 156.711 407.994 157.305C407.719 157.895 407.338 158.352 406.851 158.677C406.364 158.998 405.802 159.159 405.166 159.159C404.675 159.159 404.282 159.078 403.987 158.915C403.692 158.75 403.465 158.562 403.306 158.354C403.147 158.142 403.025 157.966 402.938 157.827H402.839V161.864H401.666ZM402.819 155.182C402.819 155.759 402.904 156.267 403.073 156.708C403.242 157.146 403.489 157.489 403.813 157.737C404.138 157.982 404.536 158.105 405.007 158.105C405.497 158.105 405.906 157.976 406.235 157.717C406.566 157.455 406.815 157.104 406.98 156.663C407.149 156.219 407.234 155.725 407.234 155.182C407.234 154.645 407.151 154.161 406.985 153.73C406.823 153.296 406.576 152.953 406.244 152.701C405.916 152.446 405.504 152.318 405.007 152.318C404.529 152.318 404.128 152.439 403.803 152.681C403.479 152.92 403.233 153.254 403.068 153.685C402.902 154.113 402.819 154.612 402.819 155.182ZM412.444 159.179C411.96 159.179 411.521 159.088 411.127 158.906C410.732 158.72 410.419 158.453 410.187 158.105C409.955 157.754 409.839 157.33 409.839 156.832C409.839 156.395 409.925 156.04 410.097 155.768C410.27 155.493 410.5 155.278 410.789 155.122C411.077 154.966 411.395 154.85 411.743 154.774C412.094 154.695 412.447 154.632 412.802 154.585C413.266 154.526 413.642 154.481 413.931 154.451C414.222 154.418 414.434 154.363 414.567 154.287C414.703 154.211 414.771 154.078 414.771 153.889V153.849C414.771 153.359 414.637 152.978 414.368 152.706C414.103 152.434 413.7 152.298 413.16 152.298C412.6 152.298 412.161 152.421 411.843 152.666C411.524 152.911 411.301 153.173 411.171 153.452L410.058 153.054C410.257 152.59 410.522 152.229 410.853 151.97C411.188 151.708 411.552 151.526 411.947 151.423C412.345 151.317 412.736 151.264 413.12 151.264C413.365 151.264 413.647 151.294 413.965 151.354C414.287 151.41 414.597 151.528 414.895 151.707C415.197 151.886 415.447 152.156 415.646 152.517C415.845 152.878 415.944 153.362 415.944 153.969V159H414.771V157.966H414.711C414.632 158.132 414.499 158.309 414.313 158.498C414.128 158.687 413.881 158.848 413.573 158.98C413.264 159.113 412.888 159.179 412.444 159.179ZM412.623 158.125C413.087 158.125 413.478 158.034 413.796 157.852C414.118 157.669 414.36 157.434 414.522 157.146C414.688 156.857 414.771 156.554 414.771 156.236V155.162C414.721 155.222 414.612 155.276 414.443 155.326C414.277 155.372 414.085 155.414 413.866 155.45C413.651 155.483 413.44 155.513 413.235 155.54C413.032 155.563 412.868 155.583 412.742 155.599C412.437 155.639 412.152 155.704 411.887 155.793C411.625 155.879 411.413 156.01 411.251 156.186C411.092 156.358 411.012 156.594 411.012 156.892C411.012 157.3 411.163 157.608 411.465 157.817C411.77 158.022 412.156 158.125 412.623 158.125ZM419.259 154.406V159H418.086V151.364H419.219V152.557H419.319C419.498 152.169 419.769 151.857 420.134 151.622C420.498 151.384 420.969 151.264 421.546 151.264C422.063 151.264 422.515 151.37 422.903 151.582C423.291 151.791 423.592 152.109 423.808 152.537C424.023 152.961 424.131 153.498 424.131 154.148V159H422.958V154.227C422.958 153.627 422.802 153.16 422.49 152.825C422.179 152.487 421.751 152.318 421.208 152.318C420.833 152.318 420.498 152.399 420.203 152.562C419.912 152.724 419.681 152.961 419.512 153.273C419.343 153.584 419.259 153.962 419.259 154.406ZM426.757 161.864C426.558 161.864 426.381 161.847 426.225 161.814C426.07 161.784 425.962 161.754 425.902 161.724L426.2 160.69C426.485 160.763 426.737 160.79 426.956 160.77C427.175 160.75 427.369 160.652 427.538 160.477C427.71 160.304 427.868 160.024 428.01 159.636L428.229 159.04L425.405 151.364H426.678L428.786 157.449H428.865L430.973 151.364H432.246L429.004 160.114C428.859 160.508 428.678 160.835 428.463 161.093C428.247 161.355 427.997 161.549 427.712 161.675C427.43 161.801 427.112 161.864 426.757 161.864ZM67.0739 176V168.364H68.2074V169.517H68.2869C68.4261 169.139 68.678 168.833 69.0426 168.597C69.4072 168.362 69.8182 168.244 70.2756 168.244C70.3617 168.244 70.4695 168.246 70.5987 168.249C70.728 168.253 70.8258 168.258 70.892 168.264V169.457C70.8523 169.447 70.7611 169.433 70.6186 169.413C70.4794 169.389 70.3319 169.378 70.1761 169.378C69.8049 169.378 69.4735 169.456 69.1818 169.612C68.8935 169.764 68.6648 169.976 68.4957 170.248C68.33 170.516 68.2472 170.823 68.2472 171.168V176H67.0739ZM75.2521 176.159C74.5163 176.159 73.8816 175.997 73.348 175.672C72.8177 175.344 72.4084 174.886 72.12 174.3C71.835 173.71 71.6925 173.024 71.6925 172.241C71.6925 171.459 71.835 170.77 72.12 170.173C72.4084 169.573 72.8094 169.106 73.3232 168.771C73.8402 168.433 74.4434 168.264 75.1328 168.264C75.5305 168.264 75.9233 168.33 76.3111 168.463C76.6989 168.596 77.0518 168.811 77.37 169.109C77.6882 169.404 77.9418 169.795 78.1307 170.283C78.3196 170.77 78.4141 171.37 78.4141 172.082V172.58H72.5277V171.565H77.2209C77.2209 171.134 77.1347 170.75 76.9624 170.412C76.7933 170.074 76.5514 169.807 76.2365 169.612C75.925 169.416 75.5571 169.318 75.1328 169.318C74.6655 169.318 74.2611 169.434 73.9197 169.666C73.5817 169.895 73.3215 170.193 73.1392 170.561C72.9569 170.929 72.8658 171.323 72.8658 171.744V172.42C72.8658 172.997 72.9652 173.486 73.1641 173.887C73.3662 174.285 73.6463 174.588 74.0043 174.797C74.3622 175.002 74.7782 175.105 75.2521 175.105C75.5604 175.105 75.8388 175.062 76.0874 174.976C76.3393 174.886 76.5563 174.754 76.7386 174.578C76.9209 174.399 77.0618 174.177 77.1612 173.912L78.2947 174.23C78.1754 174.615 77.9749 174.953 77.6932 175.244C77.4115 175.533 77.0634 175.758 76.6491 175.92C76.2348 176.08 75.7692 176.159 75.2521 176.159ZM83.3011 176.159C82.5852 176.159 81.9688 175.99 81.4517 175.652C80.9347 175.314 80.5369 174.848 80.2585 174.255C79.9801 173.662 79.8409 172.984 79.8409 172.222C79.8409 171.446 79.9834 170.762 80.2685 170.168C80.5568 169.572 80.9579 169.106 81.4716 168.771C81.9886 168.433 82.5919 168.264 83.2812 168.264C83.8182 168.264 84.3021 168.364 84.733 168.562C85.1638 168.761 85.5168 169.04 85.7919 169.398C86.067 169.756 86.2377 170.173 86.304 170.651H85.1307C85.0412 170.303 84.8423 169.994 84.5341 169.726C84.2292 169.454 83.8182 169.318 83.3011 169.318C82.8438 169.318 82.4427 169.437 82.098 169.676C81.7566 169.911 81.4898 170.245 81.2976 170.675C81.1087 171.103 81.0142 171.605 81.0142 172.182C81.0142 172.772 81.107 173.286 81.2926 173.723C81.4815 174.161 81.7467 174.5 82.0881 174.742C82.4328 174.984 82.8371 175.105 83.3011 175.105C83.6061 175.105 83.8828 175.052 84.1314 174.946C84.38 174.84 84.5904 174.688 84.7628 174.489C84.9351 174.29 85.0578 174.051 85.1307 173.773H86.304C86.2377 174.223 86.0736 174.629 85.8118 174.991C85.5533 175.349 85.2102 175.634 84.7827 175.846C84.3584 176.055 83.8646 176.159 83.3011 176.159ZM91.2209 176.159C90.4851 176.159 89.8504 175.997 89.3168 175.672C88.7865 175.344 88.3771 174.886 88.0888 174.3C87.8037 173.71 87.6612 173.024 87.6612 172.241C87.6612 171.459 87.8037 170.77 88.0888 170.173C88.3771 169.573 88.7782 169.106 89.2919 168.771C89.8089 168.433 90.4122 168.264 91.1016 168.264C91.4993 168.264 91.892 168.33 92.2798 168.463C92.6676 168.596 93.0206 168.811 93.3388 169.109C93.657 169.404 93.9105 169.795 94.0994 170.283C94.2884 170.77 94.3828 171.37 94.3828 172.082V172.58H88.4964V171.565H93.1896C93.1896 171.134 93.1035 170.75 92.9311 170.412C92.7621 170.074 92.5201 169.807 92.2053 169.612C91.8937 169.416 91.5258 169.318 91.1016 169.318C90.6342 169.318 90.2299 169.434 89.8885 169.666C89.5504 169.895 89.2902 170.193 89.108 170.561C88.9257 170.929 88.8345 171.323 88.8345 171.744V172.42C88.8345 172.997 88.9339 173.486 89.1328 173.887C89.335 174.285 89.6151 174.588 89.973 174.797C90.331 175.002 90.7469 175.105 91.2209 175.105C91.5291 175.105 91.8075 175.062 92.0561 174.976C92.308 174.886 92.5251 174.754 92.7074 174.578C92.8897 174.399 93.0305 174.177 93.13 173.912L94.2635 174.23C94.1442 174.615 93.9437 174.953 93.6619 175.244C93.3802 175.533 93.0322 175.758 92.6179 175.92C92.2036 176.08 91.7379 176.159 91.2209 176.159ZM97.3409 171.406V176H96.1676V168.364H97.3011V169.557H97.4006C97.5795 169.169 97.8513 168.857 98.2159 168.622C98.5805 168.384 99.0511 168.264 99.6278 168.264C100.145 168.264 100.597 168.37 100.985 168.582C101.373 168.791 101.674 169.109 101.89 169.537C102.105 169.961 102.213 170.498 102.213 171.148V176H101.04V171.227C101.04 170.627 100.884 170.16 100.572 169.825C100.261 169.487 99.8333 169.318 99.2898 169.318C98.9152 169.318 98.5805 169.399 98.2855 169.562C97.9938 169.724 97.7635 169.961 97.5945 170.273C97.4254 170.584 97.3409 170.962 97.3409 171.406ZM107.678 168.364V169.358H103.721V168.364H107.678ZM104.874 166.534H106.047V173.812C106.047 174.144 106.095 174.393 106.192 174.558C106.291 174.721 106.417 174.83 106.569 174.886C106.725 174.939 106.889 174.966 107.062 174.966C107.191 174.966 107.297 174.959 107.38 174.946C107.463 174.929 107.529 174.916 107.579 174.906L107.817 175.96C107.738 175.99 107.627 176.02 107.484 176.05C107.342 176.083 107.161 176.099 106.942 176.099C106.611 176.099 106.286 176.028 105.968 175.886C105.653 175.743 105.391 175.526 105.182 175.234C104.977 174.943 104.874 174.575 104.874 174.131V166.534ZM115.628 176.179C115.144 176.179 114.705 176.088 114.31 175.906C113.916 175.72 113.603 175.453 113.371 175.105C113.139 174.754 113.023 174.33 113.023 173.832C113.023 173.395 113.109 173.04 113.281 172.768C113.453 172.493 113.684 172.278 113.972 172.122C114.26 171.966 114.579 171.85 114.927 171.774C115.278 171.695 115.631 171.632 115.986 171.585C116.45 171.526 116.826 171.481 117.114 171.451C117.406 171.418 117.618 171.363 117.751 171.287C117.886 171.211 117.954 171.078 117.954 170.889V170.849C117.954 170.359 117.82 169.978 117.552 169.706C117.287 169.434 116.884 169.298 116.344 169.298C115.783 169.298 115.344 169.421 115.026 169.666C114.708 169.911 114.484 170.173 114.355 170.452L113.241 170.054C113.44 169.59 113.705 169.229 114.037 168.97C114.372 168.708 114.736 168.526 115.131 168.423C115.528 168.317 115.919 168.264 116.304 168.264C116.549 168.264 116.831 168.294 117.149 168.354C117.47 168.41 117.78 168.528 118.079 168.707C118.38 168.886 118.631 169.156 118.829 169.517C119.028 169.878 119.128 170.362 119.128 170.969V176H117.954V174.966H117.895C117.815 175.132 117.683 175.309 117.497 175.498C117.311 175.687 117.064 175.848 116.756 175.98C116.448 176.113 116.072 176.179 115.628 176.179ZM115.807 175.125C116.271 175.125 116.662 175.034 116.98 174.852C117.301 174.669 117.543 174.434 117.706 174.146C117.872 173.857 117.954 173.554 117.954 173.236V172.162C117.905 172.222 117.795 172.276 117.626 172.326C117.461 172.372 117.268 172.414 117.05 172.45C116.834 172.483 116.624 172.513 116.418 172.54C116.216 172.563 116.052 172.583 115.926 172.599C115.621 172.639 115.336 172.704 115.071 172.793C114.809 172.879 114.597 173.01 114.434 173.186C114.275 173.358 114.196 173.594 114.196 173.892C114.196 174.3 114.347 174.608 114.648 174.817C114.953 175.022 115.339 175.125 115.807 175.125ZM124.371 176.159C123.656 176.159 123.039 175.99 122.522 175.652C122.005 175.314 121.607 174.848 121.329 174.255C121.05 173.662 120.911 172.984 120.911 172.222C120.911 171.446 121.054 170.762 121.339 170.168C121.627 169.572 122.028 169.106 122.542 168.771C123.059 168.433 123.662 168.264 124.352 168.264C124.888 168.264 125.372 168.364 125.803 168.562C126.234 168.761 126.587 169.04 126.862 169.398C127.137 169.756 127.308 170.173 127.374 170.651H126.201C126.112 170.303 125.913 169.994 125.604 169.726C125.299 169.454 124.888 169.318 124.371 169.318C123.914 169.318 123.513 169.437 123.168 169.676C122.827 169.911 122.56 170.245 122.368 170.675C122.179 171.103 122.085 171.605 122.085 172.182C122.085 172.772 122.177 173.286 122.363 173.723C122.552 174.161 122.817 174.5 123.158 174.742C123.503 174.984 123.907 175.105 124.371 175.105C124.676 175.105 124.953 175.052 125.202 174.946C125.45 174.84 125.661 174.688 125.833 174.489C126.005 174.29 126.128 174.051 126.201 173.773H127.374C127.308 174.223 127.144 174.629 126.882 174.991C126.624 175.349 126.281 175.634 125.853 175.846C125.429 176.055 124.935 176.159 124.371 176.159ZM132.411 168.364V169.358H128.453V168.364H132.411ZM129.607 166.534H130.78V173.812C130.78 174.144 130.828 174.393 130.924 174.558C131.023 174.721 131.149 174.83 131.302 174.886C131.458 174.939 131.622 174.966 131.794 174.966C131.923 174.966 132.029 174.959 132.112 174.946C132.195 174.929 132.261 174.916 132.311 174.906L132.55 175.96C132.47 175.99 132.359 176.02 132.217 176.05C132.074 176.083 131.893 176.099 131.675 176.099C131.343 176.099 131.018 176.028 130.7 175.886C130.385 175.743 130.124 175.526 129.915 175.234C129.709 174.943 129.607 174.575 129.607 174.131V166.534ZM134.175 176V168.364H135.349V176H134.175ZM134.772 167.091C134.543 167.091 134.346 167.013 134.18 166.857C134.018 166.701 133.937 166.514 133.937 166.295C133.937 166.077 134.018 165.889 134.18 165.734C134.346 165.578 134.543 165.5 134.772 165.5C135.001 165.5 135.196 165.578 135.359 165.734C135.524 165.889 135.607 166.077 135.607 166.295C135.607 166.514 135.524 166.701 135.359 166.857C135.196 167.013 135.001 167.091 134.772 167.091ZM143.742 168.364L140.918 176H139.725L136.901 168.364H138.174L140.282 174.449H140.361L142.469 168.364H143.742ZM145.291 176V168.364H146.464V176H145.291ZM145.887 167.091C145.659 167.091 145.461 167.013 145.296 166.857C145.133 166.701 145.052 166.514 145.052 166.295C145.052 166.077 145.133 165.889 145.296 165.734C145.461 165.578 145.659 165.5 145.887 165.5C146.116 165.5 146.311 165.578 146.474 165.734C146.64 165.889 146.722 166.077 146.722 166.295C146.722 166.514 146.64 166.701 146.474 166.857C146.311 167.013 146.116 167.091 145.887 167.091ZM151.934 168.364V169.358H147.977V168.364H151.934ZM149.13 166.534H150.303V173.812C150.303 174.144 150.351 174.393 150.447 174.558C150.547 174.721 150.673 174.83 150.825 174.886C150.981 174.939 151.145 174.966 151.317 174.966C151.447 174.966 151.553 174.959 151.636 174.946C151.719 174.929 151.785 174.916 151.835 174.906L152.073 175.96C151.994 175.99 151.883 176.02 151.74 176.05C151.598 176.083 151.417 176.099 151.198 176.099C150.867 176.099 150.542 176.028 150.224 175.886C149.909 175.743 149.647 175.526 149.438 175.234C149.233 174.943 149.13 174.575 149.13 174.131V166.534ZM154.455 178.864C154.256 178.864 154.078 178.847 153.923 178.814C153.767 178.784 153.659 178.754 153.599 178.724L153.898 177.69C154.183 177.763 154.435 177.79 154.653 177.77C154.872 177.75 155.066 177.652 155.235 177.477C155.407 177.304 155.565 177.024 155.707 176.636L155.926 176.04L153.102 168.364H154.375L156.483 174.449H156.562L158.67 168.364H159.943L156.702 177.114C156.556 177.508 156.375 177.835 156.16 178.093C155.944 178.355 155.694 178.549 155.409 178.675C155.127 178.801 154.809 178.864 154.455 178.864Z" fill="#929292"/>
<g filter="url(#filter6_d_21_94)">
<mask id="path-36-inside-1_21_94" fill="white">
<path fill-rule="evenodd" clip-rule="evenodd" d="M284.166 469.083C284.166 480.174 275.174 489.166 264.083 489.166C252.991 489.166 244 480.174 244 469.083C244 457.991 252.991 449 264.083 449C275.174 449 284.166 457.991 284.166 469.083ZM281.666 493.495C276.721 497.063 270.647 499.166 264.083 499.166C247.469 499.166 234 485.697 234 469.083C234 452.469 247.469 439 264.083 439C280.697 439 294.166 452.469 294.166 469.083C294.166 475.522 292.142 481.489 288.696 486.383L315.48 513.166C317.432 515.119 317.432 518.285 315.48 520.237C313.527 522.19 310.361 522.19 308.409 520.237L281.666 493.495Z"/>
</mask>
<path fill-rule="evenodd" clip-rule="evenodd" d="M284.166 469.083C284.166 480.174 275.174 489.166 264.083 489.166C252.991 489.166 244 480.174 244 469.083C244 457.991 252.991 449 264.083 449C275.174 449 284.166 457.991 284.166 469.083ZM281.666 493.495C276.721 497.063 270.647 499.166 264.083 499.166C247.469 499.166 234 485.697 234 469.083C234 452.469 247.469 439 264.083 439C280.697 439 294.166 452.469 294.166 469.083C294.166 475.522 292.142 481.489 288.696 486.383L315.48 513.166C317.432 515.119 317.432 518.285 315.48 520.237C313.527 522.19 310.361 522.19 308.409 520.237L281.666 493.495Z" fill="url(#paint0_linear_21_94)"/>
<path d="M281.666 493.495L282.373 492.787L281.771 492.186L281.081 492.684L281.666 493.495ZM288.696 486.383L287.879 485.807L287.394 486.495L287.989 487.09L288.696 486.383ZM315.48 513.166L314.773 513.873L315.48 513.166ZM308.409 520.237L307.702 520.944L308.409 520.237ZM264.083 490.166C275.727 490.166 285.166 480.727 285.166 469.083H283.166C283.166 479.622 274.622 488.166 264.083 488.166V490.166ZM243 469.083C243 480.727 252.439 490.166 264.083 490.166V488.166C253.544 488.166 245 479.622 245 469.083H243ZM264.083 448C252.439 448 243 457.439 243 469.083H245C245 458.544 253.544 450 264.083 450V448ZM285.166 469.083C285.166 457.439 275.727 448 264.083 448V450C274.622 450 283.166 458.544 283.166 469.083H285.166ZM264.083 500.166C270.864 500.166 277.141 497.993 282.251 494.306L281.081 492.684C276.3 496.133 270.43 498.166 264.083 498.166V500.166ZM233 469.083C233 486.249 246.916 500.166 264.083 500.166V498.166C248.021 498.166 235 485.145 235 469.083H233ZM264.083 438C246.916 438 233 451.916 233 469.083H235C235 453.021 248.021 440 264.083 440V438ZM295.166 469.083C295.166 451.916 281.249 438 264.083 438V440C280.145 440 293.166 453.021 293.166 469.083H295.166ZM289.514 486.959C293.075 481.902 295.166 475.735 295.166 469.083H293.166C293.166 475.31 291.21 481.077 287.879 485.807L289.514 486.959ZM287.989 487.09L314.773 513.873L316.187 512.459L289.404 485.676L287.989 487.09ZM314.773 513.873C316.335 515.435 316.335 517.968 314.773 519.53L316.187 520.944C318.53 518.601 318.53 514.802 316.187 512.459L314.773 513.873ZM314.773 519.53C313.21 521.092 310.678 521.092 309.116 519.53L307.702 520.944C310.045 523.287 313.844 523.287 316.187 520.944L314.773 519.53ZM309.116 519.53L282.373 492.787L280.959 494.202L307.702 520.944L309.116 519.53Z" fill="white" fill-opacity="0.5" mask="url(#path-36-inside-1_21_94)"/>
</g>
<g filter="url(#filter7_f_21_94)">
<rect x="312.931" y="92" width="383.809" height="153.139" rx="26" transform="rotate(25.9164 312.931 92)" fill="#7849FF" fill-opacity="0.3"/>
</g>
<rect width="64" height="64" transform="translate(387 348)" fill="white"/>
<path d="M395.96 342.88C388.891 342.88 383.16 348.324 383.16 355.04V403.68C383.16 410.396 388.891 415.84 395.96 415.84H447.16C454.229 415.84 459.96 410.396 459.96 403.68V355.04C459.96 348.324 454.229 342.88 447.16 342.88H395.96ZM399.774 358.514H414.289L424.596 372.428L437.103 358.514H441.674L426.66 375.214L445.174 400.206H430.664L418.703 384.062L404.189 400.206H399.617L416.639 381.277L399.774 358.514ZM406.774 361.988L432.571 396.731H438.174L412.378 361.988H406.774Z" fill="black"/>
<path d="M291.25 302.292C291.25 307.24 287.24 311.25 282.292 311.25H235.708C230.762 311.25 226.75 307.24 226.75 302.292V255.708C226.75 250.76 230.762 246.75 235.708 246.75H282.292C287.24 246.75 291.25 250.76 291.25 255.708V302.292Z" fill="#0078D4"/>
<path opacity="0.05" d="M269.75 302.292V284.198C269.75 281.171 268.283 279.364 265.823 279.364C264.363 279.364 263.289 280.186 262.635 281.807C262.605 281.922 262.562 282.39 262.58 283.803L262.583 302.292H250.042V268.25H262.583V270.151C264.415 268.888 266.66 268.25 269.281 268.25C277.427 268.25 282.29 273.792 282.29 283.074L282.292 302.292H269.75ZM235.708 302.292V268.25H241.902C238.314 268.25 235.708 265.613 235.708 261.977C235.708 258.346 238.357 255.708 242.004 255.708C245.609 255.708 248.177 258.272 248.25 261.941C248.25 265.604 245.6 268.25 241.952 268.25H248.25V302.292H235.708Z" fill="black"/>
<path opacity="0.07" d="M270.646 301.396V284.198C270.646 280.663 268.798 278.468 265.823 278.468C263.502 278.468 262.356 280.102 261.804 281.473C261.657 281.829 261.677 283.245 261.684 283.848L261.687 301.396H250.937V269.146H261.687V272.081C263.112 270.606 265.405 269.146 269.28 269.146C276.865 269.146 281.394 274.353 281.394 283.074L281.396 301.396H270.646ZM236.604 301.396V269.146H247.354V301.396H236.604ZM241.902 267.354C238.833 267.354 236.604 265.093 236.604 261.977C236.604 258.864 238.876 256.604 242.004 256.604C245.093 256.604 247.291 258.806 247.354 261.96C247.354 265.093 245.082 267.354 241.952 267.354H241.902Z" fill="black"/>
<path d="M237.5 270.042H246.458V300.5H237.5V270.042ZM241.952 266.458H241.902C239.229 266.458 237.5 264.466 237.5 261.977C237.5 259.435 239.283 257.5 242.004 257.5C244.729 257.5 246.408 259.435 246.458 261.977C246.458 264.464 244.729 266.458 241.952 266.458ZM280.5 300.5H271.542V284.198C271.542 280.26 269.347 277.572 265.823 277.572C263.133 277.572 261.679 279.385 260.973 281.137C260.715 281.765 260.792 283.499 260.792 284.375V300.5H251.833V270.042H260.792V274.729C262.083 272.729 264.106 270.042 269.281 270.042C275.691 270.042 280.498 274.073 280.498 283.074L280.5 300.5Z" fill="white"/>
<path d="M73.625 351.727V403.267C73.625 406.634 76.3592 409.368 79.7255 409.368H131.276C134.643 409.368 137.377 406.634 137.377 403.267V351.727C137.377 348.361 134.643 345.627 131.276 345.627H79.7273C76.3592 345.627 73.625 348.361 73.625 351.727Z" fill="url(#paint1_linear_21_94)"/>
<path fill-rule="evenodd" clip-rule="evenodd" d="M86.0228 388.123L86.021 366.873C86.021 361.008 90.7828 356.248 96.6478 356.248H107.271C113.136 356.248 117.898 361.008 117.898 366.873L117.896 372.186C117.896 374.141 119.484 375.729 121.439 375.729C123.394 375.729 124.981 377.314 124.981 379.269C124.981 380.564 124.983 385.979 124.983 388.123C124.983 393.988 120.221 398.748 114.356 398.748H96.6495C90.7845 398.748 86.0228 393.988 86.0228 388.123ZM114.356 384.582C114.356 382.628 112.768 381.04 110.814 381.04H98.4186C96.4636 381.04 94.8769 382.628 94.8769 384.582C94.8769 386.537 96.4636 388.123 98.4186 388.123H110.814C112.766 388.123 114.356 386.537 114.356 384.582ZM110.836 368.644C110.836 366.691 109.247 365.102 107.294 365.102H98.3974C96.4424 365.102 94.8557 366.691 94.8557 368.644C94.8557 370.599 96.4424 372.186 98.3974 372.186H107.294C109.245 372.186 110.836 370.599 110.836 368.644Z" fill="white"/>
</g>
<rect x="37.25" y="21.25" width="470.5" height="479.5" rx="31.75" stroke="#7353F5" stroke-width="0.5"/>
</g>
<defs>
<filter id="filter0_d_21_94" x="0.400002" y="0.400002" width="544.2" height="553.2" filterUnits="userSpaceOnUse" color-interpolation-filters="sRGB">
<feFlood flood-opacity="0" result="BackgroundImageFix"/>
<feColorMatrix in="SourceAlpha" type="matrix" values="0 0 0 0 0 0 0 0 0 0 0 0 0 0 0 0 0 0 127 0" result="hardAlpha"/>
<feOffset dy="16"/>
<feGaussianBlur stdDeviation="18.3"/>
<feComposite in2="hardAlpha" operator="out"/>
<feColorMatrix type="matrix" values="0 0 0 0 0.286275 0 0 0 0 0.785882 0 0 0 0 1 0 0 0 0.25 0"/>
<feBlend mode="normal" in2="BackgroundImageFix" result="effect1_dropShadow_21_94"/>
<feBlend mode="normal" in="SourceGraphic" in2="effect1_dropShadow_21_94" result="shape"/>
</filter>
<filter id="filter1_f_21_94" x="173.743" y="200.743" width="169.794" height="167.18" filterUnits="userSpaceOnUse" color-interpolation-filters="sRGB">
<feFlood flood-opacity="0" result="BackgroundImageFix"/>
<feBlend mode="normal" in="SourceGraphic" in2="BackgroundImageFix" result="shape"/>
<feGaussianBlur stdDeviation="25" result="effect1_foregroundBlur_21_94"/>
</filter>
<filter id="filter2_f_21_94" x="30.7432" y="289.743" width="170.258" height="167.406" filterUnits="userSpaceOnUse" color-interpolation-filters="sRGB">
<feFlood flood-opacity="0" result="BackgroundImageFix"/>
<feBlend mode="normal" in="SourceGraphic" in2="BackgroundImageFix" result="shape"/>
<feGaussianBlur stdDeviation="25" result="effect1_foregroundBlur_21_94"/>
</filter>
<filter id="filter3_f_21_94" x="326.743" y="292.743" width="170.258" height="167.406" filterUnits="userSpaceOnUse" color-interpolation-filters="sRGB">
<feFlood flood-opacity="0" result="BackgroundImageFix"/>
<feBlend mode="normal" in="SourceGraphic" in2="BackgroundImageFix" result="shape"/>
<feGaussianBlur stdDeviation="25" result="effect1_foregroundBlur_21_94"/>
</filter>
<filter id="filter4_f_21_94" x="177.743" y="412.743" width="170.258" height="167.406" filterUnits="userSpaceOnUse" color-interpolation-filters="sRGB">
<feFlood flood-opacity="0" result="BackgroundImageFix"/>
<feBlend mode="normal" in="SourceGraphic" in2="BackgroundImageFix" result="shape"/>
<feGaussianBlur stdDeviation="25" result="effect1_foregroundBlur_21_94"/>
</filter>
<filter id="filter5_f_21_94" x="-208.257" y="197.743" width="536.641" height="561.717" filterUnits="userSpaceOnUse" color-interpolation-filters="sRGB">
<feFlood flood-opacity="0" result="BackgroundImageFix"/>
<feBlend mode="normal" in="SourceGraphic" in2="BackgroundImageFix" result="shape"/>
<feGaussianBlur stdDeviation="50" result="effect1_foregroundBlur_21_94"/>
</filter>
<filter id="filter6_d_21_94" x="208.2" y="431.2" width="134.544" height="134.302" filterUnits="userSpaceOnUse" color-interpolation-filters="sRGB">
<feFlood flood-opacity="0" result="BackgroundImageFix"/>
<feColorMatrix in="SourceAlpha" type="matrix" values="0 0 0 0 0 0 0 0 0 0 0 0 0 0 0 0 0 0 127 0" result="hardAlpha"/>
<feOffset dy="18"/>
<feGaussianBlur stdDeviation="12.9"/>
<feComposite in2="hardAlpha" operator="out"/>
<feColorMatrix type="matrix" values="0 0 0 0 0.675333 0 0 0 0 0.594167 0 0 0 0 1 0 0 0 0.39 0"/>
<feBlend mode="normal" in2="BackgroundImageFix" result="effect1_dropShadow_21_94"/>
<feBlend mode="normal" in="SourceGraphic" in2="effect1_dropShadow_21_94" result="shape"/>
</filter>
<filter id="filter7_f_21_94" x="-45.2568" y="-199.257" width="994.655" height="887.999" filterUnits="userSpaceOnUse" color-interpolation-filters="sRGB">
<feFlood flood-opacity="0" result="BackgroundImageFix"/>
<feBlend mode="normal" in="SourceGraphic" in2="BackgroundImageFix" result="shape"/>
<feGaussianBlur stdDeviation="150" result="effect1_foregroundBlur_21_94"/>
</filter>
<linearGradient id="paint0_linear_21_94" x1="275.472" y1="439" x2="275.472" y2="521.702" gradientUnits="userSpaceOnUse">
<stop stop-color="#7849FF"/>
<stop offset="1" stop-color="#FF7DA4"/>
</linearGradient>
<linearGradient id="paint1_linear_21_94" x1="74.4839" y1="346.48" x2="129.408" y2="401.403" gradientUnits="userSpaceOnUse">
<stop stop-color="#FF975F"/>
<stop offset="1" stop-color="#FF7930"/>
</linearGradient>
<clipPath id="clip0_21_94">
<rect x="37" y="21" width="471" height="480" rx="32" fill="white"/>
</clipPath>
</defs>
</svg>
